<svg width="34" height="34" viewBox="0 0 34 34" fill="none" xmlns="http://www.w3.org/2000/svg">
<path fill-rule="evenodd" clip-rule="evenodd" d="M18.7 17.7618C18.7 18.6044 18.0199 19.2855 17.1818 19.2855C16.3437 19.2855 15.6635 18.6044 15.6635 17.7618V2.5238C15.6635 1.68114 16.3437 1 17.1818 1C18.0199 1 18.7 1.68114 18.7 2.5238V17.7618ZM22.1002 4.87229C22.4844 4.1241 23.4014 3.83306 24.1453 4.21705C29.2148 6.84865 32.3652 12.0372 32.3652 17.7621C32.3652 26.1628 25.5543 33 17.1826 33C8.81091 33 2 26.1628 2 17.7621C2 12.0372 5.15039 6.84865 10.2214 4.21705C10.9638 3.83153 11.8808 4.12258 12.2665 4.87229C12.6521 5.61895 12.3591 6.53779 11.6151 6.92484C7.55683 9.0292 5.03652 13.1815 5.03652 17.7621C5.03652 24.4835 10.4856 29.9524 17.1826 29.9524C23.8796 29.9524 29.3287 24.4835 29.3287 17.7621C29.3287 13.1815 26.8084 9.0292 22.7516 6.92484C22.0061 6.53779 21.7146 5.61895 22.1002 4.87229Z" fill="currentColor"/>
<path d="M24.1453 4.21705L24.3757 3.77328L24.3747 3.77275L24.1453 4.21705ZM22.1002 4.87229L22.5445 5.10173L22.545 5.10065L22.1002 4.87229ZM10.2214 4.21705L10.4517 4.66085L10.4518 4.6608L10.2214 4.21705ZM12.2665 4.87229L11.8218 5.101L11.8222 5.10173L12.2665 4.87229ZM11.6151 6.92484L11.8453 7.36871L11.8459 7.3684L11.6151 6.92484ZM22.7516 6.92484L22.5212 7.36859L22.5213 7.36868L22.7516 6.92484ZM17.1818 19.7855C18.2974 19.7855 19.2 18.8792 19.2 17.7618H18.2C18.2 18.3297 17.7423 18.7855 17.1818 18.7855V19.7855ZM15.1635 17.7618C15.1635 18.8792 16.0662 19.7855 17.1818 19.7855V18.7855C16.6212 18.7855 16.1635 18.3297 16.1635 17.7618H15.1635ZM15.1635 2.5238V17.7618H16.1635V2.5238H15.1635ZM17.1818 0.5C16.0662 0.5 15.1635 1.40639 15.1635 2.5238H16.1635C16.1635 1.95589 16.6212 1.5 17.1818 1.5V0.5ZM19.2 2.5238C19.2 1.40639 18.2974 0.5 17.1818 0.5V1.5C17.7423 1.5 18.2 1.95589 18.2 2.5238H19.2ZM19.2 17.7618V2.5238H18.2V17.7618H19.2ZM24.3747 3.77275C23.3856 3.26224 22.1662 3.64904 21.6554 4.64392L22.545 5.10065C22.8025 4.59916 23.4172 4.40388 23.916 4.66136L24.3747 3.77275ZM32.8652 17.7621C32.8652 11.8509 29.6112 6.49105 24.3757 3.77328L23.915 4.66083C28.8184 7.20625 31.8652 12.2235 31.8652 17.7621H32.8652ZM17.1826 33.5C25.8322 33.5 32.8652 26.4371 32.8652 17.7621H31.8652C31.8652 25.8884 25.2764 32.5 17.1826 32.5V33.5ZM1.5 17.7621C1.5 26.4371 8.53303 33.5 17.1826 33.5V32.5C9.0888 32.5 2.5 25.8884 2.5 17.7621H1.5ZM9.99107 3.77326C4.75405 6.49101 1.5 11.8509 1.5 17.7621H2.5C2.5 12.2235 5.54673 7.20629 10.4517 4.66085L9.99107 3.77326ZM12.7111 4.64358C12.1992 3.64834 10.9798 3.25983 9.99096 3.77331L10.4518 4.6608C10.9478 4.40324 11.5625 4.59682 11.8218 5.101L12.7111 4.64358ZM11.8459 7.3684C12.8338 6.85442 13.2231 5.6348 12.7107 4.64284L11.8222 5.10173C12.0812 5.60309 11.8843 6.22117 11.3844 6.48128L11.8459 7.3684ZM5.53652 17.7621C5.53652 13.3678 7.95322 9.38688 11.8453 7.36871L11.385 6.48096C7.16044 8.67152 4.53652 12.9953 4.53652 17.7621H5.53652ZM17.1826 29.4524C10.7634 29.4524 5.53652 24.2091 5.53652 17.7621H4.53652C4.53652 24.758 10.2077 30.4524 17.1826 30.4524V29.4524ZM28.8287 17.7621C28.8287 24.2091 23.6018 29.4524 17.1826 29.4524V30.4524C24.1575 30.4524 29.8287 24.758 29.8287 17.7621H28.8287ZM22.5213 7.36868C26.4119 9.38683 28.8287 13.3677 28.8287 17.7621H29.8287C29.8287 12.9953 27.2048 8.67157 22.9818 6.481L22.5213 7.36868ZM21.656 4.64284C21.144 5.63421 21.5307 6.85436 22.5212 7.36859L22.982 6.48108C22.4815 6.22123 22.2852 5.60368 22.5445 5.10173L21.656 4.64284Z" fill="currentColor"/>
</svg>
