<svg width="90" height="90" viewBox="0 0 90 90" fill="none" xmlns="http://www.w3.org/2000/svg">
<path d="M42.4698 9C44.1579 9 45.8445 9 47.5326 9C47.7158 9.13241 47.9314 9.12114 48.1399 9.13663C52.0205 9.4437 55.7489 10.3776 59.3026 11.958C74.5939 18.76 83.1526 34.2923 80.5318 50.7782C79.0579 60.0494 74.4924 67.6415 67.068 73.3815C58.3289 80.1384 48.4245 82.3569 37.6113 80.2116C30.8111 78.8622 24.9211 75.6493 19.9527 70.8094C14.4249 65.4245 10.9347 58.9324 9.56222 51.3275C9.33395 50.0654 9.186 48.7893 9 47.5201C9 45.8327 9 44.1466 9 42.4591C9.04791 42.2324 9.12118 42.007 9.13809 41.7788C9.22122 40.5646 9.40158 39.3631 9.63831 38.1701C11.1742 30.4229 14.8491 23.859 20.6488 18.5092C25.7765 13.7807 31.789 10.7832 38.6695 9.56343C39.9292 9.34087 41.2016 9.18734 42.4698 9ZM45.0273 13.4976C27.7365 13.4595 13.5823 27.5692 13.4978 44.927C13.4146 62.2045 27.6139 76.4395 44.9723 76.4817C62.2617 76.5226 76.4144 62.4158 76.5032 45.0509C76.592 27.772 62.3899 13.5356 45.0273 13.4976Z" fill="#2F80ED"/>
<path d="M42.753 32.8851C42.4613 33.1612 42.2908 33.3133 42.1288 33.4753C39.9405 35.66 37.7592 37.8517 35.5667 40.0308C34.5 41.0914 33.1671 41.1337 32.2089 40.1603C31.2817 39.2194 31.3381 37.8926 32.3695 36.8558C35.9922 33.2231 39.6178 29.5933 43.2476 25.969C44.3608 24.8577 45.6148 24.8337 46.7083 25.9225C50.3775 29.575 54.0369 33.2358 57.692 36.9037C58.5276 37.7418 58.677 38.8025 58.1415 39.7237C57.6328 40.5984 56.6211 41.0097 55.5995 40.759C55.1007 40.6364 54.7315 40.3237 54.3793 39.9702C52.2107 37.7982 50.0379 35.6318 47.8651 33.4654C47.7045 33.3048 47.534 33.1541 47.248 32.8851C47.248 33.264 47.248 33.5091 47.248 33.7528C47.248 43.3085 47.2494 52.8642 47.2465 62.42C47.2465 64.1919 45.6007 65.3413 44.0818 64.6159C43.1504 64.1708 42.7431 63.3975 42.7445 62.3453C42.7586 53.7502 42.753 45.1537 42.753 36.5586C42.753 35.3923 42.753 34.2232 42.753 32.8851Z" fill="#2F80ED"/>
</svg>
