<svg width="90" height="90" viewBox="0 0 90 90" fill="none" xmlns="http://www.w3.org/2000/svg">
<path d="M81 78.4276C80.4674 79.6243 79.5416 80.0176 78.2467 79.9979C74.3802 79.9431 70.5124 79.9796 66.6459 79.9768C64.8945 79.9754 64.1209 79.2071 64.1209 77.4655C64.1181 70.4567 64.1223 63.4493 64.1181 56.4405C64.1167 54.9376 63.8109 53.5176 62.8528 52.3083C61.1577 50.1705 58.5749 49.4163 55.9977 50.2857C53.653 51.0765 52.0354 53.3645 52.0242 56.0037C52.003 60.5826 52.0185 65.1615 52.0171 69.7404C52.0171 72.3332 52.0213 74.926 52.0157 77.5203C52.0129 79.1411 51.1801 79.974 49.5499 79.9754C45.6129 79.9811 41.6746 79.9291 37.7377 79.9993C35.975 80.0302 35.0732 79.0203 35.0774 77.3517C35.107 67.2135 35.0915 57.074 35.0915 46.9358C35.0915 43.1983 35.0887 39.4607 35.0929 35.7232C35.0943 33.8228 35.882 33.039 37.78 33.0376C41.507 33.0362 45.2339 33.0699 48.9595 33.0222C50.508 33.0025 51.7057 33.3537 52.0552 35.0939C53.9433 34.0826 55.9075 33.5054 57.969 33.2553C61.982 32.7708 65.8738 33.195 69.5232 34.9984C75.1144 37.7612 78.3115 42.437 79.9883 48.2814C80.4392 49.8531 80.721 51.4585 80.8563 53.0892C80.8718 53.2718 80.852 53.4671 80.9986 53.6159C81 61.8874 81 70.1575 81 78.4276ZM39.3793 56.5037C39.3793 62.6698 39.3877 68.8358 39.3666 75.0005C39.3652 75.5876 39.5343 75.7407 40.1134 75.7322C42.3862 75.6999 44.659 75.6957 46.9318 75.7336C47.5546 75.7435 47.711 75.5721 47.7082 74.9569C47.6843 68.8611 47.6941 62.7653 47.6927 56.6695C47.6927 55.9911 47.7054 55.3155 47.8097 54.6441C48.4705 50.3995 50.8335 47.478 54.9029 46.1549C58.9581 44.836 62.5864 45.8543 65.5694 48.8854C67.6055 50.9543 68.4171 53.5289 68.4058 56.4096C68.3819 62.5981 68.4058 68.7881 68.3875 74.9766C68.3861 75.544 68.5228 75.7421 69.1231 75.7322C71.3719 75.6985 73.6222 75.6901 75.871 75.7351C76.5657 75.7491 76.7207 75.5356 76.7179 74.8712C76.6925 68.6827 76.7024 62.4928 76.7024 56.3043C76.7024 54.2929 76.546 52.2971 76.081 50.3349C75.3145 47.1016 73.9674 44.1562 71.6382 41.7347C68.8131 38.7978 65.2763 37.4817 61.2521 37.3567C58.5086 37.271 55.9005 37.7766 53.5206 39.2135C52.6935 39.7135 52.0115 40.3919 51.2661 40.9931C49.8711 42.1154 48.0534 41.4355 47.7575 39.6714C47.6617 39.1026 47.68 38.507 47.7054 37.9269C47.7251 37.4719 47.5842 37.3314 47.1192 37.3356C44.776 37.3581 42.4327 37.3679 40.0909 37.33C39.4864 37.3202 39.368 37.5112 39.3708 38.0758C39.3863 44.2194 39.3793 50.3616 39.3793 56.5037Z" fill="#2F80ED"/>
<path d="M9 56.4855C9 49.5258 9 42.5648 9 35.6052C9 33.8467 9.80457 33.0405 11.5743 33.039C15.4873 33.0362 19.4002 33.0362 23.3132 33.039C25.0787 33.0405 25.8763 33.8439 25.8777 35.6136C25.8791 49.5567 25.8791 63.4999 25.8777 77.443C25.8777 79.2001 25.114 79.974 23.3752 79.9768C19.4157 79.9811 15.4549 79.9811 11.4954 79.9768C9.78907 79.9754 9.00141 79.1903 9.00141 77.5048C9 70.4988 9 63.4914 9 56.4855ZM13.2976 56.4967C13.2976 62.6599 13.3047 68.8246 13.2849 74.9878C13.2835 75.5693 13.447 75.7407 14.0317 75.7322C16.3271 75.6999 18.6224 75.707 20.9178 75.7294C21.4208 75.7351 21.6111 75.6227 21.6111 75.0749C21.597 62.7007 21.597 50.3264 21.6096 37.9536C21.6096 37.4536 21.4476 37.3314 20.9685 37.3356C18.6732 37.3581 16.3764 37.3735 14.0825 37.3286C13.4146 37.316 13.2807 37.5294 13.2835 38.1475C13.3061 44.2629 13.2976 50.3798 13.2976 56.4967Z" fill="#2F80ED"/>
<path d="M17.4589 11C22.1341 11.0084 25.8724 14.7432 25.8738 19.4077C25.8738 24.0892 22.0947 27.8365 17.3856 27.8211C12.7428 27.8056 8.99188 24.026 9.00033 19.3698C9.01019 14.7277 12.7851 10.9916 17.4589 11ZM17.449 23.5189C19.7599 23.5133 21.6043 21.6635 21.579 19.3783C21.5536 17.1071 19.7458 15.3022 17.4674 15.2741C15.1847 15.246 13.3205 17.0944 13.3135 19.3951C13.3064 21.7028 15.1325 23.5245 17.449 23.5189Z" fill="#2F80ED"/>
</svg>
