<svg width="18" height="14" viewBox="0 0 18 14" fill="none" xmlns="http://www.w3.org/2000/svg">
<path fill-rule="evenodd" clip-rule="evenodd" d="M0.875 0H7C7.48125 0 7.875 0.39375 7.875 0.875C7.875 1.35625 7.48125 1.75 7 1.75H0.875C0.39375 1.75 0 1.35625 0 0.875C0 0.39375 0.39375 0 0.875 0ZM3.5 6.125H7C7.48125 6.125 7.875 6.51875 7.875 7C7.875 7.48125 7.48125 7.875 7 7.875H3.5C3.01875 7.875 2.625 7.48125 2.625 7C2.625 6.51875 3.01875 6.125 3.5 6.125ZM7 12.25H5.25C4.76875 12.25 4.375 12.6438 4.375 13.125C4.375 13.6062 4.76875 14 5.25 14H7C7.48125 14 7.875 13.6062 7.875 13.125C7.875 12.6438 7.48125 12.25 7 12.25ZM14.8752 12.8132C14.8752 13.2964 14.4835 13.6882 14.0002 13.6882C13.517 13.6882 13.1252 13.2964 13.1252 12.8132V2.93707L11.9834 4.0387C11.636 4.3747 11.0821 4.3642 10.7461 4.01682C10.4101 3.66945 10.4197 3.11557 10.7671 2.77957L13.3921 0.244696C13.7369 -0.0843039 14.282 -0.0825539 14.6189 0.256071L17.2439 2.88107C17.5851 3.2232 17.5851 3.77707 17.2439 4.11832C17.0732 4.28982 16.8492 4.3747 16.6252 4.3747C16.4012 4.3747 16.1772 4.28982 16.0066 4.11832L14.8752 2.98695V12.8132Z" fill="#828282"/>
</svg>
