<svg width="90" height="90" viewBox="0 0 90 90" fill="none" xmlns="http://www.w3.org/2000/svg">
<path d="M22.349 75.9957C21.3487 75.7117 20.3155 75.5361 19.3807 75.0408C15.9928 73.2453 14.052 70.4535 14.0363 66.6083C13.9792 52.5321 14.002 38.4573 14.0206 24.3811C14.0263 19.731 17.5341 15.7859 22.155 15.1022C22.6701 15.0265 23.181 15.0023 23.6948 15.0023C33.3619 15.0008 43.029 14.998 52.696 15.0023C57.384 15.0051 61.1672 18.0581 62.1676 22.6341C62.2989 23.235 62.3674 23.8459 62.3674 24.4639C62.366 30.5586 62.366 36.6532 62.3674 42.7478C62.3674 43.747 61.9607 44.5234 61.0716 44.9902C60.251 45.4212 59.4162 45.3655 58.647 44.8517C57.9163 44.3636 57.5938 43.6471 57.5967 42.7693C57.6024 40.3871 57.5981 38.0049 57.5981 35.6227C57.5981 32.0487 57.5995 28.4761 57.5967 24.9021C57.5952 23.2265 57.0529 21.7977 55.6844 20.7472C54.781 20.055 53.7392 19.7681 52.6275 19.7681C43.0004 19.7595 33.3733 19.7509 23.7462 19.7695C20.7736 19.7752 18.7771 21.8676 18.7771 24.9035C18.7742 38.4231 18.7771 51.944 18.7728 65.4636C18.7728 66.1986 18.7614 66.9366 18.9611 67.6488C19.5948 69.9196 21.3986 71.2313 23.8903 71.2342C28.8723 71.2399 33.8542 71.2328 38.8376 71.2385C40.0592 71.2399 41.0011 71.9878 41.2522 73.1282C41.4948 74.2301 40.894 75.3491 39.7995 75.8387C39.6981 75.8844 39.554 75.8558 39.5055 76C33.7843 75.9957 28.066 75.9957 22.349 75.9957Z" fill="#2F80ED"/>
<path d="M47.9596 75.9957C47.3331 75.6646 46.7237 75.3306 46.4026 74.6312C46.1001 73.9718 46.1386 73.3224 46.3398 72.6615C47.2403 69.6898 48.1451 66.721 49.0456 63.7494C49.2097 63.2055 49.4994 62.7459 49.9018 62.3449C54.1731 58.0886 58.4301 53.8181 62.7157 49.5761C64.7621 47.5522 67.2281 46.8828 69.9795 47.7463C72.7267 48.6098 74.3592 50.5481 74.8987 53.3899C74.913 53.4627 74.9658 53.5283 75 53.5969C75 54.232 75 54.8672 75 55.5038C74.9658 55.5723 74.9101 55.6379 74.8987 55.7107C74.6547 57.3436 73.8569 58.6781 72.7024 59.8285C68.5011 64.0148 64.3011 68.204 60.1084 72.3989C59.6303 72.877 59.0823 73.1896 58.4344 73.3637C56.8118 73.8005 55.1863 74.2316 53.5737 74.7054C52.0996 75.1379 50.5897 75.4462 49.1498 75.9943C48.753 75.9957 48.3563 75.9957 47.9596 75.9957ZM52.1153 70.1466C53.7321 69.6941 55.2149 69.2759 56.7019 68.8706C56.8874 68.8192 57.0173 68.7164 57.1443 68.5908C59.8943 65.8461 62.6414 63.0985 65.4014 60.3623C65.6512 60.114 65.6212 59.9784 65.3886 59.7514C64.481 58.8651 63.579 57.973 62.7014 57.0567C62.416 56.7584 62.2576 56.7626 61.965 57.0567C59.2692 59.7714 56.5549 62.4691 53.8492 65.1738C53.7107 65.3123 53.5409 65.4593 53.4867 65.6348C53.0257 67.0993 52.5905 68.5708 52.1153 70.1466ZM67.9259 52.171C67.054 52.2052 66.4446 52.572 65.9137 53.1201C65.7311 53.3085 65.811 53.417 65.9509 53.5569C66.9198 54.5218 67.886 55.4909 68.8536 56.4572C68.9663 56.57 69.0533 56.6642 69.2474 56.5243C70.018 55.9719 70.4091 54.7615 70.0965 53.7995C69.7926 52.8632 68.815 52.161 67.9259 52.171Z" fill="#2F80ED"/>
<path d="M29.9555 36.0951C28.4684 36.0823 27.488 35.6141 26.6717 34.7991C25.8711 33.9998 25.0834 33.1891 24.3042 32.3684C23.2981 31.3079 23.2824 29.8592 24.2471 28.9086C25.2175 27.9523 26.6603 27.988 27.7021 29.0099C28.2544 29.5509 28.8024 30.099 29.3175 30.677C29.5958 30.9882 29.74 30.9368 29.9826 30.6399C31.5367 28.733 33.1036 26.8376 34.6748 24.9435C35.7195 23.6846 37.3792 23.5861 38.4081 24.7109C39.2415 25.6229 39.2429 26.9146 38.3867 27.9623C37.0681 29.5752 35.738 31.178 34.4065 32.7795C33.8114 33.496 33.2292 34.2282 32.587 34.9019C31.7964 35.7283 30.7846 36.0908 29.9555 36.0951Z" fill="#2F80ED"/>
<path d="M29.7157 45.5839C31.3326 43.6242 32.9738 41.6374 34.6149 39.6506C35.4612 38.6258 36.5129 38.3089 37.5618 38.7556C39.0845 39.4051 39.4984 41.222 38.4052 42.5766C37.2721 43.981 36.1105 45.3613 34.9603 46.7529C34.3166 47.5322 33.6816 48.3201 33.0251 49.0894C31.2013 51.2247 28.5013 51.306 26.529 49.2964C25.8069 48.5599 25.0805 47.8277 24.3641 47.0855C23.3152 46.0007 23.261 44.5548 24.2257 43.5828C25.2104 42.588 26.6732 42.6508 27.7692 43.7227C28.4057 44.3422 29.055 44.9516 29.7157 45.5839Z" fill="#2F80ED"/>
<path d="M29.7656 65.1581C28.4913 65.1296 27.5023 64.6828 26.6831 63.865C25.8825 63.0657 25.0891 62.2607 24.3085 61.4428C23.3009 60.3866 23.2781 58.9336 24.2371 57.983C25.2161 57.011 26.6717 57.0595 27.7363 58.11C28.2729 58.6396 28.8109 59.1691 29.3161 59.7272C29.583 60.0212 29.7228 60.0112 29.9754 59.7001C31.5267 57.7917 33.0922 55.8963 34.6648 54.0051C35.7009 52.7605 37.3121 52.642 38.3553 53.7139C39.2472 54.6302 39.2558 55.9591 38.3553 57.0524C36.6042 59.1805 34.8446 61.3029 33.0865 63.4254C32.744 63.8393 32.3672 64.2132 31.9077 64.5044C31.2184 64.9412 30.4678 65.1424 29.7656 65.1581Z" fill="#2F80ED"/>
<path d="M46.9606 35.1288C45.7918 35.1288 44.6216 35.1374 43.4528 35.126C42.0671 35.1131 41.0425 34.0755 41.0539 32.7181C41.0639 31.3964 42.0914 30.3773 43.4543 30.3716C45.7932 30.3602 48.1308 30.3588 50.4698 30.373C51.8198 30.3802 52.8402 31.4221 52.8402 32.7495C52.8402 34.0769 51.8184 35.1103 50.4698 35.126C49.2996 35.1388 48.1308 35.1288 46.9606 35.1288Z" fill="#2F80ED"/>
<path d="M46.9506 49.7831C45.8018 49.7831 44.6516 49.7888 43.5028 49.7816C42.0957 49.7717 41.061 48.7683 41.0553 47.4209C41.0482 46.0421 42.0843 45.0287 43.527 45.0244C45.8061 45.0173 48.0852 45.0173 50.3642 45.0244C51.8099 45.0287 52.8459 46.0378 52.8416 47.4152C52.8374 48.7868 51.797 49.7759 50.3414 49.7831C49.2097 49.7874 48.0795 49.7831 46.9506 49.7831Z" fill="#2F80ED"/>
</svg>
