<svg width="74" height="65" viewBox="0 0 74 65" fill="none" xmlns="http://www.w3.org/2000/svg">
<path d="M73 19.3205C73 32.1136 73 44.9066 73 57.6997C72.8476 57.7863 72.8752 57.9463 72.8432 58.0858C72.0652 61.4555 69.1026 63.9868 65.8192 63.9897C45.878 64.0029 28.114 64.0044 8.17278 63.9883C4.39878 63.9853 1.02105 60.576 1.01524 56.7717C0.99492 44.5909 0.99492 32.4087 1.01524 20.2279C1.02105 16.4794 4.32766 13.0701 8.03634 13.0378C14.3607 12.9806 19.5253 13.0129 25.8496 13.007C26.0427 13.007 26.2357 12.9982 26.4288 13.007C26.7133 13.0202 26.8222 12.9057 26.7627 12.6135C26.2982 10.3156 26.5391 7.98991 26.5319 5.67885C26.5217 3.05946 28.4043 1.04793 30.8502 1.0259C34.9058 0.989198 38.9614 0.993603 43.017 1.0259C45.1174 1.04206 46.9812 2.64247 47.2105 4.75091C47.479 7.22494 47.4805 9.7254 47.1728 12.198C47.0813 12.9394 47.2163 13.0231 47.8695 13.0217C54.2432 13.007 59.6008 12.9952 65.9731 13.0408C68.0619 13.0554 69.7514 14.0421 71.1493 15.5882C72.1204 16.66 72.5936 17.9697 73 19.3205ZM36.8988 60.9783C46.5791 60.9783 55.2448 60.9798 64.9251 60.9754C65.5013 60.9754 66.0834 61.0018 66.6495 60.8403C68.8123 60.2265 69.9997 58.5894 70.0011 56.1462C70.0084 44.3795 70.0055 32.6143 69.9997 20.8475C69.9997 20.388 69.9895 19.9108 69.8763 19.4703C69.3058 17.2385 67.6366 16.0331 65.1283 16.0302C58.4411 16.0228 52.7699 16.0331 46.0826 16.0169C45.5673 16.0155 45.2393 16.1843 44.9301 16.5852C43.5178 18.4117 42.0895 20.225 40.6524 22.031C38.5129 24.7194 35.3195 24.7135 33.2031 22.0207C31.8967 20.3586 30.5715 18.7112 29.3203 17.0066C28.7934 16.2886 28.2752 15.9861 27.3302 15.9964C20.7881 16.0595 15.4073 16.0228 8.86372 16.0331C5.84596 16.0375 4.00977 17.817 4.00541 20.7903C3.9909 32.6055 3.99961 44.4206 3.99816 56.2358C3.99816 57.0243 4.09105 57.7907 4.467 58.4999C5.41195 60.2779 6.9143 60.993 8.87243 60.99C18.6021 60.968 27.1691 60.9783 36.8988 60.9783ZM44.3263 8.45535C44.3263 7.57732 44.3321 6.6993 44.3248 5.82127C44.3161 4.60701 43.8052 4.04467 42.6294 4.04026C38.8177 4.02558 35.0059 4.02558 31.1942 4.04173C30.062 4.04614 29.5409 4.61876 29.5336 5.7831C29.5249 7.34387 29.5583 8.90611 29.522 10.4669C29.4915 11.7736 29.882 12.9057 30.6876 13.9114C32.3743 16.014 34.0494 18.1254 35.7419 20.2221C36.5417 21.2131 37.4852 21.1999 38.2777 20.2015C39.8628 18.2047 41.4363 16.1975 43.0155 14.1963C43.901 13.0731 44.4322 11.8338 44.3335 10.3582C44.2914 9.7254 44.3277 9.08964 44.3263 8.45535Z" fill="#383838"/>
<path d="M22.4864 53.4035C18.4802 53.4035 14.4739 53.4079 10.4662 53.402C8.7984 53.3991 7.76055 52.5475 7.56749 51.0484C7.54572 50.881 7.52104 50.6989 7.56023 50.5389C8.11037 48.2719 8.59954 45.9799 9.53433 43.8348C10.5867 41.4195 12.4664 39.8837 14.8847 39.0145C15.5016 38.7927 15.5118 38.6063 15.1968 38.0733C13.5261 35.2513 12.8409 32.278 14.0312 29.0699C15.3927 25.4021 19.3192 22.8958 23.0482 23.3069C27.2562 23.7694 30.5047 26.8102 31.1187 30.8656C31.5092 33.438 30.9068 35.8004 29.5801 37.9867C29.2767 38.4859 29.2056 38.7135 29.8646 38.9234C33.3033 40.0173 35.3993 42.4062 36.3109 45.9021C36.6549 47.2191 37.0207 48.5303 37.3574 49.8503C37.8858 51.9205 36.7725 53.3918 34.6474 53.3991C30.5962 53.4138 26.542 53.4035 22.4864 53.4035ZM22.5125 50.2761C26.227 50.2761 29.9415 50.2673 33.656 50.2849C34.2439 50.2878 34.4282 50.1689 34.2279 49.5419C33.91 48.5494 33.6792 47.526 33.4136 46.5158C32.804 44.1974 31.3931 42.6293 29.1345 41.8629C28.6105 41.6852 28.0705 41.5531 27.5552 41.3549C27.0791 41.1713 26.7075 41.2668 26.2836 41.5472C23.8683 43.1476 21.3397 43.2445 18.8576 41.8012C18.0433 41.327 17.3857 41.3475 16.5772 41.5854C13.918 42.3665 12.2153 44.0477 11.5824 46.8066C11.3763 47.7051 11.1325 48.5993 10.8465 49.4759C10.6433 50.0999 10.7348 50.2981 11.4417 50.2908C15.1329 50.257 18.8227 50.2761 22.5125 50.2761ZM28.2331 32.8712C28.2664 30.8509 27.7381 29.5089 26.7452 28.3269C25.2777 26.5797 22.7172 25.894 20.4107 26.6619C18.2755 27.3725 16.5888 29.5676 16.4756 31.7906C16.3348 34.5788 17.4815 36.8209 19.4701 38.6298C21.0058 40.0276 23.0249 40.1656 24.61 39.0702C26.9209 37.4757 28.0255 35.1837 28.2331 32.8712Z" fill="#383838"/>
<path d="M50.7639 31.0021C54.5756 31.0021 58.3873 31.008 62.1991 30.9977C62.9466 30.9962 63.6056 31.1401 63.9555 31.886C64.3778 32.7875 63.8045 33.8212 62.8145 33.9665C62.5765 34.0018 62.3341 34.0076 62.0931 34.0076C54.5175 34.0091 47.958 34.0106 40.3839 34.0076C39.2894 34.0076 38.7669 33.7155 38.5143 32.9857C38.2182 32.1312 38.7437 31.2003 39.6247 31.055C39.9325 31.0036 40.2489 31.005 40.5624 31.005C44.3016 31.0006 47.0247 31.0006 50.7639 31.0021Z" fill="#383838"/>
<path d="M44.6906 40.0011C43.1723 40.0011 41.654 40.0114 40.1357 39.9982C39.1007 39.9879 38.4272 39.4021 38.4055 38.5343C38.3837 37.6666 39.0514 37.0176 40.0791 37.0103C43.1636 36.9897 45.232 36.9897 48.3166 37.0103C49.382 37.0176 49.9873 37.602 49.9829 38.5152C49.9786 39.43 49.3689 39.9864 48.3006 39.9982C46.7591 40.0129 46.2322 40.0011 44.6906 40.0011Z" fill="#383838"/>
<path d="M56.2681 39.9762C55.8588 39.9762 55.4465 40.0055 55.0415 39.9688C54.2867 39.8998 53.7598 39.3154 53.7323 38.571C53.7032 37.7782 54.1982 37.1439 54.9835 37.0514C55.8689 36.9471 56.7631 36.9486 57.65 37.0528C58.3699 37.138 58.9186 37.8031 58.9143 38.5094C58.9114 39.242 58.3206 39.9028 57.5658 39.9688C57.1376 40.007 56.7021 39.9762 56.2681 39.9762Z" fill="#383838"/>
<path d="M36.967 7.0091C37.6637 7.0091 38.3619 6.99442 39.0586 7.01351C39.9702 7.03847 40.6161 7.6478 40.6408 8.47444C40.6626 9.22179 40.1008 9.906 39.2662 9.97207C37.7087 10.0939 36.144 10.0969 34.5865 9.9706C33.7533 9.90306 33.1915 9.21445 33.2162 8.46856C33.2438 7.66689 33.8708 7.04728 34.7316 7.01791C35.4762 6.99295 36.2223 7.01204 36.9684 7.01204C36.967 7.01057 36.967 7.01057 36.967 7.0091Z" fill="#383838"/>
<path d="M73 19.3205C73 32.1136 73 44.9066 73 57.6997C72.8476 57.7863 72.8752 57.9463 72.8432 58.0858C72.0652 61.4555 69.1026 63.9868 65.8192 63.9897C45.878 64.0029 28.114 64.0044 8.17278 63.9883C4.39878 63.9853 1.02105 60.576 1.01524 56.7717C0.99492 44.5909 0.99492 32.4087 1.01524 20.2279C1.02105 16.4794 4.32766 13.0701 8.03634 13.0378C14.3607 12.9806 19.5253 13.0129 25.8496 13.007C26.0427 13.007 26.2357 12.9982 26.4288 13.007C26.7133 13.0202 26.8222 12.9057 26.7627 12.6135C26.2982 10.3156 26.5391 7.98991 26.5319 5.67885C26.5217 3.05946 28.4043 1.04793 30.8502 1.0259C34.9058 0.989198 38.9614 0.993603 43.017 1.0259C45.1174 1.04206 46.9812 2.64247 47.2105 4.75091C47.479 7.22494 47.4805 9.7254 47.1728 12.198C47.0813 12.9394 47.2163 13.0231 47.8695 13.0217C54.2432 13.007 59.6008 12.9952 65.9731 13.0408C68.0619 13.0554 69.7514 14.0421 71.1493 15.5882C72.1204 16.66 72.5936 17.9697 73 19.3205ZM36.8988 60.9783C46.5791 60.9783 55.2448 60.9798 64.9251 60.9754C65.5013 60.9754 66.0834 61.0018 66.6495 60.8403C68.8123 60.2265 69.9997 58.5894 70.0011 56.1462C70.0084 44.3795 70.0055 32.6143 69.9997 20.8475C69.9997 20.388 69.9895 19.9108 69.8763 19.4703C69.3058 17.2385 67.6366 16.0331 65.1283 16.0302C58.4411 16.0228 52.7699 16.0331 46.0826 16.0169C45.5673 16.0155 45.2393 16.1843 44.9301 16.5852C43.5178 18.4117 42.0895 20.225 40.6524 22.031C38.5129 24.7194 35.3195 24.7135 33.2031 22.0207C31.8967 20.3586 30.5715 18.7112 29.3203 17.0066C28.7934 16.2886 28.2752 15.9861 27.3302 15.9964C20.7881 16.0595 15.4073 16.0228 8.86372 16.0331C5.84596 16.0375 4.00977 17.817 4.00541 20.7903C3.9909 32.6055 3.99961 44.4206 3.99816 56.2358C3.99816 57.0243 4.09105 57.7907 4.467 58.4999C5.41195 60.2779 6.9143 60.993 8.87243 60.99C18.6021 60.968 27.1691 60.9783 36.8988 60.9783ZM44.3263 8.45535C44.3263 7.57732 44.3321 6.6993 44.3248 5.82127C44.3161 4.60701 43.8052 4.04467 42.6294 4.04026C38.8177 4.02558 35.0059 4.02558 31.1942 4.04173C30.062 4.04614 29.5409 4.61876 29.5336 5.7831C29.5249 7.34387 29.5583 8.90611 29.522 10.4669C29.4915 11.7736 29.882 12.9057 30.6876 13.9114C32.3743 16.014 34.0494 18.1254 35.7419 20.2221C36.5417 21.2131 37.4852 21.1999 38.2777 20.2015C39.8628 18.2047 41.4363 16.1975 43.0155 14.1963C43.901 13.0731 44.4322 11.8338 44.3335 10.3582C44.2914 9.7254 44.3277 9.08964 44.3263 8.45535Z" stroke="#383838" stroke-width="2"/>
<path d="M22.4864 53.4035C18.4802 53.4035 14.4739 53.4079 10.4662 53.402C8.7984 53.3991 7.76055 52.5475 7.56749 51.0484C7.54572 50.881 7.52104 50.6989 7.56023 50.5389C8.11037 48.2719 8.59954 45.9799 9.53433 43.8348C10.5867 41.4195 12.4664 39.8837 14.8847 39.0145C15.5016 38.7927 15.5118 38.6063 15.1968 38.0733C13.5261 35.2513 12.8409 32.278 14.0312 29.0699C15.3927 25.4021 19.3192 22.8958 23.0482 23.3069C27.2562 23.7694 30.5047 26.8102 31.1187 30.8656C31.5092 33.438 30.9068 35.8004 29.5801 37.9867C29.2767 38.4859 29.2056 38.7135 29.8646 38.9234C33.3033 40.0173 35.3993 42.4062 36.3109 45.9021C36.6549 47.2191 37.0207 48.5303 37.3574 49.8503C37.8858 51.9205 36.7725 53.3918 34.6474 53.3991C30.5962 53.4138 26.542 53.4035 22.4864 53.4035ZM22.5125 50.2761C26.227 50.2761 29.9415 50.2673 33.656 50.2849C34.2439 50.2878 34.4282 50.1689 34.2279 49.5419C33.91 48.5494 33.6792 47.526 33.4136 46.5158C32.804 44.1974 31.3931 42.6293 29.1345 41.8629C28.6105 41.6852 28.0705 41.5531 27.5552 41.3549C27.0791 41.1713 26.7075 41.2668 26.2836 41.5472C23.8683 43.1476 21.3397 43.2445 18.8576 41.8012C18.0433 41.327 17.3857 41.3475 16.5772 41.5854C13.918 42.3665 12.2153 44.0477 11.5824 46.8066C11.3763 47.7051 11.1325 48.5993 10.8465 49.4759C10.6433 50.0999 10.7348 50.2981 11.4417 50.2908C15.1329 50.257 18.8227 50.2761 22.5125 50.2761ZM28.2331 32.8712C28.2664 30.8509 27.7381 29.5089 26.7452 28.3269C25.2777 26.5797 22.7172 25.894 20.4107 26.6619C18.2755 27.3725 16.5888 29.5676 16.4756 31.7906C16.3348 34.5788 17.4815 36.8209 19.4701 38.6298C21.0058 40.0276 23.0249 40.1656 24.61 39.0702C26.9209 37.4757 28.0255 35.1837 28.2331 32.8712Z" stroke="#383838" stroke-width="2"/>
<path d="M50.7639 31.0021C54.5756 31.0021 58.3873 31.008 62.1991 30.9977C62.9466 30.9962 63.6056 31.1401 63.9555 31.886C64.3778 32.7875 63.8045 33.8212 62.8145 33.9665C62.5765 34.0018 62.3341 34.0076 62.0931 34.0076C54.5175 34.0091 47.958 34.0106 40.3839 34.0076C39.2894 34.0076 38.7669 33.7155 38.5143 32.9857C38.2182 32.1312 38.7437 31.2003 39.6247 31.055C39.9325 31.0036 40.2489 31.005 40.5624 31.005C44.3016 31.0006 47.0247 31.0006 50.7639 31.0021Z" stroke="#383838" stroke-width="2"/>
<path d="M44.6906 40.0011C43.1723 40.0011 41.654 40.0114 40.1357 39.9982C39.1007 39.9879 38.4272 39.4021 38.4055 38.5343C38.3837 37.6666 39.0514 37.0176 40.0791 37.0103C43.1636 36.9897 45.232 36.9897 48.3166 37.0103C49.382 37.0176 49.9873 37.602 49.9829 38.5152C49.9786 39.43 49.3689 39.9864 48.3006 39.9982C46.7591 40.0129 46.2322 40.0011 44.6906 40.0011Z" stroke="#383838" stroke-width="2"/>
<path d="M56.2681 39.9762C55.8588 39.9762 55.4465 40.0055 55.0415 39.9688C54.2867 39.8998 53.7598 39.3154 53.7323 38.571C53.7032 37.7782 54.1982 37.1439 54.9835 37.0514C55.8689 36.9471 56.7631 36.9486 57.65 37.0528C58.3699 37.138 58.9186 37.8031 58.9143 38.5094C58.9114 39.242 58.3206 39.9028 57.5658 39.9688C57.1376 40.007 56.7021 39.9762 56.2681 39.9762Z" stroke="#383838" stroke-width="2"/>
<path d="M36.967 7.0091C37.6637 7.0091 38.3619 6.99442 39.0586 7.01351C39.9702 7.03847 40.6161 7.6478 40.6408 8.47444C40.6626 9.22179 40.1008 9.906 39.2662 9.97207C37.7087 10.0939 36.144 10.0969 34.5865 9.9706C33.7533 9.90306 33.1915 9.21445 33.2162 8.46856C33.2438 7.66689 33.8708 7.04728 34.7316 7.01791C35.4762 6.99295 36.2223 7.01204 36.9684 7.01204C36.967 7.01057 36.967 7.01057 36.967 7.0091Z" stroke="#383838" stroke-width="2"/>
</svg>
