<svg width="24" height="24" viewBox="0 0 24 24" fill="none" xmlns="http://www.w3.org/2000/svg">
<path fill-rule="evenodd" clip-rule="evenodd" d="M6.0012 12.006C6.0012 12.0036 6 12.0024 6 12C6 11.9604 6.0192 11.928 6.0228 11.8896C6.0324 11.7744 6.0468 11.6592 6.0912 11.5512C6.1236 11.4696 6.1788 11.4048 6.228 11.3328C6.2652 11.28 6.2856 11.2188 6.3312 11.1708L9.7668 7.57079C10.2252 7.09079 10.9836 7.07399 11.4636 7.53119C11.9424 7.98839 11.9604 8.74799 11.5032 9.22799L10.0032 10.8H16.8C17.4624 10.8 18 11.3364 18 12C18 12.6624 17.4624 13.2 16.8 13.2H10.0968L11.6484 14.7516C12.1176 15.2196 12.1176 15.9792 11.6484 16.4484C11.4144 16.6824 11.1072 16.8 10.8 16.8C10.4928 16.8 10.1856 16.6824 9.9516 16.4484L6.3516 12.8484C6.2424 12.7392 6.1536 12.6072 6.0936 12.462C6.0324 12.3168 6.0024 12.162 6.0012 12.006ZM11.9997 21.5989C17.2929 21.5989 21.5997 17.2921 21.5997 11.9989C21.5997 6.70573 17.2929 2.39893 11.9997 2.39893C6.7065 2.39893 2.3997 6.70573 2.3997 11.9989C2.3997 17.2921 6.7065 21.5989 11.9997 21.5989ZM12 0C18.6168 0 24 5.3832 24 12C24 18.6168 18.6168 24 12 24C5.3832 24 0 18.6168 0 12C0 5.3832 5.3832 0 12 0Z" fill="white"/>
</svg>
