<svg width="33" height="34" viewBox="0 0 33 34" fill="none" xmlns="http://www.w3.org/2000/svg">
<path fill-rule="evenodd" clip-rule="evenodd" d="M17.8645 17.7618C17.8645 18.6044 17.1843 19.2855 16.3463 19.2855C15.5082 19.2855 14.828 18.6044 14.828 17.7618V2.5238C14.828 1.68114 15.5082 1 16.3463 1C17.1843 1 17.8645 1.68114 17.8645 2.5238V17.7618ZM21.2647 4.87229C21.6489 4.1241 22.5659 3.83306 23.3098 4.21705C28.3793 6.84865 31.5297 12.0372 31.5297 17.7621C31.5297 26.1628 24.7188 33 16.3471 33C7.9754 33 1.16449 26.1628 1.16449 17.7621C1.16449 12.0372 4.31488 6.84865 9.38587 4.21705C10.1283 3.83153 11.0453 4.12258 11.431 4.87229C11.8166 5.61895 11.5236 6.53779 10.7796 6.92484C6.72132 9.0292 4.20101 13.1815 4.20101 17.7621C4.20101 24.4835 9.65005 29.9524 16.3471 29.9524C23.0441 29.9524 28.4932 24.4835 28.4932 17.7621C28.4932 13.1815 25.9729 9.0292 21.9161 6.92484C21.1706 6.53779 20.8791 5.61895 21.2647 4.87229Z" fill="white"/>
<path d="M23.3098 4.21705L23.5402 3.77328L23.5392 3.77275L23.3098 4.21705ZM21.2647 4.87229L21.709 5.10173L21.7095 5.10065L21.2647 4.87229ZM9.38587 4.21705L9.61618 4.66085L9.61629 4.6608L9.38587 4.21705ZM11.431 4.87229L10.9863 5.101L10.9867 5.10173L11.431 4.87229ZM10.7796 6.92484L11.0098 7.36871L11.0104 7.3684L10.7796 6.92484ZM21.9161 6.92484L21.6857 7.36859L21.6858 7.36868L21.9161 6.92484ZM16.3463 19.7855C17.4619 19.7855 18.3645 18.8792 18.3645 17.7618H17.3645C17.3645 18.3297 16.9068 18.7855 16.3463 18.7855V19.7855ZM14.328 17.7618C14.328 18.8792 15.2307 19.7855 16.3463 19.7855V18.7855C15.7857 18.7855 15.328 18.3297 15.328 17.7618H14.328ZM14.328 2.5238V17.7618H15.328V2.5238H14.328ZM16.3463 0.5C15.2307 0.5 14.328 1.40639 14.328 2.5238H15.328C15.328 1.95589 15.7857 1.5 16.3463 1.5V0.5ZM18.3645 2.5238C18.3645 1.40639 17.4619 0.5 16.3463 0.5V1.5C16.9068 1.5 17.3645 1.95589 17.3645 2.5238H18.3645ZM18.3645 17.7618V2.5238H17.3645V17.7618H18.3645ZM23.5392 3.77275C22.5501 3.26224 21.3307 3.64904 20.8199 4.64392L21.7095 5.10065C21.967 4.59916 22.5817 4.40388 23.0805 4.66136L23.5392 3.77275ZM32.0297 17.7621C32.0297 11.8509 28.7757 6.49105 23.5402 3.77328L23.0795 4.66083C27.9829 7.20625 31.0297 12.2235 31.0297 17.7621H32.0297ZM16.3471 33.5C24.9967 33.5 32.0297 26.4371 32.0297 17.7621H31.0297C31.0297 25.8884 24.4409 32.5 16.3471 32.5V33.5ZM0.66449 17.7621C0.66449 26.4371 7.69752 33.5 16.3471 33.5V32.5C8.25329 32.5 1.66449 25.8884 1.66449 17.7621H0.66449ZM9.15556 3.77326C3.91854 6.49101 0.66449 11.8509 0.66449 17.7621H1.66449C1.66449 12.2235 4.71122 7.20629 9.61618 4.66085L9.15556 3.77326ZM11.8756 4.64358C11.3637 3.64834 10.1443 3.25983 9.15545 3.77331L9.61629 4.6608C10.1123 4.40324 10.727 4.59682 10.9863 5.101L11.8756 4.64358ZM11.0104 7.3684C11.9983 6.85442 12.3875 5.6348 11.8752 4.64284L10.9867 5.10173C11.2457 5.60309 11.0488 6.22117 10.5489 6.48128L11.0104 7.3684ZM4.70101 17.7621C4.70101 13.3678 7.11771 9.38688 11.0098 7.36871L10.5495 6.48096C6.32493 8.67152 3.70101 12.9953 3.70101 17.7621H4.70101ZM16.3471 29.4524C9.9279 29.4524 4.70101 24.2091 4.70101 17.7621H3.70101C3.70101 24.758 9.37219 30.4524 16.3471 30.4524V29.4524ZM27.9932 17.7621C27.9932 24.2091 22.7663 29.4524 16.3471 29.4524V30.4524C23.322 30.4524 28.9932 24.758 28.9932 17.7621H27.9932ZM21.6858 7.36868C25.5764 9.38683 27.9932 13.3677 27.9932 17.7621H28.9932C28.9932 12.9953 26.3693 8.67157 22.1463 6.481L21.6858 7.36868ZM20.8205 4.64284C20.3085 5.63421 20.6952 6.85436 21.6857 7.36859L22.1465 6.48108C21.646 6.22123 21.4497 5.60368 21.709 5.10173L20.8205 4.64284Z" fill="white"/>
</svg>
