<svg width="24" height="26" viewBox="0 0 24 26" fill="none" xmlns="http://www.w3.org/2000/svg">
<path fill-rule="evenodd" clip-rule="evenodd" d="M4.33333 23.1111C3.53744 23.1111 2.88889 22.4625 2.88889 21.6666C2.88889 20.8707 3.53744 20.2222 4.33333 20.2222H20.2222V23.1111H4.33333ZM4.33333 2.88892H20.2222V17.3334H4.33333C3.82344 17.3334 3.34244 17.4374 2.88889 17.5991V4.33336C2.88889 3.53747 3.53744 2.88892 4.33333 2.88892ZM21.6667 0H4.33333C1.94422 0 0 1.94422 0 4.33333V21.6667C0 24.0558 1.94422 26 4.33333 26H20.2222H21.6667C22.464 26 23.1111 25.3529 23.1111 24.5556V23.1111V20.2222V1.44444C23.1111 0.647111 22.464 0 21.6667 0Z" fill="white"/>
</svg>
