<svg width="10" height="10" viewBox="0 0 10 10" fill="none" xmlns="http://www.w3.org/2000/svg">
<path fill-rule="evenodd" clip-rule="evenodd" d="M8.76105 3.84711L5.24532 0.296017L5.24249 0.293189C4.85358 -0.0957197 4.22284 -0.0985481 3.83181 0.289654C3.44007 0.677148 3.43583 1.31072 3.82474 1.70387L5.63776 3.53527L0.999849 3.53598C0.447598 3.53527 0 3.98287 0 4.53583C0 4.8116 0.111723 5.06192 0.292742 5.24294C0.473054 5.42325 0.72337 5.53497 0.999849 5.53568H5.65403L3.82757 7.36496C3.43795 7.75458 3.43725 8.38744 3.82828 8.77847C4.2186 9.16879 4.85287 9.16809 5.2432 8.77776L8.75822 5.25708C9.14713 4.86817 9.14784 4.23814 8.76105 3.84711Z"/>
</svg>
