<svg width="45" height="64" viewBox="0 0 45 64" fill="none" xmlns="http://www.w3.org/2000/svg">
<path d="M1 61.9099C1 43.3211 1 24.7323 1 6.1435C1.16569 5.64275 1.28281 5.11726 1.50563 4.64417C2.6583 2.19866 4.59226 1.00065 7.24325 1.00065C17.4216 0.999191 27.5999 1.00065 37.7782 1.00065C37.921 1.00065 38.0624 1.00793 38.2053 1.01666C41.6475 1.23501 43.99 3.76058 43.99 7.27746C43.9929 25.2112 43.9886 43.1464 44 61.0802C44 61.8793 43.8129 62.5446 43.0544 62.8561C42.3074 63.1618 41.6961 62.8634 41.1448 62.2884C39.5179 60.594 37.8539 58.9374 36.2284 57.2416C35.9056 56.9039 35.7314 56.8966 35.4043 57.2387C33.8117 58.8996 32.192 60.5329 30.5808 62.1748C29.5138 63.2608 28.794 63.2666 27.7413 62.1952C26.1473 60.5707 24.5404 58.9564 22.9706 57.3071C22.5921 56.9083 22.3893 56.9315 22.0222 57.3158C20.4825 58.9287 18.9113 60.5081 17.3501 62.0977C16.1775 63.2928 15.5119 63.2972 14.3592 62.1195C12.7838 60.5096 11.1912 58.9156 9.64142 57.2794C9.2572 56.8733 9.07152 56.9228 8.71301 57.2969C7.14041 58.9433 5.53496 60.5576 3.93951 62.1821C2.7897 63.3539 1.90271 63.2695 1 61.9099ZM40.7962 57.5153C41.0191 57.2198 40.9334 56.9446 40.9334 56.6899C40.9377 40.3326 40.9391 23.9768 40.9362 7.61954C40.9362 5.23517 39.8264 4.10703 37.4997 4.10703C27.5142 4.10703 17.5287 4.10703 7.5432 4.10703C5.15074 4.10703 4.05664 5.21042 4.05664 7.63992C4.05521 23.9972 4.05521 40.353 4.06092 56.7103C4.06092 56.9592 3.96379 57.2358 4.20661 57.5094C5.3707 56.3216 6.5248 55.1425 7.67889 53.9649C8.8587 52.7611 9.49716 52.7538 10.657 53.9358C12.2167 55.5268 13.795 57.1004 15.3248 58.7206C15.7533 59.1747 15.9675 59.118 16.366 58.7002C17.9515 57.0334 19.5726 55.4016 21.1866 53.764C22.1122 52.8237 22.8892 52.8266 23.8176 53.7684C25.4645 55.4424 27.1142 57.112 28.7425 58.805C29.0611 59.1354 29.241 59.166 29.5767 58.8152C31.1336 57.1877 32.7204 55.5894 34.2973 53.9809C35.5028 52.7509 36.127 52.7465 37.3254 53.9693C38.4781 55.1469 39.6307 56.326 40.7962 57.5153Z" fill="#383838"/>
<path d="M22.5693 37.2292C26.1487 37.2292 29.7281 37.2277 33.3075 37.2306C34.3945 37.2306 35.0915 37.81 35.1315 38.7329C35.1715 39.6558 34.4373 40.3617 33.3389 40.3632C26.1087 40.3748 18.8799 40.3734 11.6497 40.3632C10.5784 40.3617 9.87281 39.7082 9.86139 38.8013C9.84996 37.8595 10.5741 37.2321 11.6897 37.2306C15.3162 37.2277 18.9427 37.2292 22.5693 37.2292Z" fill="#383838"/>
<path d="M19.0799 47.1175C16.5217 47.1175 13.9636 47.1291 11.4054 47.1102C10.5798 47.1044 10.0042 46.5614 9.87853 45.7754C9.77426 45.1261 10.1856 44.4201 10.8127 44.1436C11.1312 44.0024 11.464 44.0329 11.7911 44.0329C14.8234 44.0286 17.8543 44.03 20.8867 44.0315C22.9235 44.0329 24.9603 44.0227 26.9971 44.0475C27.7613 44.0562 28.3512 44.6356 28.454 45.375C28.5454 46.0403 28.1426 46.7405 27.5199 47.0083C27.2028 47.1451 26.87 47.1218 26.54 47.1218C24.0533 47.1247 21.5666 47.1233 19.0784 47.1233C19.0799 47.1218 19.0799 47.1204 19.0799 47.1175Z" fill="#383838"/>
<path d="M21.4623 25.0831C22.1079 25.0831 22.755 25.0904 23.4006 25.0817C24.3947 25.0686 25.1317 24.3567 25.1274 23.4251C25.1231 22.4891 24.389 21.8137 23.3891 21.7904C22.3536 21.7657 21.3109 21.904 20.2882 21.6128C18.2657 21.0378 16.9116 19.1033 17.0259 16.9329C17.133 14.8891 18.7113 13.0885 20.7224 12.7609C21.051 12.7071 21.0952 12.5732 21.0852 12.2966C21.0695 11.8628 21.0724 11.429 21.0838 10.9952C21.1038 10.2208 21.728 9.59051 22.475 9.5745C23.232 9.55848 23.8905 10.2048 23.9119 10.9981C23.9233 11.4319 23.9333 11.8672 23.9076 12.2995C23.8905 12.6081 24.0048 12.6882 24.2861 12.6721C24.6632 12.6518 25.0417 12.6605 25.4202 12.6692C26.3101 12.6896 26.9343 13.2762 26.9471 14.1001C26.9614 14.9561 26.3515 15.582 25.4388 15.5951C24.1005 15.6155 22.7607 15.5951 21.4209 15.6097C20.7367 15.6169 20.2597 15.9823 19.9983 16.617C19.744 17.2371 19.8626 17.8165 20.2825 18.323C20.6339 18.7466 21.1124 18.8791 21.638 18.8835C22.3622 18.8893 23.0892 18.8718 23.8119 18.9082C26.0016 19.0203 27.8113 20.8515 27.967 23.0903C28.1241 25.3408 26.6072 27.4326 24.4675 27.8605C24.0376 27.9464 23.8419 28.0789 23.9033 28.5549C23.9505 28.9173 23.9205 29.2929 23.9105 29.6626C23.8876 30.4763 23.2706 31.0761 22.475 31.0673C21.7066 31.0586 21.1024 30.4574 21.0824 29.667C21.071 29.2012 21.0695 28.7354 21.0838 28.2696C21.091 28.0352 21.0067 27.9639 20.7839 27.9697C20.3425 27.9828 19.9011 27.9799 19.4598 27.9712C18.6485 27.9566 18.0515 27.3496 18.0443 26.5446C18.0372 25.7149 18.6399 25.0962 19.4741 25.086C20.1397 25.0773 20.801 25.0831 21.4623 25.0831Z" fill="#383838"/>
<path d="M1 61.9099C1 43.3211 1 24.7323 1 6.1435C1.16569 5.64275 1.28281 5.11726 1.50563 4.64417C2.6583 2.19866 4.59226 1.00065 7.24325 1.00065C17.4216 0.999191 27.5999 1.00065 37.7782 1.00065C37.921 1.00065 38.0624 1.00793 38.2053 1.01666C41.6475 1.23501 43.99 3.76058 43.99 7.27746C43.9929 25.2112 43.9886 43.1464 44 61.0802C44 61.8793 43.8129 62.5446 43.0544 62.8561C42.3074 63.1618 41.6961 62.8634 41.1448 62.2884C39.5179 60.594 37.8539 58.9374 36.2284 57.2416C35.9056 56.9039 35.7314 56.8966 35.4043 57.2387C33.8117 58.8996 32.192 60.5329 30.5808 62.1748C29.5138 63.2608 28.794 63.2666 27.7413 62.1952C26.1473 60.5707 24.5404 58.9564 22.9706 57.3071C22.5921 56.9083 22.3893 56.9315 22.0222 57.3158C20.4825 58.9287 18.9113 60.5081 17.3501 62.0977C16.1775 63.2928 15.5119 63.2972 14.3592 62.1195C12.7838 60.5096 11.1912 58.9156 9.64142 57.2794C9.2572 56.8733 9.07152 56.9228 8.71301 57.2969C7.14041 58.9433 5.53496 60.5576 3.93951 62.1821C2.7897 63.3539 1.90271 63.2695 1 61.9099ZM40.7962 57.5153C41.0191 57.2198 40.9334 56.9446 40.9334 56.6899C40.9377 40.3326 40.9391 23.9768 40.9362 7.61954C40.9362 5.23517 39.8264 4.10703 37.4997 4.10703C27.5142 4.10703 17.5287 4.10703 7.5432 4.10703C5.15074 4.10703 4.05664 5.21042 4.05664 7.63992C4.05521 23.9972 4.05521 40.353 4.06092 56.7103C4.06092 56.9592 3.96379 57.2358 4.20661 57.5094C5.3707 56.3216 6.5248 55.1425 7.67889 53.9649C8.8587 52.7611 9.49716 52.7538 10.657 53.9358C12.2167 55.5268 13.795 57.1004 15.3248 58.7206C15.7533 59.1747 15.9675 59.118 16.366 58.7002C17.9515 57.0334 19.5726 55.4016 21.1866 53.764C22.1122 52.8237 22.8892 52.8266 23.8176 53.7684C25.4645 55.4424 27.1142 57.112 28.7425 58.805C29.0611 59.1354 29.241 59.166 29.5767 58.8152C31.1336 57.1877 32.7204 55.5894 34.2973 53.9809C35.5028 52.7509 36.127 52.7465 37.3254 53.9693C38.4781 55.1469 39.6307 56.326 40.7962 57.5153Z" stroke="#383838" stroke-width="2"/>
<path d="M22.5693 37.2292C26.1487 37.2292 29.7281 37.2277 33.3075 37.2306C34.3945 37.2306 35.0915 37.81 35.1315 38.7329C35.1715 39.6558 34.4373 40.3617 33.3389 40.3632C26.1087 40.3748 18.8799 40.3734 11.6497 40.3632C10.5784 40.3617 9.87281 39.7082 9.86139 38.8013C9.84996 37.8595 10.5741 37.2321 11.6897 37.2306C15.3162 37.2277 18.9427 37.2292 22.5693 37.2292Z" stroke="#383838" stroke-width="2"/>
<path d="M19.0799 47.1175C16.5217 47.1175 13.9636 47.1291 11.4054 47.1102C10.5798 47.1044 10.0042 46.5614 9.87853 45.7754C9.77426 45.1261 10.1856 44.4201 10.8127 44.1436C11.1312 44.0024 11.464 44.0329 11.7911 44.0329C14.8234 44.0286 17.8543 44.03 20.8867 44.0315C22.9235 44.0329 24.9603 44.0227 26.9971 44.0475C27.7613 44.0562 28.3512 44.6356 28.454 45.375C28.5454 46.0403 28.1426 46.7405 27.5199 47.0083C27.2028 47.1451 26.87 47.1218 26.54 47.1218C24.0533 47.1247 21.5666 47.1233 19.0784 47.1233C19.0799 47.1218 19.0799 47.1204 19.0799 47.1175Z" stroke="#383838" stroke-width="2"/>
<path d="M21.4623 25.0831C22.1079 25.0831 22.755 25.0904 23.4006 25.0817C24.3947 25.0686 25.1317 24.3567 25.1274 23.4251C25.1231 22.4891 24.389 21.8137 23.3891 21.7904C22.3536 21.7657 21.3109 21.904 20.2882 21.6128C18.2657 21.0378 16.9116 19.1033 17.0259 16.9329C17.133 14.8891 18.7113 13.0885 20.7224 12.7609C21.051 12.7071 21.0952 12.5732 21.0852 12.2966C21.0695 11.8628 21.0724 11.429 21.0838 10.9952C21.1038 10.2208 21.728 9.59051 22.475 9.5745C23.232 9.55848 23.8905 10.2048 23.9119 10.9981C23.9233 11.4319 23.9333 11.8672 23.9076 12.2995C23.8905 12.6081 24.0048 12.6882 24.2861 12.6721C24.6632 12.6518 25.0417 12.6605 25.4202 12.6692C26.3101 12.6896 26.9343 13.2762 26.9471 14.1001C26.9614 14.9561 26.3515 15.582 25.4388 15.5951C24.1005 15.6155 22.7607 15.5951 21.4209 15.6097C20.7367 15.6169 20.2597 15.9823 19.9983 16.617C19.744 17.2371 19.8626 17.8165 20.2825 18.323C20.6339 18.7466 21.1124 18.8791 21.638 18.8835C22.3622 18.8893 23.0892 18.8718 23.8119 18.9082C26.0016 19.0203 27.8113 20.8515 27.967 23.0903C28.1241 25.3408 26.6072 27.4326 24.4675 27.8605C24.0376 27.9464 23.8419 28.0789 23.9033 28.5549C23.9505 28.9173 23.9205 29.2929 23.9105 29.6626C23.8876 30.4763 23.2706 31.0761 22.475 31.0673C21.7066 31.0586 21.1024 30.4574 21.0824 29.667C21.071 29.2012 21.0695 28.7354 21.0838 28.2696C21.091 28.0352 21.0067 27.9639 20.7839 27.9697C20.3425 27.9828 19.9011 27.9799 19.4598 27.9712C18.6485 27.9566 18.0515 27.3496 18.0443 26.5446C18.0372 25.7149 18.6399 25.0962 19.4741 25.086C20.1397 25.0773 20.801 25.0831 21.4623 25.0831Z" stroke="#383838" stroke-width="2"/>
</svg>
