<svg width="65" height="65" viewBox="0 0 65 65" fill="none" xmlns="http://www.w3.org/2000/svg">
<path d="M35.416 1C36.297 1.12051 37.1902 1.20486 38.0589 1.36152C49.0834 3.24145 57.0366 9.17043 61.8208 19.1003C64.0845 23.776 64.9165 28.7891 64.5494 33.983C64.1457 39.6589 62.3225 44.8407 59.0189 49.5044C58.7497 49.878 58.7007 50.119 58.9944 50.5408C60.0711 52.0833 59.9732 54.2886 58.8231 55.7347C57.5016 57.3977 55.4949 57.9761 53.476 57.2892C51.7018 56.6867 50.4416 54.879 50.466 52.9509C50.4905 51.0107 51.7753 49.2634 53.6351 48.6729C54.4916 48.3957 55.3481 48.3234 56.2169 48.5765C56.535 48.6608 56.6818 48.5765 56.8653 48.3234C59.6673 44.3949 61.4171 40.0445 61.9554 35.2724C62.8854 27.1622 60.7441 19.9197 55.4827 13.6533C50.723 7.98945 44.5439 4.63934 37.1412 3.68732C21.614 1.67484 7.71412 11.9421 5.02224 26.4874C3.11346 36.7547 6.1357 45.612 13.881 52.8063C17.9065 56.542 22.7275 58.8196 28.1724 59.8078C28.3926 59.844 28.6129 59.8922 28.8209 59.9645C29.4939 60.1934 29.8242 60.7839 29.6529 61.4347C29.4939 62.0131 28.8698 62.4108 28.2336 62.3023C22.1524 61.2419 16.7809 58.7353 12.2047 54.6019C7.604 50.4444 4.52058 45.3951 2.96663 39.454C2.53838 37.8031 2.23248 36.128 2.12236 34.4168C2.11012 34.2361 2.13459 34.0553 2 33.8986C2 32.5369 2 31.1631 2 29.8014C2.12236 29.6447 2.11012 29.4639 2.11012 29.2832C2.1713 28.1745 2.3426 27.0899 2.55061 26.0054C3.90879 19.3172 7.1268 13.6533 12.2291 9.06197C16.6952 5.03701 21.9199 2.4943 27.891 1.48203C29.0044 1.28922 30.1301 1.15666 31.2558 1C32.6385 1 34.0333 1 35.416 1ZM55.0545 55.1201C56.2658 55.1442 57.2691 54.2283 57.3058 53.0473C57.3425 51.8663 56.3514 50.842 55.1401 50.83C53.941 50.8179 52.9499 51.7579 52.9132 52.9389C52.8887 54.0957 53.8553 55.096 55.0545 55.1201Z" fill="#383838"/>
<path d="M32.9688 62.7C32.614 62.471 32.2469 62.2541 32.1368 61.8082C31.99 61.2057 32.2959 60.6152 32.8709 60.3862C33.446 60.1573 34.0945 60.3863 34.4004 60.9044C34.7063 61.4347 34.5717 62.0613 34.0578 62.459C33.9477 62.5433 33.8253 62.6156 33.7152 62.7C33.4583 62.7 33.2135 62.7 32.9688 62.7Z" fill="#383838"/>
<path d="M33.3481 55.5057C23.8042 55.4816 15.2024 49.7454 11.703 41.1412C9.91657 36.7547 9.50055 32.2477 10.5039 27.6322C10.5773 27.3069 10.5284 27.1381 10.2469 26.9333C8.79087 25.8728 8.19132 24.1857 8.64404 22.583C9.09677 20.9802 10.5406 19.7149 12.0945 19.5703C14.0278 19.3895 15.5817 20.221 16.4138 21.8599C17.5884 24.1737 16.0956 27.1622 13.5017 27.6081C13.0734 27.6804 12.9388 27.8491 12.8654 28.2468C11.6296 34.453 12.951 40.0927 16.8298 45.1059C19.8643 49.0344 23.9021 51.5771 28.8086 52.5653C36.6885 54.1439 43.4671 51.9989 48.8998 46.1663C52.5461 42.2498 54.3692 37.5018 54.1979 32.1995C53.9532 24.6316 50.5272 18.7749 43.9321 14.7861C42.109 13.6895 40.1512 12.9303 38.0712 12.4482C37.9488 12.4241 37.8387 12.388 37.7163 12.3398C37.0189 12.0867 36.6763 11.5203 36.8353 10.8937C37.0066 10.2309 37.594 9.85732 38.3403 10.026C40.3837 10.4599 42.3292 11.1468 44.1646 12.1229C48.08 14.1836 51.2124 17.0757 53.4638 20.8597C54.9933 23.4265 56.0211 26.1982 56.4004 29.1506C57.4894 37.5018 54.7853 44.5154 48.3859 50.0587C44.8131 53.1558 40.5306 54.8549 35.7831 55.3852C34.9633 55.4575 34.119 55.4334 33.3481 55.5057ZM12.6574 21.9443C11.7152 21.9443 10.9444 22.7276 10.9566 23.6314C10.9811 24.5352 11.7275 25.2582 12.6452 25.2703C13.5995 25.2823 14.3582 24.5352 14.3704 23.6073C14.3704 22.6794 13.6118 21.9443 12.6574 21.9443Z" fill="#383838"/>
<path d="M32.1123 44.2262C32.1123 43.6357 32.1123 43.1416 32.1123 42.6475C32.1123 39.454 32.1001 36.2606 32.1123 33.0671C32.1123 32.7418 32.0389 32.5248 31.7208 32.3441C28.3682 30.5244 25.0155 28.6927 21.6752 26.873C21.5895 26.8248 21.5039 26.8007 21.406 26.7646C21.2714 26.9815 21.3326 27.1863 21.3326 27.3792C21.3326 30.8377 21.3326 34.2843 21.3203 37.7428C21.3203 38.2008 21.4182 38.49 21.8709 38.6828C22.238 38.8395 22.5929 39.0443 22.9232 39.2733C23.4738 39.6589 23.6207 40.3337 23.3148 40.864C22.9966 41.4063 22.3481 41.6352 21.7241 41.334C20.941 40.9604 20.1824 40.5145 19.4238 40.0807C18.9466 39.8035 18.8487 39.3335 18.8609 38.8274C18.8609 37.1041 18.8609 35.3688 18.8609 33.6456C18.8609 30.7895 18.8732 27.9455 18.8365 25.0895C18.8242 24.246 19.1179 23.7157 19.8765 23.306C24.0367 21.0646 28.1969 18.799 32.3326 16.5214C33.03 16.1358 33.6173 16.1358 34.327 16.5214C38.4627 18.8111 42.6106 21.0766 46.783 23.318C47.5172 23.7157 47.8231 24.2219 47.8231 25.0413C47.7986 29.5845 47.8109 34.1155 47.8231 38.6587C47.8231 39.454 47.5417 39.9602 46.8198 40.3458C42.6229 42.5993 38.4382 44.8889 34.2536 47.1906C33.5928 47.5522 33.0178 47.5642 32.3693 47.1786C31.5372 46.6845 30.6563 46.2507 29.812 45.7807C29.0289 45.3469 28.7597 44.672 29.1023 44.0333C29.4571 43.3705 30.1668 43.2259 31.0111 43.6598C31.3659 43.8405 31.6963 44.0092 32.1123 44.2262ZM34.5595 44.2141C34.7185 44.1418 34.8164 44.1177 34.9021 44.0695C38.2669 42.2378 41.6318 40.394 44.9966 38.5743C45.3392 38.3936 45.3515 38.1405 45.3515 37.8272C45.3515 34.3325 45.3515 30.8377 45.3515 27.3551C45.3515 26.6923 45.3515 26.6923 44.7641 27.0056C41.5216 28.7771 38.2914 30.5485 35.0367 32.2959C34.6451 32.5007 34.5595 32.7538 34.5595 33.1515C34.5717 36.6221 34.5717 40.0927 34.5717 43.5634C34.5595 43.7562 34.5595 43.949 34.5595 44.2141ZM22.6907 24.5834C22.8009 24.6798 22.8253 24.728 22.8743 24.7521C26.2514 26.5959 29.6407 28.4396 33.0055 30.2955C33.287 30.4521 33.495 30.3678 33.7397 30.2352C37.0066 28.4396 40.2858 26.6561 43.5528 24.8726C43.6874 24.8003 43.8709 24.7762 43.8954 24.5593C43.7241 24.4629 43.5528 24.3544 43.3815 24.258C40.5917 22.7396 37.753 21.2815 35.0244 19.6546C33.7886 18.9195 32.8832 18.9075 31.6474 19.6426C28.7475 21.3779 25.7252 22.9204 22.6907 24.5834Z" fill="#383838"/>
<path d="M33.3481 11.8578C32.6385 11.8698 32.1001 11.3516 32.1123 10.6647C32.1123 10.0381 32.6752 9.4717 33.3114 9.45965C33.9599 9.4476 34.5595 10.026 34.5595 10.6768C34.5472 11.3275 34.0211 11.8457 33.3481 11.8578Z" fill="#383838"/>
<path d="M27.634 42.539C27.634 43.1657 27.0589 43.7321 26.4227 43.7441C25.7619 43.7562 25.1746 43.1536 25.1991 42.4908C25.2236 41.8401 25.7619 41.334 26.4349 41.346C27.1079 41.3581 27.6462 41.9004 27.634 42.539Z" fill="#383838"/>
</svg>
