<svg width="24" height="26" viewBox="0 0 24 26" fill="none" xmlns="http://www.w3.org/2000/svg">
<path fill-rule="evenodd" clip-rule="evenodd" d="M11.2834 0.411771C11.7047 0.0840971 12.2946 0.0840971 12.7159 0.411771L23.2159 8.57844C23.5001 8.79947 23.6663 9.13933 23.6663 9.49935V22.3327C23.6663 23.2609 23.2976 24.1512 22.6412 24.8076C21.9848 25.4639 21.0946 25.8327 20.1663 25.8327H3.83301C2.90475 25.8327 2.01451 25.4639 1.35813 24.8076C0.701757 24.1512 0.333008 23.2609 0.333008 22.3327V9.49935C0.333008 9.13933 0.499226 8.79947 0.78341 8.57844L11.2834 0.411771ZM2.66634 10.0699V22.3327C2.66634 22.6421 2.78926 22.9388 3.00805 23.1576C3.22684 23.3764 3.52359 23.4993 3.83301 23.4993H20.1663C20.4758 23.4993 20.7725 23.3764 20.9913 23.1576C21.2101 22.9388 21.333 22.6421 21.333 22.3327V10.0699L11.9997 2.81069L2.66634 10.0699Z" fill="white"/>
<path fill-rule="evenodd" clip-rule="evenodd" d="M7.33301 12.9993C7.33301 12.355 7.85534 11.8327 8.49967 11.8327H15.4997C16.144 11.8327 16.6663 12.355 16.6663 12.9993V24.666C16.6663 25.3103 16.144 25.8327 15.4997 25.8327C14.8553 25.8327 14.333 25.3103 14.333 24.666V14.166H9.66634V24.666C9.66634 25.3103 9.14401 25.8327 8.49967 25.8327C7.85534 25.8327 7.33301 25.3103 7.33301 24.666V12.9993Z" fill="white"/>
</svg>
