<svg width="111" height="35" viewBox="0 0 111 35" fill="none" xmlns="http://www.w3.org/2000/svg">
<path d="M33.7064 13.303H22.9959C23.5186 14.6634 24.8766 15.3405 26.1963 15.3655C26.9231 15.3655 27.6116 15.1837 28.1854 14.8013C28.587 14.538 29.0397 14.3562 29.5178 14.3562H33.4259C32.2656 17.6161 29.1226 19.2147 25.9731 19.1645C22.1926 19.083 18.4375 16.588 18.4375 11.6167C18.4375 6.57018 22.3328 4.06886 26.2218 4.09394C30.0597 4.11901 33.8722 6.62033 33.8722 11.6167C33.8722 12.2185 33.8148 12.7576 33.7064 13.303ZM29.1226 9.96168C28.7082 8.49475 27.4905 7.8177 26.0879 7.8177C24.7873 7.8177 23.6015 8.52609 23.1616 9.96168H29.1226Z" fill="currentColor"/>
<path d="M42.0135 3.96191C45.214 3.96191 48.0064 5.56677 48.0319 8.98335H45.0928C44.4999 8.98335 43.9899 8.67617 43.5946 8.24361C43.193 7.80478 42.4152 7.7609 41.7649 7.7609C41.1274 7.7609 40.2476 7.98032 40.2476 8.76394C40.2476 9.52248 41.4079 9.55382 42.039 9.5789C45.1566 9.6604 48.3315 10.9643 48.3315 14.4373C48.3315 18.1298 45.265 19.3773 41.9562 19.3773C38.3924 19.3773 35.6892 17.8038 35.6318 14.0549H38.6537C39.304 14.0549 39.8778 14.3809 40.3241 14.8511C40.7194 15.2586 41.4015 15.4404 42.0645 15.4404C43.1994 15.4655 43.9708 15.058 43.9708 14.5439C43.9708 13.4845 42.3132 13.6224 41.5991 13.566C38.7813 13.3215 35.855 12.262 35.855 9.0335C35.855 5.48527 38.6729 3.96191 42.0135 3.96191Z" fill="currentColor"/>
<path d="M49.8486 11.6728C49.8486 1.19107 65.7806 1.22241 65.7806 11.6728C65.7806 22.1231 49.8486 22.073 49.8486 11.6728ZM61.4199 11.6728C61.4199 6.67641 54.2157 6.70775 54.2157 11.6728C54.2157 16.5876 61.4199 16.6127 61.4199 11.6728Z" fill="currentColor"/>
<path d="M72.0157 4.31959V5.78653C73.0676 4.48258 74.8336 4.10645 76.4338 4.10645C80.6861 4.16287 81.8464 7.25346 81.8145 10.9208V19.0078H77.3964V10.9396C77.3964 8.95862 76.2616 8.06216 75.0758 8.06216C73.7752 8.06216 72.2324 9.14669 72.2324 11.0211V19.0015H67.623V6.60776C67.623 5.34143 68.6686 4.31332 69.9564 4.31332H72.0157V4.31959Z" fill="currentColor"/>
<path d="M90.7339 19.2455C87.3932 19.2705 85.3786 17.7535 85.3786 13.9231V8.14315H83.4214V4.48207H85.3786V3.77995C85.3786 2.59512 86.303 1.60462 87.5016 1.49805L89.7138 1.30371V4.48207H92.8314V8.14941H89.7138V13.9294C89.7138 15.2333 90.6829 15.6408 91.7284 15.6408C92.1428 15.6408 92.5827 15.5844 92.9716 15.5029L93.1119 19.0323C92.2512 19.164 91.4479 19.2455 90.7339 19.2455Z" fill="currentColor"/>
<path d="M94.0742 11.6728C94.0742 1.19107 110.006 1.22241 110.006 11.6728C110.006 22.1231 94.0742 22.073 94.0742 11.6728ZM105.639 11.6728C105.639 6.67641 98.4349 6.70775 98.4349 11.6728C98.4349 16.5876 105.639 16.6127 105.639 11.6728Z" fill="currentColor"/>
<path d="M2.05037 28.7504C2.51548 28.1216 3.19654 27.9746 3.86098 27.9746C5.6882 27.9746 6.62673 29.2568 6.62673 30.686C6.62673 32.1479 5.72143 33.4465 3.83606 33.4465C3.17162 33.4383 2.43242 33.2178 2.04206 32.6461V33.3648H1.07031V26.5127H2.05037V28.7504ZM3.80284 32.5971C5.04037 32.6298 5.66329 31.6579 5.65498 30.686C5.64668 29.755 5.05698 28.8321 3.8859 28.8158C2.97229 28.8076 2.05037 29.4365 2.05037 30.7024C2.05037 31.9519 2.91415 32.5808 3.80284 32.5971Z" fill="currentColor"/>
<path d="M10.2978 30.3437L11.228 27.9834H12.2662L9.43399 34.9988H8.39579L9.1516 33.0878L7.05029 27.9834H8.08849L9.06024 30.3355L9.66654 32.0669L10.2978 30.3437Z" fill="currentColor"/>
<path d="M16.8009 33.3648H15.7959V26.5127H16.6098L18.9105 29.8448L21.2111 26.5127H22.0085V33.3648H21.0118V28.5381L19.1846 31.2005H18.6198L16.8009 28.5381V33.3648Z" fill="currentColor"/>
<path d="M29.2011 28.0644V33.3648H28.2293V32.6461C27.839 33.226 26.9752 33.4383 26.3024 33.4465C24.4171 33.4465 23.4038 32.1479 23.4038 30.686C23.4038 29.2568 24.4586 27.9746 26.2858 27.9746C26.9503 27.9746 27.7559 28.1298 28.2376 28.7668L28.2293 28.0644H29.2011ZM26.2692 28.8158C25.0898 28.8321 24.3839 29.6488 24.3839 30.686C24.3839 31.7069 25.1148 32.6298 26.344 32.5971C27.2327 32.5808 28.2293 31.9519 28.2293 30.7105C28.2293 29.4365 27.1828 28.8076 26.2692 28.8158Z" fill="currentColor"/>
<path d="M31.5684 28.0725V28.7177C32.0834 27.999 32.8724 27.8357 33.7279 28.0317V28.8729C32.6232 28.5462 31.5684 29.3466 31.5684 30.4899V33.3565H30.605V28.0643H31.5684V28.0725Z" fill="currentColor"/>
<path d="M36.0616 26.8887V28.0647H37.2493V28.8324H36.0616V31.8215C36.0616 32.6137 36.5599 32.6464 37.2742 32.5729V33.3733C35.9702 33.4713 35.0815 33.2099 35.0815 31.8052V28.8324H34.2842V28.0647H35.0898V27.0765L36.0616 26.8887Z" fill="currentColor"/>
<path d="M43.8193 28.0644V33.3648H42.8392V32.6461C42.4488 33.226 41.5851 33.4383 40.9123 33.4465C39.027 33.4465 38.0137 32.1479 38.0137 30.686C38.0137 29.2568 39.0685 27.9746 40.8957 27.9746C41.5601 27.9746 42.3658 28.1298 42.8475 28.7668L42.8392 28.0644H43.8193ZM40.8791 28.8158C39.6997 28.8321 38.9937 29.6488 38.9937 30.686C38.9937 31.7069 39.7246 32.6298 40.9538 32.5971C41.8425 32.5808 42.8392 31.9519 42.8392 30.7105C42.8392 29.4365 41.7927 28.8076 40.8791 28.8158Z" fill="currentColor"/>
<path d="M46.1944 33.3648H45.2144V26.5127H46.1944V33.3648Z" fill="currentColor"/>
<path d="M55.6293 28.9139C55.3386 27.7868 54.2423 27.403 53.337 27.403C51.9416 27.403 50.8702 28.4729 50.8702 29.9429C50.8702 31.4211 51.9416 32.5073 53.337 32.5073C54.2091 32.5073 55.1476 32.0337 55.5712 31.0209H52.9383V30.0082H56.7755C56.7256 30.5963 56.6758 30.9883 56.5761 31.2251V31.217C56.0861 32.5482 54.6326 33.4792 53.337 33.4792C51.3436 33.4792 49.8403 32.001 49.8403 29.9429C49.8403 27.8767 51.3769 26.3984 53.337 26.3984C54.6991 26.3984 56.3436 27.0518 56.7256 28.9139H55.6293Z" fill="currentColor"/>
<path d="M59.0181 28.0725V28.7177C59.5331 27.999 60.3221 27.8357 61.1776 28.0317V28.8729C60.0729 28.5462 59.0181 29.3466 59.0181 30.4899V33.3565H58.0547V28.0643H59.0181V28.0725Z" fill="currentColor"/>
<path d="M64.591 33.4628C63.1458 33.4628 61.7007 32.5399 61.7007 30.7187C61.7007 28.8893 63.1542 27.9746 64.6159 27.9746C66.0694 27.9746 67.5063 28.8975 67.5063 30.7187C67.5063 32.5481 66.0528 33.4628 64.591 33.4628ZM64.591 32.5971C65.5711 32.6053 66.5428 31.9683 66.5428 30.7187C66.5428 29.4692 65.5794 28.8321 64.6242 28.8321C63.6442 28.8321 62.6807 29.461 62.6807 30.7187C62.6724 31.9601 63.6276 32.589 64.591 32.5971Z" fill="currentColor"/>
<path d="M72.8222 33.365V32.6708C72.4235 33.2507 71.8172 33.4467 71.1195 33.4467C69.4833 33.4467 68.7773 32.434 68.7773 30.9231V28.0156H69.7574V30.9149C69.7574 31.8949 70.0066 32.5728 71.1527 32.5891C72.2075 32.6055 72.7806 31.8868 72.7806 30.9476V28.0156H73.7524V33.365H72.8222Z" fill="currentColor"/>
<path d="M76.2271 34.9084H75.2554V28.0645H76.2271V28.7668C76.6175 28.1952 77.3567 27.9746 78.0294 27.9746C79.9148 27.9665 80.8201 29.265 80.8201 30.7269C80.8201 32.1643 79.865 33.4465 78.0377 33.4465C77.3733 33.4465 76.7005 33.2914 76.2271 32.6625V34.9084ZM78.0626 32.5972C79.242 32.5808 79.8483 31.658 79.8483 30.7269C79.8567 29.7551 79.2337 28.7832 77.9962 28.8158C77.1075 28.8322 76.2354 29.4692 76.2354 30.7024C76.2271 31.9846 77.149 32.6053 78.0626 32.5972Z" fill="currentColor"/>
<path d="M7.6759 0H0V10.3814L2.77327 9.64166C3.90808 9.34075 4.69225 8.33145 4.69225 7.17796V4.40081H7.6759C10.9337 4.40081 12.5913 7.03377 12.5913 9.52882C12.5913 12.0239 10.9337 14.5753 7.6759 14.5753H4.69225V11.9737L1.91898 12.7134C0.784166 13.0206 0 14.0299 0 15.1834V19.0012H7.6759C14.0512 19.0012 17.258 14.2744 17.258 9.52882C17.258 4.78322 14.0512 0 7.6759 0Z" fill="currentColor"/>
</svg>
