<svg width="25" height="23" viewBox="0 0 25 23" fill="none" xmlns="http://www.w3.org/2000/svg">
<path fill-rule="evenodd" clip-rule="evenodd" d="M8.94458 2.55544C10.354 2.55544 11.5001 3.7016 11.5001 5.11097C11.5001 6.52034 10.354 7.6665 8.94458 7.6665C7.53521 7.6665 6.38905 6.52034 6.38905 5.11097C6.38905 3.7016 7.53521 2.55544 8.94458 2.55544ZM8.94473 10.2221C11.7635 10.2221 14.0558 7.9298 14.0558 5.11106C14.0558 2.29231 11.7635 0 8.94473 0C6.12599 0 3.83368 2.29231 3.83368 5.11106C3.83368 7.9298 6.12599 10.2221 8.94473 10.2221ZM8.94435 12.7777C4.01346 12.7777 0 16.7899 0 21.7221C0 22.4274 0.571161 22.9998 1.27776 22.9998C1.98437 22.9998 2.55553 22.4274 2.55553 21.7221C2.55553 18.1993 5.42155 15.3332 8.94435 15.3332C12.4671 15.3332 15.3332 18.1993 15.3332 21.7221C15.3332 22.4274 15.9043 22.9998 16.6109 22.9998C17.3175 22.9998 17.8887 22.4274 17.8887 21.7221C17.8887 16.7899 13.8752 12.7777 8.94435 12.7777ZM21.722 3.83379H22.9997C23.7025 3.83379 24.2775 4.40878 24.2775 5.11155C24.2775 5.81432 23.7025 6.38932 22.9997 6.38932H21.722V7.66708C21.722 8.36985 21.147 8.94484 20.4442 8.94484C19.7414 8.94484 19.1664 8.36985 19.1664 7.66708V6.38932H17.8887C17.1859 6.38932 16.6109 5.81432 16.6109 5.11155C16.6109 4.40878 17.1859 3.83379 17.8887 3.83379H19.1664V2.55602C19.1664 1.85325 19.7414 1.27826 20.4442 1.27826C21.147 1.27826 21.722 1.85325 21.722 2.55602V3.83379Z" fill="white"/>
</svg>
