<svg width="184" height="22" viewBox="0 0 184 22" fill="none" xmlns="http://www.w3.org/2000/svg">
<path d="M159.162 4.39057C159.611 3.00861 161.567 3.00861 162.016 4.39058L162.695 6.48139C162.896 7.09943 163.472 7.51787 164.121 7.51787L166.32 7.51787C167.773 7.51787 168.377 9.37729 167.202 10.2314L165.423 11.5236C164.897 11.9056 164.677 12.5826 164.878 13.2006L165.557 15.2915C166.006 16.6734 164.425 17.8226 163.249 16.9685L161.471 15.6763C160.945 15.2943 160.233 15.2943 159.707 15.6763L157.929 16.9685C156.753 17.8226 155.171 16.6734 155.62 15.2915L156.3 13.2006C156.501 12.5826 156.281 11.9056 155.755 11.5236L153.976 10.2314C152.801 9.37729 153.405 7.51787 154.858 7.51787L157.056 7.51787C157.706 7.51787 158.282 7.09943 158.483 6.48139L159.162 4.39057Z" fill="#BDBDBD"/>
<path d="M125.103 4.39057C125.552 3.00861 127.507 3.00861 127.956 4.39058L128.636 6.48139C128.837 7.09943 129.413 7.51787 130.062 7.51787L132.261 7.51787C133.714 7.51787 134.318 9.37729 133.142 10.2314L131.364 11.5236C130.838 11.9056 130.618 12.5826 130.819 13.2006L131.498 15.2915C131.947 16.6734 130.366 17.8226 129.19 16.9685L127.412 15.6763C126.886 15.2943 126.174 15.2943 125.648 15.6763L123.87 16.9685C122.694 17.8226 121.112 16.6734 121.561 15.2915L122.241 13.2006C122.442 12.5826 122.222 11.9056 121.696 11.5236L119.917 10.2314C118.742 9.37729 119.346 7.51787 120.799 7.51787L122.997 7.51787C123.647 7.51787 124.223 7.09943 124.424 6.48139L125.103 4.39057Z" fill="#BDBDBD"/>
<path d="M91.0442 4.39057C91.4932 3.00861 93.4483 3.00861 93.8974 4.39058L94.5767 6.48139C94.7775 7.09943 95.3535 7.51787 96.0033 7.51787L98.2017 7.51787C99.6548 7.51787 100.259 9.37729 99.0834 10.2314L97.3048 11.5236C96.7791 11.9056 96.5591 12.5826 96.7599 13.2006L97.4393 15.2915C97.8883 16.6734 96.3066 17.8226 95.131 16.9685L93.3525 15.6763C92.8267 15.2943 92.1148 15.2943 91.5891 15.6763L89.8105 16.9685C88.635 17.8226 87.0533 16.6734 87.5023 15.2915L88.1816 13.2006C88.3824 12.5826 88.1625 11.9056 87.6367 11.5236L85.8582 10.2314C84.6826 9.37729 85.2868 7.51787 86.7398 7.51787L88.9383 7.51787C89.5881 7.51787 90.164 7.09943 90.3648 6.48139L91.0442 4.39057Z" fill="#BDBDBD"/>
<path d="M56.5125 4.39057C56.9615 3.00861 58.9166 3.00861 59.3656 4.39058L60.045 6.48139C60.2458 7.09943 60.8217 7.51787 61.4716 7.51787L63.67 7.51787C65.1231 7.51787 65.7272 9.37729 64.5516 10.2314L62.7731 11.5236C62.2474 11.9056 62.0274 12.5826 62.2282 13.2006L62.9075 15.2915C63.3566 16.6734 61.7748 17.8226 60.5993 16.9685L58.8207 15.6763C58.295 15.2943 57.5831 15.2943 57.0574 15.6763L55.2788 16.9685C54.1032 17.8226 52.5215 16.6734 52.9705 15.2915L53.6499 13.2006C53.8507 12.5826 53.6307 11.9056 53.105 11.5236L51.3264 10.2314C50.1509 9.37729 50.755 7.51787 52.2081 7.51787L54.4065 7.51787C55.0564 7.51787 55.6323 7.09943 55.8331 6.48139L56.5125 4.39057Z" fill="#BDBDBD"/>
<path d="M22.4534 4.39057C22.9024 3.00861 24.8575 3.00861 25.3065 4.39058L25.9859 6.48139C26.1867 7.09943 26.7626 7.51787 27.4125 7.51787L29.6109 7.51787C31.064 7.51787 31.6681 9.37729 30.4926 10.2314L28.714 11.5236C28.1883 11.9056 27.9683 12.5826 28.1691 13.2006L28.8485 15.2915C29.2975 16.6734 27.7158 17.8226 26.5402 16.9685L24.7616 15.6763C24.2359 15.2943 23.524 15.2943 22.9983 15.6763L21.2197 16.9685C20.0442 17.8226 18.4624 16.6734 18.9115 15.2915L19.5908 13.2006C19.7916 12.5826 19.5716 11.9056 19.0459 11.5236L17.2674 10.2314C16.0918 9.37729 16.6959 7.51787 18.149 7.51787L20.3474 7.51787C20.9973 7.51787 21.5732 7.09943 21.774 6.48139L22.4534 4.39057Z" fill="#BDBDBD"/>
</svg>
