<svg width="361" height="46" fill="none" xmlns="http://www.w3.org/2000/svg">
<path d="M323.573 4.39058C324.022 3.00861 325.978 3.00861 326.427 4.39058L329.827 14.8561C330.028 15.4742 330.604 15.8926 331.254 15.8926H342.258C343.711 15.8926 344.315 17.752 343.139 18.6061L334.237 25.0742C333.711 25.4562 333.491 26.1332 333.692 26.7513L337.092 37.2168C337.542 38.5988 335.96 39.748 334.784 38.8939L325.882 32.4258C325.356 32.0438 324.644 32.0438 324.118 32.4258L315.216 38.8939C314.04 39.748 312.458 38.5988 312.908 37.2168L316.308 26.7513C316.509 26.1332 316.289 25.4562 315.763 25.0742L306.861 18.6061C305.685 17.752 306.289 15.8926 307.742 15.8926H318.746C319.396 15.8926 319.972 15.4742 320.173 14.8561L323.573 4.39058Z" fill="#EB5757"/>
<path d="M251.573 4.39058C252.022 3.00861 253.978 3.00861 254.427 4.39058L257.827 14.8561C258.028 15.4742 258.604 15.8926 259.254 15.8926H270.258C271.711 15.8926 272.315 17.752 271.139 18.6061L262.237 25.0742C261.711 25.4562 261.491 26.1332 261.692 26.7513L265.092 37.2168C265.542 38.5988 263.96 39.748 262.784 38.8939L253.882 32.4258C253.356 32.0438 252.644 32.0438 252.118 32.4258L243.216 38.8939C242.04 39.748 240.458 38.5988 240.908 37.2168L244.308 26.7513C244.509 26.1332 244.289 25.4562 243.763 25.0742L234.861 18.6061C233.685 17.752 234.289 15.8926 235.742 15.8926H246.746C247.396 15.8926 247.972 15.4742 248.173 14.8561L251.573 4.39058Z" fill="#EB5757"/>
<path d="M179.573 4.39058C180.022 3.00861 181.978 3.00861 182.427 4.39058L185.827 14.8561C186.028 15.4742 186.604 15.8926 187.254 15.8926H198.258C199.711 15.8926 200.315 17.752 199.139 18.6061L190.237 25.0742C189.711 25.4562 189.491 26.1332 189.692 26.7513L193.092 37.2168C193.542 38.5988 191.96 39.748 190.784 38.8939L181.882 32.4258C181.356 32.0438 180.644 32.0438 180.118 32.4258L171.216 38.8939C170.04 39.748 168.458 38.5988 168.908 37.2168L172.308 26.7513C172.509 26.1332 172.289 25.4562 171.763 25.0742L162.861 18.6061C161.685 17.752 162.289 15.8926 163.742 15.8926H174.746C175.396 15.8926 175.972 15.4742 176.173 14.8561L179.573 4.39058Z" fill="#EB5757"/>
<path d="M106.573 4.39058C107.022 3.00861 108.978 3.00861 109.427 4.39058L112.827 14.8561C113.028 15.4742 113.604 15.8926 114.254 15.8926H125.258C126.711 15.8926 127.315 17.752 126.139 18.6061L117.237 25.0742C116.711 25.4562 116.491 26.1332 116.692 26.7513L120.092 37.2168C120.542 38.5988 118.96 39.748 117.784 38.8939L108.882 32.4258C108.356 32.0438 107.644 32.0438 107.118 32.4258L98.2158 38.8939C97.0402 39.748 95.4585 38.5988 95.9075 37.2168L99.308 26.7513C99.5088 26.1332 99.2888 25.4562 98.7631 25.0742L89.8605 18.6061C88.685 17.752 89.2891 15.8926 90.7422 15.8926H101.746C102.396 15.8926 102.972 15.4742 103.173 14.8561L106.573 4.39058Z" fill="#EB5757"/>
<path d="M34.5734 4.39058C35.0224 3.00861 36.9776 3.00861 37.4266 4.39058L40.8271 14.8561C41.0279 15.4742 41.6038 15.8926 42.2536 15.8926H53.2578C54.7109 15.8926 55.315 17.752 54.1395 18.6061L45.2369 25.0742C44.7112 25.4562 44.4912 26.1332 44.692 26.7513L48.0925 37.2168C48.5415 38.5988 46.9598 39.748 45.7842 38.8939L36.8817 32.4258C36.3559 32.0438 35.6441 32.0438 35.1183 32.4258L26.2158 38.8939C25.0402 39.748 23.4585 38.5988 23.9075 37.2168L27.308 26.7513C27.5088 26.1332 27.2888 25.4562 26.7631 25.0742L17.8605 18.6061C16.685 17.752 17.2891 15.8926 18.7422 15.8926H29.7464C30.3962 15.8926 30.9721 15.4742 31.1729 14.8561L34.5734 4.39058Z" fill="#EB5757"/>
</svg>
