<svg width="90" height="90" viewBox="0 0 90 90" fill="none" xmlns="http://www.w3.org/2000/svg">
<path d="M88.7869 27.705C88.7869 39.5695 88.7869 51.4341 88.7869 63.2974C88.6279 64.0409 88.5211 64.7987 88.3016 65.523C87.4817 68.2196 84.7562 71.0202 80.36 70.9999C64.9207 70.9294 49.4802 70.9736 34.0408 70.9724C29.4442 70.9724 24.8463 71.0059 20.2496 70.9449C16.6057 70.8971 13.6085 68.2973 12.8503 64.6971C12.5573 63.3046 12.7257 61.9013 12.6996 60.5028C12.6735 59.1425 13.4436 58.2604 14.5969 58.2293C15.7692 58.1971 16.5939 59.1103 16.6271 60.5088C16.6485 61.4327 16.6247 62.3579 16.6497 63.283C16.6568 63.5496 16.5429 63.9345 16.8478 64.054C17.1432 64.17 17.3355 63.8197 17.5407 63.6428C24.2352 57.8803 30.9285 52.1166 37.61 46.3373C38.723 45.3751 38.7277 45.6321 37.6076 44.6627C30.9262 38.8846 24.2329 33.1197 17.5384 27.3572C17.3343 27.1815 17.1433 26.83 16.8454 26.9496C16.5429 27.0715 16.6568 27.4552 16.6497 27.7229C16.62 28.7748 16.6758 29.8302 16.5998 30.8773C16.5191 31.9818 15.6874 32.7492 14.6895 32.7767C13.7604 32.8029 12.7708 32.0917 12.74 31.163C12.6806 29.3557 12.4837 27.5281 12.9749 25.7423C13.7889 22.7804 16.6734 19.9798 21.0138 20.0001C36.5172 20.0754 52.0206 20.0288 67.524 20.03C72.0578 20.03 76.5916 19.9989 81.1242 20.0563C84.5924 20.1005 87.5196 22.478 88.4048 25.8451C88.5626 26.4571 88.6599 27.0846 88.7869 27.705ZM81.6225 24.0474C60.9197 24.0474 40.4541 24.0474 19.972 24.0474C20.0183 24.3797 20.2389 24.4813 20.3991 24.6187C29.9793 32.8687 39.5618 41.1162 49.1491 49.359C50.2135 50.2734 51.1105 50.2627 52.2104 49.3662C52.4074 49.206 52.5996 49.0387 52.7918 48.8725C60.5934 42.1585 68.3949 35.4446 76.1953 28.7294C77.9466 27.2233 79.6944 25.7112 81.6225 24.0474ZM19.7489 66.9538C40.4541 66.9538 60.9197 66.9538 81.5288 66.9538C81.3354 66.7422 81.2618 66.643 81.1704 66.5641C74.1959 60.5422 67.2178 54.5239 60.2516 48.4924C59.8541 48.1482 59.6073 48.1649 59.2241 48.5104C57.665 49.9136 56.0904 51.299 54.4945 52.6592C52.1487 54.6602 49.2096 54.653 46.8721 52.6521C45.3522 51.3504 43.8287 50.0487 42.3609 48.6873C41.7985 48.1661 41.4627 48.184 40.8908 48.6825C35.2808 53.5617 29.6435 58.4098 24.0133 63.2663C22.6512 64.4425 21.289 65.621 19.7489 66.9538ZM84.5177 64.2297C84.9555 62.7607 84.8665 27.754 84.45 26.8707C84.3717 26.9233 84.2887 26.9687 84.2187 27.0285C77.2631 33.0229 70.3135 39.0245 63.3402 44.9986C62.7576 45.4982 63.0032 45.699 63.4185 46.0564C66.8441 48.9933 70.2566 51.9444 73.6738 54.8897C77.2584 57.9795 80.8429 61.0658 84.5177 64.2297Z" fill="#2F80ED"/>
<path d="M11.6982 52.3807C8.94069 52.3807 6.18434 52.3831 3.42681 52.3795C1.91871 52.3771 1.0205 51.6492 1.00033 50.4276C0.980154 49.2072 1.89854 48.404 3.36985 48.4028C8.9478 48.3956 14.5258 48.3944 20.1037 48.4028C21.5323 48.4052 22.4068 49.169 22.4187 50.3714C22.4317 51.6384 21.5774 52.3759 20.0657 52.3783C17.275 52.3843 14.4866 52.3807 11.6982 52.3807Z" fill="#2F80ED"/>
<path d="M14.6824 38.6229C16.5215 38.6229 18.3607 38.6145 20.1998 38.6252C21.5691 38.6336 22.4056 39.3819 22.4175 40.5748C22.4293 41.7581 21.5833 42.5877 20.2508 42.5948C16.5097 42.6151 12.7685 42.614 9.02732 42.5948C7.72212 42.5877 6.81084 41.7163 6.8227 40.5796C6.83457 39.45 7.76127 38.6324 9.0724 38.624C10.9412 38.6145 12.8112 38.6229 14.6824 38.6229Z" fill="#2F80ED"/>
<path d="M88.7869 27.705C88.7869 39.5695 88.7869 51.4341 88.7869 63.2974C88.6279 64.0409 88.5211 64.7987 88.3016 65.523C87.4817 68.2196 84.7562 71.0202 80.36 70.9999C64.9207 70.9294 49.4802 70.9736 34.0408 70.9724C29.4442 70.9724 24.8463 71.0059 20.2496 70.9449C16.6057 70.8971 13.6085 68.2973 12.8503 64.6971C12.5573 63.3046 12.7257 61.9013 12.6996 60.5028C12.6735 59.1425 13.4436 58.2604 14.5969 58.2293C15.7692 58.1971 16.5939 59.1103 16.6271 60.5088C16.6485 61.4327 16.6247 62.3579 16.6497 63.283C16.6568 63.5496 16.5429 63.9345 16.8478 64.054C17.1432 64.17 17.3355 63.8197 17.5407 63.6428C24.2352 57.8803 30.9285 52.1166 37.61 46.3373C38.723 45.3751 38.7277 45.6321 37.6076 44.6627C30.9262 38.8846 24.2329 33.1197 17.5384 27.3572C17.3343 27.1815 17.1433 26.83 16.8454 26.9496C16.5429 27.0715 16.6568 27.4552 16.6497 27.7229C16.62 28.7748 16.6758 29.8302 16.5998 30.8773C16.5191 31.9818 15.6874 32.7492 14.6895 32.7767C13.7604 32.8029 12.7708 32.0917 12.74 31.163C12.6806 29.3557 12.4837 27.5281 12.9749 25.7423C13.7889 22.7804 16.6734 19.9798 21.0138 20.0001C36.5172 20.0754 52.0206 20.0288 67.524 20.03C72.0578 20.03 76.5916 19.9989 81.1242 20.0563C84.5924 20.1005 87.5196 22.478 88.4048 25.8451C88.5626 26.4571 88.6599 27.0846 88.7869 27.705ZM81.6225 24.0474C60.9197 24.0474 40.4541 24.0474 19.972 24.0474C20.0183 24.3797 20.2389 24.4813 20.3991 24.6187C29.9793 32.8687 39.5618 41.1162 49.1491 49.359C50.2135 50.2734 51.1105 50.2627 52.2104 49.3662C52.4074 49.206 52.5996 49.0387 52.7918 48.8725C60.5934 42.1585 68.3949 35.4446 76.1953 28.7294C77.9466 27.2233 79.6944 25.7112 81.6225 24.0474ZM19.7489 66.9538C40.4541 66.9538 60.9197 66.9538 81.5288 66.9538C81.3354 66.7422 81.2618 66.643 81.1704 66.5641C74.1959 60.5422 67.2178 54.5239 60.2516 48.4924C59.8541 48.1482 59.6073 48.1649 59.2241 48.5104C57.665 49.9136 56.0904 51.299 54.4945 52.6592C52.1487 54.6602 49.2096 54.653 46.8721 52.6521C45.3522 51.3504 43.8287 50.0487 42.3609 48.6873C41.7985 48.1661 41.4627 48.184 40.8908 48.6825C35.2808 53.5617 29.6435 58.4098 24.0133 63.2663C22.6512 64.4425 21.289 65.621 19.7489 66.9538ZM84.5177 64.2297C84.9555 62.7607 84.8665 27.754 84.45 26.8707C84.3717 26.9233 84.2887 26.9687 84.2187 27.0285C77.2631 33.0229 70.3135 39.0245 63.3402 44.9986C62.7576 45.4982 63.0032 45.699 63.4185 46.0564C66.8441 48.9933 70.2566 51.9444 73.6738 54.8897C77.2584 57.9795 80.8429 61.0658 84.5177 64.2297Z" stroke="#2F80ED" fill="none"/>
<path d="M11.6982 52.3807C8.94069 52.3807 6.18434 52.3831 3.42681 52.3795C1.91871 52.3771 1.0205 51.6492 1.00033 50.4276C0.980154 49.2072 1.89854 48.404 3.36985 48.4028C8.9478 48.3956 14.5258 48.3944 20.1037 48.4028C21.5323 48.4052 22.4068 49.169 22.4187 50.3714C22.4317 51.6384 21.5774 52.3759 20.0657 52.3783C17.275 52.3843 14.4866 52.3807 11.6982 52.3807Z" stroke="#2F80ED" fill="none"/>
<path d="M14.6824 38.6229C16.5215 38.6229 18.3607 38.6145 20.1998 38.6252C21.5691 38.6336 22.4056 39.3819 22.4175 40.5748C22.4293 41.7581 21.5833 42.5877 20.2508 42.5948C16.5097 42.6151 12.7685 42.614 9.02732 42.5948C7.72212 42.5877 6.81084 41.7163 6.8227 40.5796C6.83457 39.45 7.76127 38.6324 9.0724 38.624C10.9412 38.6145 12.8112 38.6229 14.6824 38.6229Z" stroke="#2F80ED" fill="none"/>
</svg>
