<svg width="65" height="65" viewBox="0 0 65 65" fill="none" xmlns="http://www.w3.org/2000/svg">
<path d="M56.8215 46.7219C57.4656 46.6967 58.0003 46.0921 57.9882 45.437C57.976 44.7568 57.4291 44.2151 56.7729 44.2151C56.1045 44.2277 55.5697 44.7694 55.5697 45.4496C55.5576 46.1425 56.1652 46.7471 56.8215 46.7219Z" fill="#383838"/>
<path d="M10.0932 18.1396C9.42477 18.1522 8.89004 18.6938 8.89004 19.3741C8.89004 20.0669 9.48554 20.6716 10.1418 20.6338C10.7859 20.6086 11.3206 20.0039 11.3085 19.3489C11.2963 18.6813 10.7616 18.1396 10.0932 18.1396Z" fill="#383838"/>
<path d="M59.8962 41.4312C59.641 41.2297 59.6045 41.1289 59.6896 40.8392C61.3181 35.3217 61.3181 29.7287 59.7018 24.2239C59.6045 23.909 59.6288 23.783 59.8962 23.5688C61.8771 22.0194 62.4605 19.2229 61.2695 16.9303C60.0663 14.6125 57.4899 13.5669 55.1322 14.4235C54.8162 14.5369 54.6947 14.4991 54.4881 14.2346C52.9933 12.345 51.1947 10.6318 49.1408 9.13281C46.1025 6.91576 42.6146 5.39154 38.7986 4.57274C38.5434 4.52235 38.4705 4.44677 38.4218 4.16964C37.8993 1.70065 35.8454 -0.0125279 33.4148 6.90083e-05C31.0328 0.0126659 28.9547 1.76363 28.4807 4.15704C28.4199 4.44677 28.3348 4.52235 28.0553 4.58534C26.5119 4.88766 24.9685 5.35375 23.4736 5.97099C19.1229 7.73456 15.4527 10.4681 12.5359 14.0834C12.1957 14.4991 11.9648 14.5621 11.5516 14.3605C11.2356 14.1968 10.871 14.1464 10.5793 14.1338C8.28239 13.9448 6.14346 15.3053 5.36567 17.4594C4.52711 19.7898 5.17122 22.158 7.06709 23.6444C7.27369 23.8082 7.27369 23.8712 7.20078 24.0979C6.98202 24.8033 6.82403 25.3828 6.7025 25.9371C5.58443 31.0388 5.74241 36.065 7.18862 40.8518C7.27369 41.1289 7.26154 41.2423 6.99417 41.4438C5.00108 42.9806 4.42989 45.7772 5.60873 48.0572C6.81188 50.375 9.40047 51.4332 11.7338 50.5766C12.0498 50.4632 12.1835 50.4884 12.3901 50.7529C13.8971 52.6551 15.6957 54.3682 17.7374 55.8547C20.7878 58.0717 24.2636 59.5959 28.0796 60.4147C28.347 60.4651 28.4199 60.5533 28.4685 60.8052C28.6265 61.6996 29.0397 62.5184 29.7081 63.2994C30.5345 64.2568 31.604 64.6725 32.6492 64.9874L32.6856 65H34.2169L34.2534 64.9874C34.2898 64.9748 34.3263 64.9622 34.3627 64.937C34.4357 64.9118 34.5086 64.874 34.5693 64.8614C36.6718 64.2694 37.9722 62.8963 38.4218 60.7548C38.4705 60.5407 38.5434 60.4777 38.7986 60.4147C41.2413 59.9109 43.5747 59.0795 45.7258 57.9583C49.1286 56.1822 52.0818 53.7636 54.4881 50.7529C54.6947 50.4884 54.8284 50.4506 55.1444 50.564C57.4534 51.4206 60.0663 50.3876 61.2209 48.1706C62.4605 45.8023 61.9258 43.0184 59.8962 41.4312ZM12.779 45.689C12.7061 47.2006 11.4543 48.4225 10.0446 48.3595C8.58622 48.2965 7.39522 46.999 7.44384 45.5378C7.46814 44.7946 7.79627 44.064 8.34316 43.5475C8.84143 43.0814 9.44908 42.8295 10.0689 42.8295C10.1175 42.8295 10.1661 42.8295 10.2026 42.8295C11.6731 42.9177 12.8398 44.2277 12.779 45.689ZM54.1114 45.5378C54.16 44.0514 55.3631 42.8295 56.7486 42.8295C56.7729 42.8295 56.7972 42.8295 56.8215 42.8295C57.5385 42.8547 58.2434 43.1822 58.7417 43.7491C59.2278 44.2907 59.4708 44.9835 59.4344 45.689C59.3615 47.2006 58.0976 48.4225 56.7 48.3595C55.2538 48.2965 54.0628 46.999 54.1114 45.5378ZM34.6544 53.2345C34.6544 52.5291 34.6423 51.8111 34.6666 51.1056C34.6787 50.6144 34.4721 50.4002 33.986 50.3876H33.9495C33.7672 50.3876 33.5971 50.375 33.4513 50.375C32.9651 50.375 32.6856 50.4128 32.4912 50.6144C32.236 50.8789 32.236 51.2946 32.236 52.126V52.6928C32.236 52.7054 32.236 52.7306 32.236 52.7432C32.236 52.7936 32.236 52.844 32.236 52.907C32.3696 54.0659 32.236 54.7335 31.0693 55.0862C30.0606 55.4012 29.2585 56.3081 28.7237 57.719C28.6508 57.9331 28.6265 57.9457 28.3713 57.8954C22.7445 56.6357 17.9926 53.688 14.2495 49.1405C14.0794 48.939 14.0794 48.8886 14.2252 48.6618C15.1002 47.4021 15.3919 46.0165 15.0759 44.5301C15.0273 44.3033 15.0638 44.2277 15.3311 44.0766C16.753 43.283 18.3694 42.3886 19.9128 41.469C20.1559 41.3305 20.1802 41.3305 20.3503 41.595C22.1247 44.3537 24.4337 46.344 27.2168 47.5155C32.9894 49.9341 38.434 49.1531 43.3803 45.1725C44.5834 44.2025 45.6529 42.9806 46.5644 41.5446C46.698 41.343 46.7102 41.3305 46.9046 41.4564C48.2415 42.2374 49.6755 43.0562 51.5349 44.0892C51.778 44.2277 51.8266 44.3033 51.778 44.5427C51.4742 46.0543 51.7658 47.4525 52.653 48.6744C52.7867 48.8634 52.7989 48.9138 52.6044 49.1405C49.3839 53.0959 45.2761 55.8799 40.4028 57.4041C39.9896 57.53 39.5642 57.6308 39.151 57.7316C38.8837 57.7946 38.6163 57.8576 38.3489 57.9331C38.2395 57.9583 38.2395 57.9583 38.1788 57.8198C37.559 56.1822 36.4166 55.0988 34.7881 54.6076C34.6423 54.5698 34.6423 54.5572 34.6423 54.3304V54.2926C34.6544 53.9399 34.6544 53.5872 34.6544 53.2345ZM9.49769 40.0708C8.81712 37.7529 8.45253 35.2336 8.40392 32.563C8.45253 29.8043 8.80497 27.3227 9.47339 24.9797C9.55846 24.7026 9.61922 24.6522 9.91089 24.6648C11.3449 24.7404 12.5967 24.2239 13.654 23.1405C13.8363 22.9516 13.9092 22.9516 14.128 23.0776C15.8294 24.0727 17.3242 24.9167 18.7097 25.6725C18.977 25.8237 19.0013 25.8741 18.8798 26.189C17.4215 29.8295 17.2513 33.6086 18.3815 37.4254C18.5274 37.9419 18.7218 38.4332 18.9406 38.9748C19.0013 39.126 19.0013 39.126 18.8555 39.2016C17.0326 40.2219 15.4284 41.1289 13.9578 41.9729C13.8606 42.0233 13.8606 42.0359 13.7269 41.8973C12.6939 40.8392 11.4786 40.2975 10.1175 40.2975C10.0081 40.2975 9.88659 40.2975 9.76506 40.3101C9.60707 40.3353 9.57061 40.3227 9.49769 40.0708ZM32.2238 12.408C32.2238 12.8867 32.2238 13.3906 32.2238 13.8818C32.2238 14.2345 32.2967 14.5999 32.8922 14.6125H32.9287C33.7308 14.6376 34.1318 14.6502 34.3992 14.3857C34.6666 14.1212 34.6666 13.6803 34.6666 12.8237V12.2568C34.6666 12.0679 34.6544 11.8789 34.6423 11.69C34.618 11.2869 34.6058 10.909 34.6787 10.5563C34.7395 10.3169 34.9096 10.2539 35.3107 10.1532C35.5294 10.1028 35.7482 10.0524 35.9548 9.91382C37.0486 9.1958 37.7534 8.3518 38.1423 7.33146C38.2517 7.04173 38.2882 7.04173 38.6284 7.11731C44.1824 8.3644 48.8977 11.2995 52.6287 15.8344C52.811 16.0611 52.8232 16.0989 52.6773 16.3004C51.7902 17.5349 51.4985 18.9332 51.8023 20.4322C51.8509 20.6716 51.8145 20.7597 51.5714 20.8983C50.1981 21.6541 48.5818 22.5611 46.9897 23.5059C46.7467 23.657 46.7102 23.6444 46.5522 23.4051C44.8022 20.6716 42.4931 18.6813 39.6858 17.4719C37.559 16.5524 35.4444 16.0989 33.3662 16.0989C30.5102 16.0989 27.7272 16.9681 25.0171 18.6938C23.1698 19.878 21.6021 21.4526 20.3625 23.3799C20.1923 23.6444 20.1559 23.6444 19.8764 23.4807C18.5274 22.6871 17.0447 21.8431 15.3433 20.9109C15.0881 20.7723 15.0516 20.6842 15.1002 20.3944C15.3919 18.9206 15.1002 17.5475 14.2374 16.3256C14.0915 16.1241 14.0794 16.0737 14.2617 15.8595C17.4944 11.8789 21.6142 9.09502 26.5119 7.5708C26.8643 7.45743 27.2168 7.38184 27.5692 7.29367C27.8609 7.23068 28.1526 7.1551 28.4442 7.07952C28.6144 7.02913 28.6387 7.04173 28.6994 7.21808C29.3071 8.80529 30.4252 9.86343 32.0051 10.3547C32.2117 10.4177 32.236 10.4555 32.236 10.6696C32.2238 11.2491 32.2238 11.8285 32.2238 12.408ZM33.4513 2.51945C34.8732 2.51945 36.0885 3.76654 36.1128 5.25297C36.1371 6.72681 34.9339 8.01169 33.4756 8.04948C32.795 8.06208 32.1023 7.77235 31.5919 7.25588C31.0693 6.72681 30.7654 6.00878 30.7654 5.27816C30.7654 3.79173 31.9808 2.51945 33.427 2.50685C33.4391 2.51945 33.4391 2.51945 33.4513 2.51945ZM42.5053 42.6531C39.9167 45.1347 36.5746 46.4322 33.0745 46.3188C29.4165 46.1929 26.0622 44.6308 23.6316 41.8973C21.2496 39.2268 19.9857 35.75 20.0951 32.1095C20.2045 28.3683 21.6872 24.9167 24.2757 22.3973C26.7671 19.9661 29.9877 18.6435 33.3662 18.6435C33.512 18.6435 33.6457 18.6435 33.7915 18.6561C37.4375 18.7694 40.7917 20.344 43.2223 23.0776C45.6043 25.7481 46.8682 29.2248 46.7831 32.8653C46.6616 36.657 45.1425 40.1337 42.5053 42.6531ZM47.9984 38.8111C49.4568 35.158 49.6269 31.3789 48.4967 27.5747C48.3508 27.0834 48.1686 26.5795 47.962 26.0756C47.8647 25.8615 47.8769 25.8489 48.0592 25.7481C49.6512 24.8663 51.2554 23.9467 52.8475 23.0272C52.9082 22.9894 52.9447 22.9768 52.9811 22.9768C53.0298 22.9768 53.0784 23.0146 53.1756 23.1028C54.2815 24.2239 55.594 24.7404 57.0889 24.6522C57.2833 24.6396 57.3198 24.6648 57.3805 24.8915C58.0611 27.2093 58.4257 29.7287 58.4743 32.3867C58.4257 35.1958 58.0733 37.6774 57.4048 39.9826C57.3198 40.2723 57.2833 40.3227 57.0524 40.3101C55.5697 40.2093 54.2815 40.7384 53.1999 41.8595C53.0419 42.0233 52.9933 42.0233 52.7624 41.8973C51.4013 41.1037 49.7849 40.1715 48.1321 39.2646C47.889 39.1512 47.8769 39.1008 47.9984 38.8111ZM54.1114 19.3363C54.1357 18.5931 54.4638 17.8625 55.0107 17.346C55.509 16.8799 56.1166 16.628 56.7486 16.628C56.7972 16.628 56.8336 16.628 56.8823 16.628C58.3406 16.7161 59.5195 18.0136 59.4465 19.4749C59.3736 20.9865 58.1219 22.2084 56.7121 22.1454C55.2538 22.095 54.0628 20.7975 54.1114 19.3363ZM12.7669 19.4875C12.6939 20.9991 11.43 22.221 10.0203 22.158C9.30324 22.1202 8.64698 21.8053 8.14871 21.2636C7.66259 20.7219 7.40738 20.0417 7.43168 19.3237C7.49245 17.8121 8.73205 16.5776 10.154 16.628C10.871 16.6532 11.5637 16.9807 12.062 17.5475C12.5602 18.0892 12.8033 18.782 12.7669 19.4875ZM31.5311 57.8072C32.0415 57.2655 32.7342 56.938 33.4391 56.938C33.4513 56.938 33.4513 56.938 33.4634 56.938C34.8853 56.938 36.0885 58.1851 36.1128 59.6841C36.1249 61.1579 34.9218 62.4428 33.4756 62.468C33.4634 62.468 33.4391 62.468 33.427 62.468C32.0172 62.468 30.8141 61.2335 30.7776 59.7597C30.7533 59.0543 31.0328 58.3488 31.5311 57.8072Z" fill="#383838"/>
<path d="M41.8854 34.44C40.5972 33.6589 39.2847 32.8402 38.0208 32.0591L37.5104 31.7442C37.3281 31.6308 37.1579 31.4923 36.9878 31.3663C36.9513 31.3411 36.9392 31.3285 36.927 31.3159C36.9392 31.3033 36.9513 31.2907 36.9756 31.2655C38.3003 29.9681 38.7864 28.2675 38.5069 25.8867C38.276 23.846 37.1822 22.3595 35.3714 21.5785C33.5971 20.8227 31.8714 21.0873 30.2307 22.3721C29.1369 23.2287 28.4442 24.7278 28.3348 26.4787C28.2133 28.2927 28.748 30.0436 29.7203 31.0388C29.7811 31.1018 29.9269 31.2529 29.9755 31.3285C29.9147 31.3915 29.7324 31.5175 29.6352 31.5931C29.5623 31.6434 29.4772 31.6938 29.3922 31.7442L29.3314 31.782C28.9547 32.0214 28.5779 32.2481 28.2012 32.4874C27.156 33.1425 26.0744 33.8101 25.0049 34.4526C24.6039 34.6919 24.4337 35.0068 24.458 35.4729C24.4823 36.2287 24.5067 37.2239 24.458 38.219C24.3973 39.4661 24.9685 40.3731 26.1473 40.9148C26.6456 41.1415 27.1925 41.3053 27.8244 41.4312C29.6109 41.7965 31.3488 41.8091 33.4391 41.7839C33.7186 41.7839 33.986 41.7839 34.2655 41.7965C34.5329 41.7965 34.8124 41.8091 35.0919 41.8091C35.4322 41.8091 35.7846 41.8091 36.1249 41.7839C37.5104 41.721 38.993 41.5824 40.4271 41.0659C41.8611 40.5368 42.4566 39.7055 42.4566 38.1686C42.4566 37.9041 42.4566 37.6522 42.4566 37.3876C42.4566 36.7578 42.4445 36.1027 42.4688 35.4729C42.4688 34.9942 42.2987 34.6793 41.8854 34.44ZM28.0067 35.4855C28.2133 35.3721 28.4199 35.2588 28.6265 35.1328C29.8418 34.4526 31.1057 33.7597 32.0901 32.6386C32.1509 32.563 32.1995 32.563 32.4183 32.6134L32.479 32.626C33.0988 32.7646 33.7429 32.7646 34.387 32.626C34.4113 32.626 34.4478 32.6134 34.4721 32.6008C34.6787 32.5504 34.7152 32.5504 34.7759 32.626C35.42 33.3818 36.2343 33.8605 37.0242 34.3392C37.3888 34.5533 37.7656 34.7801 38.1059 35.0194L38.1545 35.0572C38.2639 35.1328 38.3854 35.221 38.5191 35.2713C39.7708 35.75 40.2448 36.6192 40.026 38.0427C39.9653 38.4332 39.8681 38.5717 39.6007 38.6599C38.8229 38.937 38.0086 39.0378 37.0364 39.126C35.3714 39.252 34.0103 39.3024 32.7585 39.2646C32.4304 39.252 32.1023 39.2394 31.762 39.2268C30.4252 39.1764 29.0519 39.126 27.7394 38.7859C27.314 38.6725 27.1074 38.6095 27.0223 38.5088C26.9373 38.408 26.9129 38.1686 26.8765 37.7781L26.8643 37.6144C26.7428 36.6192 27.0588 36.0272 28.0067 35.4855ZM36.0763 27.7636C35.894 29.1745 34.7516 30.2326 33.427 30.22C32.0901 30.2074 31.0207 29.2122 30.8141 27.7888C30.7898 27.5998 30.7776 27.4235 30.7654 27.2219C30.7654 27.1338 30.7533 27.033 30.7533 26.9448C30.7654 25.156 31.5311 24.0475 32.9408 23.7578C34.2898 23.4681 35.6631 24.3624 36.0034 25.7481C36.1492 26.3402 36.1735 27.0078 36.0763 27.7636Z" fill="#383838"/>
</svg>
