<svg width="34" height="34" viewBox="0 0 34 34" fill="none" xmlns="http://www.w3.org/2000/svg">
<path d="M18.4593 2C17.8173 2 17.1753 2 16.5332 2C16.0587 2.06472 15.5818 2.11468 15.1107 2.19586C12.1457 2.70851 9.5492 3.98019 7.41419 6.10174C3.84808 9.64654 2.44707 13.9475 3.19526 18.9094C3.62726 21.7724 4.88465 24.2794 6.88342 26.3782C10.3144 29.9809 14.5362 31.4718 19.4607 30.8705C22.3439 30.5186 24.8854 29.3224 27.0618 27.3939C29.5919 25.152 31.1729 22.3633 31.7735 19.0303C31.8666 18.5131 31.9251 17.9891 31.9994 17.4685C31.9994 16.8077 31.9994 16.1463 31.9994 15.4855C31.9353 15.0217 31.8842 14.555 31.8047 14.0935C31.4425 11.9833 30.6796 10.0292 29.4404 8.28006C27.0397 4.89137 23.7977 2.82773 19.6838 2.16691C19.2779 2.10162 18.8681 2.05507 18.4593 2ZM28.9436 16.3666C28.9732 22.8147 23.8471 27.9122 17.5369 27.9497C11.2017 27.9877 6.10911 22.8749 6.05292 16.6572C5.99445 10.2012 11.1415 5.08893 17.4688 5.06055C23.7483 5.0333 28.9363 10.1649 28.9436 16.3666Z" fill="currentColor"/>
<path d="M14.1711 16.5274C14.1711 18.0001 14.1688 19.4727 14.1722 20.9448C14.1739 21.6062 14.4788 22.0166 15.0345 22.1342C15.3552 22.2023 15.6323 22.0961 15.8837 21.9162C17.9932 20.4066 20.1038 18.8987 22.2059 17.3784C22.8564 16.9078 22.8616 16.1067 22.2144 15.6384C20.1055 14.1118 17.987 12.5988 15.8701 11.083C15.5119 10.8264 15.1236 10.7691 14.7263 10.9837C14.3045 11.2113 14.1711 11.6008 14.1711 12.0532C14.1705 13.5446 14.1711 15.036 14.1711 16.5274Z" fill="currentColor"/>
</svg>
