<svg width="24" height="24" viewBox="0 0 24 24" fill="none" xmlns="http://www.w3.org/2000/svg">
<path fill-rule="evenodd" clip-rule="evenodd" d="M17.9988 12.006C17.9988 12.0036 18 12.0024 18 12C18 11.9604 17.9808 11.928 17.9772 11.8896C17.9676 11.7744 17.9532 11.6592 17.9088 11.5512C17.8764 11.4696 17.8212 11.4048 17.772 11.3328C17.7348 11.28 17.7144 11.2188 17.6688 11.1708L14.2332 7.57079C13.7748 7.09079 13.0164 7.07399 12.5364 7.53119C12.0576 7.98839 12.0396 8.74799 12.4968 9.22799L13.9968 10.8H7.2C6.5376 10.8 6 11.3364 6 12C6 12.6624 6.5376 13.2 7.2 13.2H13.9032L12.3516 14.7516C11.8824 15.2196 11.8824 15.9792 12.3516 16.4484C12.5856 16.6824 12.8928 16.8 13.2 16.8C13.5072 16.8 13.8144 16.6824 14.0484 16.4484L17.6484 12.8484C17.7576 12.7392 17.8464 12.6072 17.9064 12.462C17.9676 12.3168 17.9976 12.162 17.9988 12.006ZM12.0003 21.5989C6.7071 21.5989 2.4003 17.2921 2.4003 11.9989C2.4003 6.70573 6.7071 2.39893 12.0003 2.39893C17.2935 2.39893 21.6003 6.70573 21.6003 11.9989C21.6003 17.2921 17.2935 21.5989 12.0003 21.5989ZM12 0C5.3832 0 0 5.3832 0 12C0 18.6168 5.3832 24 12 24C18.6168 24 24 18.6168 24 12C24 5.3832 18.6168 0 12 0Z" fill="white"/>
</svg>
