<svg width="34" height="34" viewBox="0 0 34 34" fill="none" xmlns="http://www.w3.org/2000/svg">
<path d="M11.0779 3.90625C11.684 3.30208 12.4199 3 13.2857 3C14.1515 3 14.8874 3.30208 15.4935 3.90625C16.0996 4.51042 16.4026 5.24405 16.4026 6.10714V10.4442C16.7489 10.3147 17.0952 10.25 17.4416 10.25C18.2208 10.25 18.9134 10.5089 19.5195 11.0268C20.1255 10.5089 20.8182 10.25 21.5974 10.25C22.3333 10.25 22.9827 10.4874 23.5455 10.9621C24.1082 11.3936 24.4545 11.933 24.5844 12.5804C25.0606 12.4077 25.4935 12.3214 25.8831 12.3214C26.7056 12.3214 27.4199 12.6235 28.026 13.2277C28.6753 13.8318 29 14.5655 29 15.4286V23.5201C29 25.8504 28.1558 27.8571 26.4675 29.5402C24.8225 31.1801 22.8095 32 20.4286 32H18.6753C16.7706 32 15.039 31.4174 13.4805 30.2522L13.4156 30.1875L4.84416 21.7723C4.28139 21.1682 4 20.4345 4 19.5714C4 18.7083 4.28139 17.9963 4.84416 17.4353C5.45022 16.8311 6.18615 16.529 7.05195 16.529C7.91775 16.529 8.65368 16.8095 9.25974 17.3705L9.51948 17.6295L10.1688 18.3415V6.10714C10.1688 5.24405 10.4719 4.51042 11.0779 3.90625ZM14 5.39509C13.8268 5.17932 13.5887 5.07143 13.2857 5.07143C12.9827 5.07143 12.7229 5.17932 12.5065 5.39509C12.3333 5.56771 12.2468 5.80506 12.2468 6.10714V23.3259L7.76623 18.8594C7.29004 18.3847 6.81385 18.3847 6.33766 18.8594C5.86147 19.3341 5.86147 19.8088 6.33766 20.2835L14.7143 28.5692C15.9264 29.4754 17.2468 29.9286 18.6753 29.9286H20.4286C22.2468 29.9286 23.7836 29.3244 25.039 28.1161C26.2944 26.8646 26.9221 25.3326 26.9221 23.5201V15.4286C26.9221 15.1265 26.8139 14.8891 26.5974 14.7165C26.381 14.5007 26.1212 14.3929 25.8182 14.3929C25.5584 14.3929 25.3203 14.5007 25.1039 14.7165C24.9307 14.8891 24.8442 15.1265 24.8442 15.4286V17.5H22.6364V13.3571C22.6364 13.0551 22.5281 12.8177 22.3117 12.6451C22.1385 12.4293 21.9004 12.3214 21.5974 12.3214C21.2944 12.3214 21.0346 12.4293 20.8182 12.6451C20.645 12.8177 20.5584 13.0551 20.5584 13.3571V17.5H18.4805V13.3571C18.4805 13.0551 18.3723 12.8177 18.1558 12.6451C17.9827 12.4293 17.7446 12.3214 17.4416 12.3214C17.1385 12.3214 16.8788 12.4293 16.6623 12.6451C16.4892 12.8177 16.4026 13.0551 16.4026 13.3571V17.5H14.3247V6.10714C14.3247 5.80506 14.2165 5.56771 14 5.39509Z" fill="currentColor"/>
</svg>
