<svg width="77" height="76" viewBox="0 0 77 76" fill="none" xmlns="http://www.w3.org/2000/svg">
<path d="M76 24.5595C75.8115 25.2256 75.7984 25.9279 75.5398 26.5809C75.1497 27.5627 74.5361 28.3823 73.7881 29.1222C68.457 34.396 63.1361 39.6813 57.8006 44.9507C57.3944 45.3518 57.1052 45.7876 56.9079 46.3191C55.0803 51.2569 53.2248 56.1831 51.4059 61.1237C49.7784 65.5446 46.6723 68.3509 42.1199 69.6165C38.7392 70.5562 35.3629 71.5119 31.9734 72.4242C31.3364 72.5951 30.9376 73.0092 30.511 73.432C30.1151 73.823 29.7352 74.2328 29.3159 74.5962C28.6789 75.1479 27.833 75.1262 27.2764 74.5803C26.7066 74.0214 26.6935 73.1337 27.2925 72.5067C28.0113 71.7552 28.7651 71.037 29.5015 70.3028C29.8083 69.9973 30.2159 69.9118 30.6118 69.8004C34.3636 68.7447 38.1227 67.7152 41.8643 66.6277C44.9674 65.7256 47.1822 63.7592 48.3685 60.7849C49.66 57.5486 50.8259 54.2615 52.0443 50.9948C52.0677 50.9325 52.059 50.8586 52.0663 50.7674C51.7668 50.8384 51.6353 51.0787 51.4585 51.2525C49.5461 53.1378 47.6453 55.0348 45.7315 56.9187C42.9483 59.6583 39.1907 59.6554 36.406 56.9201C36.3374 56.8521 36.2687 56.784 36.2 56.7159C35.4915 56.0136 35.4915 56.0136 34.7376 56.671C34.0422 57.2778 33.1554 57.2807 32.5856 56.6783C32.0085 56.0687 32.0421 55.2274 32.7185 54.5511C34.7201 52.5499 36.7348 50.5632 38.7451 48.5693C39.8276 47.4963 40.9161 46.4291 41.9899 45.3489C43.204 44.1282 43.242 42.35 42.0965 41.2148C40.9541 40.0824 39.1527 40.1085 37.9225 41.3118C35.9677 43.2232 34.0188 45.1404 32.1035 47.0909C31.5147 47.6918 30.8733 47.9785 30.0391 47.9394C27.5788 47.8221 25.3158 48.4028 23.358 49.929C20.8948 51.8491 19.5829 54.4005 19.6238 57.4877C19.6442 59.0473 19.1373 60.1203 18.0284 61.1933C13.5578 65.5142 9.17195 69.922 4.76126 74.3023C4.25138 74.8091 3.71666 75.174 2.95549 74.8786C2.03508 74.5209 1.70928 73.4668 2.29075 72.6761C2.44707 72.4633 2.64723 72.2823 2.83569 72.0955C7.28437 67.6833 11.7316 63.2697 16.192 58.8692C16.528 58.5376 16.6609 58.206 16.6697 57.7368C16.7734 52.1459 19.4193 48.2044 24.5692 45.9324C25.0776 45.708 24.9724 45.5748 24.6627 45.2721C22.9519 43.5968 21.2542 41.9069 19.5551 40.2185C16.715 37.3948 16.7106 33.6908 19.5434 30.8801C22.5823 27.8639 40.1286 10.4861 43.1674 7.46981C43.6247 7.01513 44.1331 6.74 44.7994 6.95576C45.3589 7.13676 45.692 7.52918 45.8104 8.08667C45.9535 8.7629 45.5664 9.22338 45.1222 9.66213C42.079 12.674 24.5429 30.0606 21.4924 33.0652C20.4361 34.1064 20.1541 35.3126 20.5924 36.6983C20.7633 37.237 21.1286 37.6598 21.5289 38.0537C23.7306 40.2301 25.9279 42.4123 28.1281 44.5916C28.7359 45.1925 29.8433 45.1983 30.4511 44.5959C32.2919 42.7772 34.1035 40.9266 35.9751 39.1383C39.2988 35.9598 44.6635 37.5078 45.7095 41.9576C46.2034 44.0616 45.5883 45.9064 44.0499 47.4369C42.0776 49.399 40.1184 51.3741 38.111 53.3C37.5953 53.7953 37.5646 54.1095 38.1358 54.5164C38.3301 54.6554 38.4792 54.8567 38.6545 55.0217C40.1125 56.4032 42.0293 56.4075 43.4699 55.0232C44.0981 54.4194 44.7088 53.7996 45.3282 53.1856C54.0912 44.5003 62.8541 35.815 71.6156 27.1297C73.474 25.2878 73.4769 23.5227 71.6229 21.6837C66.0916 16.1985 60.5604 10.7148 55.0262 5.2326C53.2131 3.43559 51.3942 3.43559 49.5884 5.22391C46.5467 8.23727 43.5035 11.2506 40.4661 14.2669C40.0599 14.6709 39.6275 15.0198 39.0124 14.9561C37.8583 14.8374 37.2943 13.5472 37.9883 12.6234C38.1183 12.451 38.2834 12.3048 38.4383 12.1513C41.1177 9.49416 43.819 6.85729 46.4678 4.17119C47.8367 2.78253 49.229 1.47206 51.2087 1C51.9377 1 52.6667 1 53.3957 1C54.6756 1.39386 55.8648 1.92674 56.8378 2.89258C62.5488 8.57176 68.2729 14.2379 73.9955 19.9055C74.894 20.796 75.5018 21.843 75.7779 23.0724C75.8671 23.4662 75.924 23.8688 75.9956 24.267C76 24.3669 76 24.4639 76 24.5595Z" fill="#383838"/>
<path d="M47.3926 16.4954C47.4452 13.6544 49.8193 11.3694 52.6536 11.4331C55.4966 11.4968 57.8021 13.8643 57.7582 16.6764C57.7129 19.4914 55.3067 21.788 52.4724 21.7199C49.5797 21.6504 47.3385 19.3466 47.3926 16.4954ZM52.5542 18.7978C53.8034 18.7992 54.8334 17.7769 54.8114 16.5591C54.7895 15.3558 53.78 14.3726 52.5659 14.3711C51.3139 14.3697 50.3145 15.3717 50.3262 16.6199C50.3365 17.8305 51.3241 18.7963 52.5542 18.7978Z" fill="#383838"/>
<path d="M48.8565 39.1064C48.8404 38.701 49.0289 38.3549 49.3342 38.0522C54.3293 33.1029 59.32 28.1492 64.3195 23.2056C64.9959 22.5366 65.8491 22.5279 66.4554 23.1259C67.0778 23.7385 67.0574 24.5884 66.3444 25.3009C64.2274 27.4208 62.093 29.5248 59.9643 31.6331C57.2177 34.3554 54.4725 37.0763 51.7244 39.7957C51.5184 39.9984 51.3124 40.2113 51.0728 40.3677C50.5848 40.6862 50.0633 40.6891 49.5607 40.3952C49.0873 40.1171 48.8433 39.6943 48.8565 39.1064Z" fill="#383838"/>
<path d="M29.6037 35.7079C28.8703 35.7035 28.4174 35.4313 28.1617 34.8709C27.8929 34.283 27.9908 33.7313 28.432 33.2694C29.0675 32.6048 29.7294 31.9662 30.381 31.3189C31.3072 30.398 32.2291 29.4712 33.1656 28.5618C33.8785 27.8697 34.7537 27.819 35.3658 28.404C36.0043 29.0151 35.9604 29.9027 35.2285 30.6354C33.7222 32.1399 32.2043 33.6329 30.6951 35.1345C30.3605 35.469 29.9967 35.7311 29.6037 35.7079Z" fill="#383838"/>
<path d="M76 24.5595C75.8115 25.2256 75.7984 25.9279 75.5398 26.5809C75.1497 27.5627 74.5361 28.3823 73.7881 29.1222C68.457 34.396 63.1361 39.6813 57.8006 44.9507C57.3944 45.3518 57.1052 45.7876 56.9079 46.3191C55.0803 51.2569 53.2248 56.1831 51.4059 61.1237C49.7784 65.5446 46.6723 68.3509 42.1199 69.6165C38.7392 70.5562 35.3629 71.5119 31.9734 72.4242C31.3364 72.5951 30.9376 73.0092 30.511 73.432C30.1151 73.823 29.7352 74.2328 29.3159 74.5962C28.6789 75.1479 27.833 75.1262 27.2764 74.5803C26.7066 74.0214 26.6935 73.1337 27.2925 72.5067C28.0113 71.7552 28.7651 71.037 29.5015 70.3028C29.8083 69.9973 30.2159 69.9118 30.6118 69.8004C34.3636 68.7447 38.1227 67.7152 41.8643 66.6277C44.9674 65.7256 47.1822 63.7592 48.3685 60.7849C49.66 57.5486 50.8259 54.2615 52.0443 50.9948C52.0677 50.9325 52.059 50.8586 52.0663 50.7674C51.7668 50.8384 51.6353 51.0787 51.4585 51.2525C49.5461 53.1378 47.6453 55.0348 45.7315 56.9187C42.9483 59.6583 39.1907 59.6554 36.406 56.9201C36.3374 56.8521 36.2687 56.784 36.2 56.7159C35.4915 56.0136 35.4915 56.0136 34.7376 56.671C34.0422 57.2778 33.1554 57.2807 32.5856 56.6783C32.0085 56.0687 32.0421 55.2274 32.7185 54.5511C34.7201 52.5499 36.7348 50.5632 38.7451 48.5693C39.8276 47.4963 40.9161 46.4291 41.9899 45.3489C43.204 44.1282 43.242 42.35 42.0965 41.2148C40.9541 40.0824 39.1527 40.1085 37.9225 41.3118C35.9677 43.2232 34.0188 45.1404 32.1035 47.0909C31.5147 47.6918 30.8733 47.9785 30.0391 47.9394C27.5788 47.8221 25.3158 48.4028 23.358 49.929C20.8948 51.8491 19.5829 54.4005 19.6238 57.4877C19.6442 59.0473 19.1373 60.1203 18.0284 61.1933C13.5578 65.5142 9.17195 69.922 4.76126 74.3023C4.25138 74.8091 3.71666 75.174 2.95549 74.8786C2.03508 74.5209 1.70928 73.4668 2.29075 72.6761C2.44707 72.4633 2.64723 72.2823 2.83569 72.0955C7.28437 67.6833 11.7316 63.2697 16.192 58.8692C16.528 58.5376 16.6609 58.206 16.6697 57.7368C16.7734 52.1459 19.4193 48.2044 24.5692 45.9324C25.0776 45.708 24.9724 45.5748 24.6627 45.2721C22.9519 43.5968 21.2542 41.9069 19.5551 40.2185C16.715 37.3948 16.7106 33.6908 19.5434 30.8801C22.5823 27.8639 40.1286 10.4861 43.1674 7.46981C43.6247 7.01513 44.1331 6.74 44.7994 6.95576C45.3589 7.13676 45.692 7.52918 45.8104 8.08667C45.9535 8.7629 45.5664 9.22338 45.1222 9.66213C42.079 12.674 24.5429 30.0606 21.4924 33.0652C20.4361 34.1064 20.1541 35.3126 20.5924 36.6983C20.7633 37.237 21.1286 37.6598 21.5289 38.0537C23.7306 40.2301 25.9279 42.4123 28.1281 44.5916C28.7359 45.1925 29.8433 45.1983 30.4511 44.5959C32.2919 42.7772 34.1035 40.9266 35.9751 39.1383C39.2988 35.9598 44.6635 37.5078 45.7095 41.9576C46.2034 44.0616 45.5883 45.9064 44.0499 47.4369C42.0776 49.399 40.1184 51.3741 38.111 53.3C37.5953 53.7953 37.5646 54.1095 38.1358 54.5164C38.3301 54.6554 38.4792 54.8567 38.6545 55.0217C40.1125 56.4032 42.0293 56.4075 43.4699 55.0232C44.0981 54.4194 44.7088 53.7996 45.3282 53.1856C54.0912 44.5003 62.8541 35.815 71.6156 27.1297C73.474 25.2878 73.4769 23.5227 71.6229 21.6837C66.0916 16.1985 60.5604 10.7148 55.0262 5.2326C53.2131 3.43559 51.3942 3.43559 49.5884 5.22391C46.5467 8.23727 43.5035 11.2506 40.4661 14.2669C40.0599 14.6709 39.6275 15.0198 39.0124 14.9561C37.8583 14.8374 37.2943 13.5472 37.9883 12.6234C38.1183 12.451 38.2834 12.3048 38.4383 12.1513C41.1177 9.49416 43.819 6.85729 46.4678 4.17119C47.8367 2.78253 49.229 1.47206 51.2087 1C51.9377 1 52.6667 1 53.3957 1C54.6756 1.39386 55.8648 1.92674 56.8378 2.89258C62.5488 8.57176 68.2729 14.2379 73.9955 19.9055C74.894 20.796 75.5018 21.843 75.7779 23.0724C75.8671 23.4662 75.924 23.8688 75.9956 24.267C76 24.3669 76 24.4639 76 24.5595Z" stroke="#383838" stroke-width="2"/>
<path d="M47.3926 16.4954C47.4452 13.6544 49.8193 11.3694 52.6536 11.4331C55.4966 11.4968 57.8021 13.8643 57.7582 16.6764C57.7129 19.4914 55.3067 21.788 52.4724 21.7199C49.5797 21.6504 47.3385 19.3466 47.3926 16.4954ZM52.5542 18.7978C53.8034 18.7992 54.8334 17.7769 54.8114 16.5591C54.7895 15.3558 53.78 14.3726 52.5659 14.3711C51.3139 14.3697 50.3145 15.3717 50.3262 16.6199C50.3365 17.8305 51.3241 18.7963 52.5542 18.7978Z" stroke="#383838" stroke-width="2"/>
<path d="M48.8565 39.1064C48.8404 38.701 49.0289 38.3549 49.3342 38.0522C54.3293 33.1029 59.32 28.1492 64.3195 23.2056C64.9959 22.5366 65.8491 22.5279 66.4554 23.1259C67.0778 23.7385 67.0574 24.5884 66.3444 25.3009C64.2274 27.4208 62.093 29.5248 59.9643 31.6331C57.2177 34.3554 54.4725 37.0763 51.7244 39.7957C51.5184 39.9984 51.3124 40.2113 51.0728 40.3677C50.5848 40.6862 50.0633 40.6891 49.5607 40.3952C49.0873 40.1171 48.8433 39.6943 48.8565 39.1064Z" stroke="#383838" stroke-width="2"/>
<path d="M29.6037 35.7079C28.8703 35.7035 28.4174 35.4313 28.1617 34.8709C27.8929 34.283 27.9908 33.7313 28.432 33.2694C29.0675 32.6048 29.7294 31.9662 30.381 31.3189C31.3072 30.398 32.2291 29.4712 33.1656 28.5618C33.8785 27.8697 34.7537 27.819 35.3658 28.404C36.0043 29.0151 35.9604 29.9027 35.2285 30.6354C33.7222 32.1399 32.2043 33.6329 30.6951 35.1345C30.3605 35.469 29.9967 35.7311 29.6037 35.7079Z" stroke="#383838" stroke-width="2"/>
</svg>
