<svg width="18" height="14" viewBox="0 0 18 14" fill="none" xmlns="http://www.w3.org/2000/svg">
<path fill-rule="evenodd" clip-rule="evenodd" d="M14.8752 0.875C14.8752 0.391751 14.4835 0 14.0002 0C13.517 0 13.1252 0.391751 13.1252 0.875V10.7511L11.9834 9.6495C11.636 9.3135 11.0821 9.324 10.7461 9.67138C10.4101 10.0188 10.4197 10.5726 10.7671 10.9086L13.3921 13.4435C13.7369 13.7725 14.282 13.7708 14.6189 13.4321L17.2439 10.8071C17.5851 10.465 17.5851 9.91113 17.2439 9.56988C17.0732 9.39838 16.8492 9.3135 16.6252 9.3135C16.4012 9.3135 16.1772 9.39838 16.0066 9.56988L14.8752 10.7013V0.875ZM0.875 0.000208855H7C7.48125 0.000208855 7.875 0.393959 7.875 0.875209C7.875 1.35646 7.48125 1.75021 7 1.75021H0.875C0.39375 1.75021 0 1.35646 0 0.875209C0 0.393959 0.39375 0.000208855 0.875 0.000208855ZM3.5 6.12521H7C7.48125 6.12521 7.875 6.51896 7.875 7.00021C7.875 7.48146 7.48125 7.87521 7 7.87521H3.5C3.01875 7.87521 2.625 7.48146 2.625 7.00021C2.625 6.51896 3.01875 6.12521 3.5 6.12521ZM7 12.2502H5.25C4.76875 12.2502 4.375 12.644 4.375 13.1252C4.375 13.6065 4.76875 14.0002 5.25 14.0002H7C7.48125 14.0002 7.875 13.6065 7.875 13.1252C7.875 12.644 7.48125 12.2502 7 12.2502Z" fill="#828282"/>
</svg>
