<svg width="65" height="65" viewBox="0 0 65 65" fill="none" xmlns="http://www.w3.org/2000/svg">
<path d="M39.5674 20.3C40.2273 20.288 40.7772 20.8171 40.7895 21.4665C40.8017 22.1038 40.264 22.669 39.6162 22.693C38.9563 22.7171 38.3575 22.1399 38.3575 21.4905C38.3697 20.8291 38.9074 20.3 39.5674 20.3Z" fill="#383838"/>
<path d="M64.596 15.8628C64.2049 16.7888 63.4716 17.2217 62.4695 17.3179C62.0662 17.3539 61.6751 17.4862 61.2718 17.5463C60.8686 17.5944 60.6852 17.8109 60.5019 18.1716C60.2208 18.7007 60.2942 19.0855 60.6486 19.5184C60.9785 19.9273 61.2474 20.3722 61.5285 20.8171C62.0296 21.5987 61.9807 22.4164 61.3696 23.0898C60.8808 23.631 60.3553 24.136 59.8176 24.617C59.1698 25.1822 58.3633 25.2423 57.6056 24.8094C57.41 24.7012 57.2267 24.5689 57.0434 24.4486C56.7379 24.2562 56.4568 23.9436 56.1146 23.8835C55.7724 23.8234 55.6624 24.3043 55.3691 24.4847C55.0636 24.6651 54.7581 24.7974 54.4159 24.8575C53.9393 24.9537 53.4626 25.0379 52.9738 25.1341C51.4584 25.4227 51.4706 25.4227 50.8596 26.8296C50.7496 27.0821 50.7618 27.2625 50.9207 27.491C51.4217 28.2004 51.9106 28.9099 52.3872 29.6314C53.0593 30.6655 52.9738 31.5794 52.1061 32.4573C51.5806 32.9864 51.0551 33.5155 50.5052 34.0325C49.6863 34.7901 48.7209 34.8863 47.7799 34.2851C47.0466 33.8281 46.3133 33.3471 45.5923 32.8541C45.3112 32.6617 45.0912 32.6978 44.7613 32.7819C43.6614 33.0465 43.1848 33.6958 43.1359 34.7901C43.1114 35.3432 42.9403 35.8844 42.7937 36.4375C42.5493 37.3755 41.8527 37.9647 40.875 38.0008C40.0195 38.0368 39.1641 38.0368 38.3086 38.0128C37.172 37.9767 36.451 37.3634 36.2188 36.2692C36.0477 35.4635 35.8644 34.6699 35.73 33.8522C35.6689 33.4794 35.4733 33.311 35.1434 33.1186C34.1779 32.5414 33.3958 32.7098 32.5892 33.4072C32.1859 33.768 31.697 34.0325 31.2204 34.3091C30.3527 34.8382 29.3995 34.7781 28.6296 34.0927C27.9941 33.5275 27.3952 32.9262 26.8086 32.313C26.0754 31.5193 26.0143 30.5814 26.6131 29.6675C27.1019 28.9219 27.5908 28.2004 28.1041 27.4669C28.2629 27.2384 28.2385 27.0701 28.1774 26.8055C27.9085 25.6391 27.1753 25.1581 26.002 25.098C25.4154 25.0619 24.841 24.9056 24.2789 24.7372C23.399 24.4847 22.849 23.7753 22.8246 22.8734C22.8001 22.0076 22.8001 21.1538 22.8246 20.288C22.849 19.3501 23.4601 18.6045 24.3889 18.3881C25.3177 18.1716 26.2587 17.9792 27.1997 17.8229C27.5052 17.7748 27.603 17.5944 27.7496 17.366C28.3729 16.3799 28.214 15.5382 27.4441 14.6964C27.0897 14.3116 26.8331 13.8426 26.552 13.4097C26.0143 12.5439 26.0998 11.606 26.7964 10.8725C27.3586 10.2712 27.9574 9.69404 28.5685 9.12886C29.3628 8.39534 30.3283 8.31117 31.2449 8.90039C31.9659 9.35734 32.6747 9.81429 33.3713 10.3073C33.6768 10.5238 33.9335 10.4997 34.3001 10.4155C35.3633 10.151 35.8033 9.51366 35.8766 8.47952C35.9133 7.95042 36.0599 7.42132 36.1944 6.89222C36.4632 5.78593 37.2331 5.19671 38.3819 5.18468C38.7485 5.18468 39.1152 5.16063 39.4818 5.18468C40.5328 5.28088 41.4249 5.14861 42.1826 4.24674C42.7448 3.57334 43.6369 3.58536 44.4191 4.04231C44.8713 4.30686 45.3234 4.58343 45.739 4.90811C46.2156 5.29291 46.6433 5.36506 47.2177 5.06443C47.5477 4.89608 47.731 4.72773 47.7799 4.37901C47.841 3.97016 47.9754 3.56131 48.0121 3.14044C48.1098 2.16642 48.562 1.44492 49.4908 1.06012C50.4685 1.06012 51.4462 1.06012 52.4238 1.06012C53.3404 1.4329 53.8048 2.11832 53.9026 3.08032C53.9515 3.53726 54.1103 3.98219 54.1715 4.43914C54.2203 4.77583 54.4281 4.89608 54.7092 5.06443C55.2958 5.40113 55.7602 5.26886 56.249 4.88406C56.6279 4.58343 57.0556 4.33091 57.4589 4.07839C58.2655 3.58536 59.0476 3.62144 59.7687 4.22269C60.3186 4.69166 60.8441 5.20873 61.3207 5.74985C61.944 6.45933 61.9807 7.22892 61.4674 8.02257C61.1252 8.56369 60.7463 9.09279 60.3797 9.62189C60.2697 9.79024 60.1475 9.93454 60.2331 10.163C60.453 10.7763 60.673 11.3535 61.5163 11.3294C61.834 11.3174 62.1518 11.4858 62.4695 11.5098C63.4594 11.582 64.1316 12.075 64.5226 12.9648C64.596 13.9388 64.596 14.9008 64.596 15.8628ZM50.7129 12.3516C50.7129 12.1952 50.5907 12.1351 50.5052 12.0509C50.1141 11.6661 49.7108 11.3054 49.3442 10.8965C49.0997 10.62 48.9042 10.644 48.6231 10.8364C47.7554 11.4256 46.8633 11.9908 45.9956 12.58C45.5679 12.8686 45.1401 12.9047 44.688 12.6522C43.9547 12.2554 43.197 11.9307 42.3904 11.7142C41.8893 11.582 41.6205 11.2453 41.5227 10.7402C41.3272 9.71809 41.095 8.70799 40.9117 7.68587C40.8506 7.34917 40.7039 7.20487 40.3495 7.22892C39.8362 7.25297 39.3352 7.265 38.8219 7.22892C38.4552 7.20487 38.333 7.33715 38.2597 7.67385C38.0642 8.69597 37.832 9.70606 37.6364 10.7282C37.5387 11.2573 37.2454 11.594 36.7199 11.7383C35.9377 11.9547 35.18 12.2554 34.4712 12.6522C34.019 12.9047 33.5913 12.8806 33.1636 12.592C32.6992 12.2674 32.2225 11.9547 31.7459 11.6541C31.196 11.3174 30.6582 10.62 30.1205 10.7282C29.5828 10.8364 29.1917 11.5699 28.7029 11.9908C28.4096 12.2433 28.4707 12.4237 28.6662 12.6882C29.2528 13.53 29.815 14.3838 30.4016 15.2255C30.7316 15.6945 30.756 16.1514 30.4749 16.6324C30.0839 17.3179 29.7783 18.0394 29.5584 18.7849C29.3995 19.338 29.0329 19.6146 28.4829 19.7108C27.9452 19.807 27.4075 19.9032 26.8697 20.0355C26.2465 20.1918 25.3788 20.0235 25.0732 20.5405C24.7922 21.0215 25.0121 21.7911 24.9877 22.4285C24.9755 22.7291 25.0855 22.8373 25.391 22.8854C26.3687 23.0538 27.3464 23.2822 28.324 23.4506C29.0329 23.5708 29.4606 23.9075 29.6317 24.605C29.8028 25.2904 30.0961 25.9277 30.4505 26.541C30.7438 27.0581 30.7194 27.515 30.3772 27.996C29.7906 28.8378 29.2284 29.7035 28.6296 30.5333C28.4218 30.8339 28.4462 31.0022 28.7029 31.2307C29.0817 31.5674 29.4484 31.9161 29.7783 32.2889C30.0472 32.5895 30.2427 32.5414 30.536 32.337C31.3793 31.7478 32.2592 31.2067 33.1147 30.6295C33.5424 30.3409 33.9579 30.2807 34.4223 30.5333C35.1678 30.9421 35.9622 31.2548 36.781 31.4953C37.2331 31.6275 37.5142 31.9041 37.5998 32.3731C37.7098 32.9383 37.8198 33.5155 37.9542 34.0806C38.1008 34.6939 37.9786 35.5597 38.4308 35.8723C38.883 36.173 39.6896 35.9445 40.3373 35.9806C40.7161 36.0046 40.8261 35.8363 40.8872 35.5116C41.0705 34.5256 41.3027 33.5515 41.4738 32.5655C41.5838 31.9282 41.9382 31.5674 42.5493 31.4111C43.2581 31.2307 43.9303 30.9421 44.5657 30.5814C45.079 30.2928 45.5556 30.3048 46.0445 30.6415C46.9122 31.2307 47.8043 31.7959 48.672 32.3851C48.9042 32.5414 49.0631 32.5775 49.2831 32.349C49.6497 31.9522 50.0408 31.5674 50.444 31.1946C50.6885 30.9662 50.6885 30.7978 50.5052 30.5333C49.9185 29.7156 49.3808 28.8618 48.7942 28.0441C48.4154 27.527 48.3665 27.046 48.6964 26.4929C49.0631 25.8916 49.3564 25.2423 49.5152 24.5569C49.6863 23.8715 50.1019 23.5588 50.774 23.4386C51.7761 23.2582 52.766 23.0297 53.7682 22.8614C54.0737 22.8133 54.1715 22.693 54.1715 22.3924C54.1592 21.8753 54.147 21.3462 54.1715 20.8291C54.1837 20.4804 54.0492 20.3361 53.707 20.276C52.6805 20.0956 51.6784 19.8671 50.6518 19.6868C50.0896 19.5906 49.723 19.314 49.5764 18.7729C49.3564 18.0033 49.0509 17.2577 48.6476 16.5603C48.3909 16.1154 48.4154 15.6945 48.7087 15.2736C49.3075 14.4198 49.8819 13.542 50.4685 12.6762C50.5663 12.58 50.6396 12.4598 50.7129 12.3516ZM52.045 8.25104C53.5971 8.23902 55.8824 9.62189 56.8356 11.7864C57.8866 14.1673 57.5811 16.3919 55.8946 18.4121C55.6624 18.6887 55.528 18.857 55.8335 19.1817C56.1268 19.4944 56.3101 19.9273 56.2368 20.3481C56.0657 21.2981 56.579 21.7791 57.3367 22.1519C57.4222 22.2 57.5078 22.2601 57.5933 22.3202C58.5955 22.9816 58.571 22.9576 59.4265 22.1399C59.6953 21.8753 59.6587 21.707 59.4754 21.4424C59.0354 20.8412 58.6321 20.2159 58.2044 19.6026C57.9111 19.1817 57.8989 18.7488 58.1311 18.3039C58.2288 18.1115 58.3999 17.9191 58.4244 17.7147C58.6932 16.0312 59.8787 15.5742 61.3818 15.3939C62.5795 15.2496 62.5551 15.1774 62.5062 13.9869C62.494 13.6863 62.3962 13.5781 62.1029 13.53C61.3452 13.3977 60.5875 13.2294 59.8298 13.0851C59.3165 12.9889 58.9865 12.7123 58.8399 12.2193C58.6566 11.618 58.4121 11.0529 58.1188 10.5117C57.8744 10.0668 57.8866 9.63391 58.1922 9.21304C58.4855 8.80419 58.7543 8.38332 59.0476 7.96244C59.732 6.95235 59.7198 6.96437 58.8399 6.12263C58.5954 5.88213 58.4366 5.90618 58.1799 6.08655C57.5689 6.51945 56.9334 6.90425 56.3101 7.32512C55.8824 7.61372 55.4547 7.66182 54.9903 7.42132C54.4159 7.10867 53.817 6.86817 53.1938 6.6878C52.7172 6.55553 52.4483 6.23085 52.3627 5.74985C52.265 5.22076 52.155 4.69166 52.0328 4.16256C51.8006 3.06829 51.8006 3.08032 50.6762 3.09234C50.3341 3.09234 50.1752 3.16449 50.1263 3.53726C50.0163 4.28281 49.8208 5.02836 49.6741 5.7739C49.5764 6.2549 49.2953 6.55553 48.8186 6.69982C48.2076 6.8802 47.6332 7.10867 47.0833 7.4093C46.6189 7.66182 46.1667 7.63777 45.7145 7.32512C45.1401 6.91627 44.5413 6.53148 43.9425 6.1587C43.7836 6.0625 43.6125 5.76188 43.3803 5.97833C43.1237 6.23085 42.7204 6.3992 42.8426 6.89222C43.0503 7.77005 43.2214 8.64787 43.4047 9.53771C43.4292 9.66999 43.417 9.83834 43.5758 9.89846C44.1013 10.1149 44.6024 10.4155 45.1523 10.5117C45.519 10.5839 45.8367 10.1991 46.13 9.95859C47.5965 8.76812 49.3075 8.28712 52.045 8.25104ZM51.8861 10.4636C52.0206 10.6079 52.0817 10.6801 52.1428 10.7522C53.0105 11.7022 53.0716 12.556 52.3627 13.6262C52.0694 14.0591 51.825 14.5281 51.4828 14.9249C50.8596 15.6344 50.7251 16.3078 51.2262 17.1615C51.605 17.8109 52.7294 18.2558 53.4015 17.847C54.7825 17.0052 55.5524 15.3578 55.308 13.7705C55.0269 12.075 53.5604 10.6079 51.8861 10.4636Z" fill="#383838"/>
<path d="M39.494 38.0849C39.1152 38.0849 38.7363 38.0729 38.3453 38.0609C37.1843 38.0248 36.4388 37.3995 36.1944 36.2692L36.1577 36.0768C35.9988 35.3433 35.84 34.5977 35.7177 33.8522C35.6566 33.5034 35.4978 33.3591 35.1678 33.1547C34.2879 32.6256 33.518 32.7098 32.6869 33.4433C32.357 33.7319 31.9781 33.9604 31.6115 34.1768C31.5137 34.237 31.4159 34.2971 31.3182 34.3572C30.4138 34.9104 29.4239 34.8262 28.654 34.1408C28.0185 33.5756 27.4075 32.9743 26.8331 32.3611C26.0876 31.5554 26.0143 30.5934 26.6375 29.6434C27.1142 28.9099 27.6152 28.1764 28.1285 27.4429C28.2752 27.2384 28.2507 27.0821 28.1896 26.8296C27.9452 25.7594 27.273 25.2303 26.0754 25.1581C25.5132 25.122 24.951 24.9777 24.34 24.7974C23.4356 24.5448 22.8735 23.7993 22.849 22.8734C22.8246 22.0196 22.8246 21.1538 22.849 20.288C22.8735 19.314 23.509 18.5444 24.4622 18.328C25.3788 18.1115 26.3198 17.9191 27.273 17.7628C27.5419 17.7147 27.6274 17.5824 27.7619 17.366L27.7863 17.3299C28.3729 16.416 28.2752 15.5863 27.4808 14.7325C27.1875 14.4198 26.9553 14.035 26.7353 13.6623C26.6864 13.5781 26.6375 13.5059 26.5887 13.4218C26.0265 12.5199 26.1243 11.5699 26.8453 10.8124C27.3708 10.2472 27.9574 9.68201 28.6173 9.06874C29.4239 8.32319 30.426 8.22699 31.3793 8.82824C31.9659 9.20101 32.748 9.70606 33.5057 10.2352C33.7868 10.4276 34.0068 10.4276 34.3857 10.3314C35.3756 10.0788 35.8399 9.50164 35.9133 8.44344C35.9377 7.99852 36.0477 7.5536 36.1577 7.1207C36.1821 7.0245 36.2066 6.94032 36.2188 6.84412C36.4877 5.7258 37.282 5.10051 38.4675 5.08848C38.5775 5.08848 38.6752 5.08848 38.7852 5.08848C39.0419 5.07646 39.3107 5.07646 39.5796 5.10051C40.4962 5.18468 41.4372 5.12456 42.2193 4.18661C42.7693 3.53726 43.6492 3.45309 44.5291 3.97016C45.0179 4.25876 45.4579 4.52331 45.8489 4.84798C46.3256 5.23278 46.7411 5.26886 47.2666 5.00431C47.5721 4.84798 47.7432 4.70368 47.7921 4.36699C47.8165 4.19864 47.8532 4.01826 47.8899 3.84991C47.9387 3.60941 47.9998 3.36891 48.0243 3.12842C48.1221 2.09427 48.6231 1.39682 49.5397 1.01202H52.5216C53.426 1.37277 53.927 2.04617 54.037 3.08032C54.0615 3.32081 54.1226 3.57334 54.1715 3.80181C54.2203 4.00624 54.2692 4.22269 54.2937 4.42711C54.3425 4.73976 54.5259 4.84798 54.8069 5.00431C55.3202 5.30493 55.748 5.24481 56.2735 4.82393C56.6156 4.55938 56.9823 4.33091 57.3489 4.10244L57.4956 4.00624C58.3388 3.48916 59.1576 3.54929 59.8787 4.16256C60.4286 4.64356 60.9541 5.16063 61.4307 5.70175C62.0662 6.42325 62.1151 7.20487 61.5896 8.04662C61.3574 8.40737 61.113 8.76812 60.8686 9.11684C60.7463 9.29721 60.6241 9.46556 60.5019 9.64594L60.4775 9.68201C60.3797 9.82631 60.2942 9.94656 60.3553 10.139C60.563 10.7282 60.7708 11.2934 61.5774 11.2573C61.7607 11.2573 61.944 11.3054 62.1151 11.3535C62.2495 11.3896 62.3962 11.4377 62.5306 11.4497C63.5327 11.5339 64.2416 12.0269 64.6326 12.9408V15.8749C64.2538 16.7767 63.545 17.2698 62.4573 17.366C62.2495 17.39 62.0296 17.4381 61.8218 17.4862C61.6385 17.5223 61.4552 17.5704 61.2596 17.5944C60.8808 17.6425 60.7219 17.8349 60.5386 18.1837C60.2819 18.6767 60.3186 19.0374 60.6852 19.4703C60.9663 19.819 61.223 20.2038 61.4552 20.5886L61.5774 20.781C62.0907 21.5867 62.0295 22.4405 61.4063 23.1259C60.9174 23.667 60.3919 24.1841 59.842 24.6531C59.1943 25.2303 58.3633 25.3024 57.5689 24.8575C57.4345 24.7733 57.2878 24.6891 57.1656 24.605C57.1167 24.5689 57.0556 24.5328 57.0067 24.4967C56.909 24.4366 56.8112 24.3645 56.7256 24.2923C56.5179 24.136 56.3223 23.9797 56.1024 23.9436C55.9313 23.9075 55.8213 24.0518 55.6991 24.2202C55.6135 24.3404 55.528 24.4607 55.4058 24.5328C55.088 24.7252 54.7703 24.8455 54.4281 24.9176C54.1226 24.9777 53.817 25.0379 53.5115 25.086C53.3404 25.122 53.1571 25.1461 52.986 25.1822C51.5195 25.4587 51.5195 25.4587 50.9329 26.8055L50.9207 26.8296C50.8229 27.0701 50.8351 27.2264 50.9696 27.4308C51.5439 28.2365 52.0083 28.9219 52.4361 29.5713C53.1204 30.6295 53.0349 31.5674 52.1428 32.4693C51.5562 33.0585 51.0551 33.5636 50.5418 34.0446C49.7108 34.8262 48.7087 34.9224 47.7432 34.3091C46.9733 33.8281 46.24 33.3471 45.5556 32.8781C45.299 32.6978 45.0912 32.7338 44.7735 32.818C43.7225 33.0705 43.2459 33.6718 43.197 34.7781C43.1848 35.223 43.0626 35.6799 42.9404 36.1128C42.9159 36.2211 42.8792 36.3293 42.8548 36.4375C42.6104 37.3995 41.8771 38.0128 40.8872 38.0489C40.4595 38.0729 39.9829 38.0849 39.494 38.0849ZM34.0801 32.6978C34.4468 32.6978 34.8256 32.818 35.2289 33.0585C35.5833 33.275 35.7788 33.4433 35.84 33.8401C35.9622 34.5857 36.121 35.3312 36.2799 36.0647L36.3166 36.2571C36.5488 37.3274 37.2454 37.9166 38.3453 37.9527C39.2374 37.9767 40.0929 37.9767 40.8994 37.9406C41.8282 37.8925 42.5248 37.3274 42.757 36.4135C42.7815 36.3052 42.8181 36.197 42.8426 36.0888C42.9526 35.6559 43.0748 35.223 43.0992 34.7781C43.1481 33.6237 43.6736 32.9743 44.7735 32.7098C45.1279 32.6256 45.3601 32.5895 45.6534 32.794C46.3378 33.2629 47.071 33.7439 47.8288 34.2249C48.7453 34.8021 49.6863 34.718 50.4807 33.9724C50.994 33.4914 51.495 32.9984 52.0817 32.4092C52.9371 31.5434 53.0227 30.6776 52.3505 29.6555C51.9228 29.0061 51.4584 28.3207 50.884 27.515C50.7129 27.2745 50.7007 27.0821 50.8229 26.7935L50.8351 26.7695C51.4339 25.3746 51.4584 25.3625 52.9738 25.0739C53.1449 25.0379 53.3282 25.0138 53.4993 24.9777C53.8048 24.9176 54.1103 24.8695 54.4159 24.8094C54.7458 24.7493 55.0514 24.617 55.3569 24.4366C55.4546 24.3765 55.5402 24.2683 55.6135 24.16C55.748 23.9797 55.8824 23.7873 56.139 23.8354C56.3834 23.8835 56.6034 24.0518 56.8112 24.2081C56.8967 24.2803 56.9945 24.3524 57.08 24.4126C57.1289 24.4486 57.19 24.4847 57.2389 24.5208C57.3733 24.605 57.5078 24.7012 57.6422 24.7733C58.3877 25.1942 59.1698 25.122 59.7809 24.5929C60.3186 24.112 60.8441 23.6069 61.333 23.0658C61.9196 22.4164 61.9807 21.6348 61.4918 20.8652L61.3696 20.6728C61.1374 20.3 60.893 19.9152 60.6119 19.5665C60.2208 19.0975 60.1842 18.6767 60.453 18.1476C60.6486 17.7748 60.8441 17.5463 61.2718 17.4862C61.4552 17.4622 61.6385 17.4261 61.8218 17.378C62.0296 17.3299 62.2495 17.2818 62.4695 17.2577C63.4961 17.1615 64.1682 16.7046 64.5349 15.8508V12.9889C64.156 12.1111 63.5083 11.6541 62.5428 11.582C62.3962 11.5699 62.2495 11.5339 62.1029 11.4858C61.9318 11.4377 61.7607 11.3896 61.6018 11.3896C60.7097 11.4136 60.4775 10.7883 60.2575 10.1871C60.172 9.94656 60.2819 9.77821 60.3919 9.62189L60.4164 9.58581C60.5386 9.40544 60.6608 9.23709 60.783 9.05671C61.0274 8.70799 61.2719 8.34724 61.5041 7.98649C62.0051 7.20487 61.9562 6.45933 61.3574 5.78593C60.8808 5.24481 60.3675 4.73976 59.8053 4.25876C59.121 3.66954 58.3755 3.62144 57.5689 4.11446L57.4222 4.21066C57.0678 4.42711 56.689 4.65558 56.359 4.92013C55.7968 5.37708 55.308 5.42518 54.7581 5.11253C54.477 4.94418 54.2448 4.81191 54.1959 4.45116C54.1714 4.24674 54.1226 4.03029 54.0737 3.83789C54.0126 3.59739 53.9637 3.34486 53.927 3.10437C53.817 2.13034 53.3526 1.49302 52.4972 1.1443H49.5886C48.7209 1.50505 48.2565 2.17844 48.1587 3.17652C48.1343 3.42904 48.0854 3.66954 48.0243 3.91004C47.9876 4.07839 47.951 4.24674 47.9265 4.41509C47.8654 4.78786 47.6577 4.96823 47.3277 5.13658C46.7533 5.42518 46.3011 5.37708 45.7756 4.96823C45.3846 4.65558 44.9446 4.39104 44.468 4.10244C43.6492 3.60941 42.8181 3.68156 42.3171 4.28281C41.4983 5.26886 40.5084 5.31696 39.5674 5.24481C39.3107 5.22076 39.0419 5.23278 38.7852 5.23278C38.6752 5.23278 38.5775 5.23278 38.4675 5.23278C37.3554 5.24481 36.5977 5.83403 36.341 6.89222C36.3166 6.98842 36.2921 7.0726 36.2799 7.1688C36.1699 7.6017 36.0599 8.03459 36.0355 8.47952C35.9622 9.59784 35.4611 10.2111 34.4223 10.4757C34.019 10.5719 33.7624 10.5839 33.4446 10.3674C32.6869 9.83834 31.9048 9.34531 31.3182 8.96052C30.426 8.39534 29.4728 8.47952 28.7151 9.18899C28.0552 9.80226 27.4808 10.3674 26.9431 10.9326C26.2587 11.6541 26.1731 12.556 26.6986 13.3977C26.7475 13.4819 26.7964 13.554 26.8453 13.6382C27.0653 13.999 27.2975 14.3717 27.5786 14.6844C28.4096 15.5863 28.5196 16.4521 27.8963 17.4261L27.8719 17.4622C27.7374 17.6786 27.6274 17.859 27.2975 17.9071C26.3565 18.0634 25.4032 18.2558 24.4989 18.4722C23.5945 18.6887 22.9957 19.4102 22.9835 20.3241C22.959 21.1899 22.959 22.0557 22.9835 22.9095C23.0079 23.7993 23.5334 24.4727 24.3889 24.7132C24.9999 24.8936 25.5499 25.0379 26.0998 25.0619C27.3586 25.1341 28.0674 25.6872 28.324 26.8176C28.3851 27.0941 28.4096 27.2865 28.2507 27.527C27.7374 28.2485 27.2364 28.9941 26.7597 29.7276C26.1731 30.6295 26.2342 31.5313 26.9431 32.2889C27.5174 32.9022 28.1285 33.5034 28.7518 34.0686C29.485 34.73 30.4016 34.8021 31.2693 34.273C31.3671 34.2129 31.4648 34.1528 31.5626 34.0927C31.9292 33.8762 32.3081 33.6477 32.6258 33.3712C33.1024 32.9142 33.5913 32.6978 34.0801 32.6978ZM39.1396 36.0768C38.8585 36.0768 38.6019 36.0407 38.4064 35.9084C38.0764 35.68 38.0275 35.1869 37.9908 34.718C37.9664 34.5015 37.9542 34.273 37.9053 34.0806C37.7831 33.5876 37.6853 33.0705 37.5876 32.5775L37.5509 32.3731C37.4653 31.9402 37.2087 31.6756 36.781 31.5434C35.9499 31.3029 35.1434 30.9662 34.4101 30.5693C33.9946 30.3409 33.5913 30.3769 33.1636 30.6655C32.7725 30.9301 32.3692 31.1946 31.9659 31.4592C31.5015 31.7598 31.0371 32.0725 30.5727 32.3851C30.2672 32.6016 30.0228 32.6617 29.7294 32.325C29.4361 31.9883 29.094 31.6396 28.654 31.2668C28.3607 31.0143 28.3363 30.7978 28.5685 30.4852C28.8984 30.0282 29.2284 29.5352 29.5461 29.0783C29.7906 28.7055 30.0594 28.3207 30.3161 27.9479C30.646 27.491 30.6582 27.046 30.3772 26.553C29.9617 25.8195 29.6928 25.2062 29.5461 24.605C29.3873 23.9556 28.9962 23.6189 28.2874 23.4987C27.7619 23.4145 27.2364 23.3063 26.7231 23.1981C26.2709 23.1019 25.8187 23.0177 25.3543 22.9335C25.0121 22.8734 24.8899 22.7291 24.9022 22.4164C24.9144 22.212 24.8899 21.9835 24.8777 21.7671C24.841 21.3101 24.8044 20.8412 24.9999 20.5045C25.2199 20.1317 25.7087 20.0956 26.1976 20.0595C26.4176 20.0475 26.6375 20.0235 26.8331 19.9754C27.3464 19.8431 27.8719 19.7469 28.3851 19.6627L28.4462 19.6507C28.9962 19.5545 29.3262 19.2659 29.4728 18.7729C29.6928 18.0153 29.9983 17.2818 30.3894 16.6084C30.6582 16.1514 30.6338 15.7185 30.3161 15.2616C30.0228 14.8527 29.7417 14.4319 29.4728 14.023C29.1795 13.5901 28.8862 13.1452 28.5807 12.7243C28.4096 12.4718 28.2874 12.2433 28.6296 11.9427C28.8007 11.7984 28.9595 11.618 29.1062 11.4377C29.3995 11.101 29.705 10.7402 30.0716 10.6681C30.4749 10.5839 30.866 10.9086 31.2326 11.2212C31.4037 11.3655 31.5748 11.4978 31.7459 11.606C32.2592 11.9187 32.748 12.2554 33.1636 12.5439C33.5791 12.8325 33.9701 12.8446 34.4101 12.6041C35.1189 12.2073 35.8766 11.8946 36.671 11.6782C37.1598 11.5459 37.4409 11.2332 37.5387 10.7162C37.6364 10.2231 37.7342 9.73011 37.832 9.26114C37.942 8.73204 38.052 8.19092 38.1497 7.66182C38.223 7.27702 38.3941 7.14475 38.773 7.1688C39.2252 7.19285 39.7262 7.20487 40.2884 7.1688C40.655 7.14475 40.8383 7.30107 40.9117 7.68587C41.0094 8.23902 41.1316 8.81622 41.2416 9.35734C41.3394 9.81429 41.4372 10.2833 41.5227 10.7402C41.6205 11.2453 41.8893 11.5459 42.3537 11.6782C43.1359 11.8826 43.8936 12.1952 44.6757 12.6161C45.1035 12.8446 45.5068 12.8325 45.9223 12.5439C46.3256 12.2794 46.7289 12.0149 47.1199 11.7503C47.5966 11.4377 48.0854 11.125 48.5498 10.8003C48.8309 10.6079 49.0631 10.5478 49.3442 10.8725C49.6008 11.1611 49.8819 11.4256 50.1507 11.6902C50.273 11.7984 50.3829 11.9187 50.5052 12.0269C50.5174 12.0389 50.5418 12.063 50.554 12.075C50.6274 12.1351 50.7251 12.2193 50.7251 12.3756V12.3876L50.6518 12.4958C50.6029 12.568 50.5418 12.6522 50.4929 12.7363C50.3341 12.9768 50.163 13.2173 50.0041 13.4699C49.5886 14.0831 49.1608 14.7205 48.7331 15.3337C48.4398 15.7426 48.4276 16.1394 48.672 16.5603C49.0753 17.2698 49.393 18.0273 49.613 18.7849C49.7474 19.2779 50.0774 19.5545 50.6518 19.6627C51.1284 19.7469 51.6173 19.8431 52.0817 19.9393C52.6194 20.0475 53.1693 20.1557 53.707 20.2519C54.0981 20.3241 54.2448 20.4924 54.2203 20.8652C54.1959 21.4184 54.2081 21.9595 54.2203 22.4285C54.2326 22.7531 54.1103 22.8974 53.7682 22.9576C53.2549 23.0417 52.7294 23.15 52.2283 23.2582C51.7517 23.3544 51.2628 23.4506 50.774 23.5348C50.0896 23.655 49.7108 23.9917 49.5641 24.605C49.4053 25.2423 49.1242 25.9037 48.7331 26.553C48.4276 27.0701 48.452 27.527 48.8309 28.0441C49.1608 28.489 49.4664 28.958 49.7719 29.415C50.0163 29.7877 50.2729 30.1605 50.5418 30.5333C50.7496 30.8339 50.7373 31.0383 50.4685 31.2668C50.053 31.6396 49.6619 32.0244 49.3075 32.4092C49.0631 32.6737 48.8675 32.6256 48.6231 32.4573C48.2076 32.1807 47.7921 31.9041 47.3888 31.6396C46.9244 31.3389 46.46 31.0263 45.9956 30.7136C45.519 30.389 45.0912 30.3769 44.5902 30.6535C43.918 31.0263 43.2337 31.3149 42.5493 31.4832C41.9504 31.6396 41.6205 31.9883 41.5227 32.5895C41.4249 33.1908 41.2905 33.792 41.1683 34.3692C41.0828 34.754 41.0094 35.1388 40.9361 35.5357C40.875 35.8603 40.7406 36.0768 40.3128 36.0527C40.0929 36.0407 39.8607 36.0527 39.6285 36.0768C39.4696 36.0647 39.2985 36.0768 39.1396 36.0768ZM33.8479 30.3048C34.0435 30.3048 34.2512 30.3649 34.4468 30.4731C35.18 30.87 35.9622 31.1946 36.7932 31.4351C37.282 31.5794 37.5631 31.8801 37.6487 32.3611L37.6853 32.5655C37.7831 33.0585 37.8809 33.5756 38.0031 34.0686C38.0519 34.273 38.0764 34.5015 38.0886 34.718C38.1253 35.1869 38.1742 35.6319 38.4552 35.8242C38.7363 36.0166 39.1641 35.9806 39.6162 35.9445C39.8484 35.9325 40.0929 35.9084 40.3251 35.9204C40.6672 35.9445 40.7528 35.8002 40.8139 35.4996C40.8872 35.1148 40.9728 34.718 41.0461 34.3332C41.1683 33.756 41.2905 33.1547 41.4005 32.5535C41.5105 31.9041 41.8649 31.5193 42.5248 31.351C43.197 31.1826 43.8691 30.906 44.5291 30.5333C45.0668 30.2326 45.5556 30.2447 46.0689 30.5934C46.5333 30.906 46.9977 31.2187 47.4621 31.5193C47.8654 31.7839 48.2931 32.0604 48.6964 32.337C48.9164 32.4813 49.0386 32.5174 49.2219 32.313C49.5764 31.9282 49.9674 31.5313 50.3952 31.1586C50.6151 30.9662 50.6274 30.8339 50.444 30.5814C50.1874 30.2086 49.9308 29.8238 49.6741 29.4631C49.3686 29.0061 49.0509 28.5492 48.7331 28.0922C48.3298 27.5391 48.3054 27.022 48.6353 26.4688C49.0264 25.8315 49.2953 25.1822 49.4541 24.5569C49.6252 23.8835 50.0285 23.5227 50.7618 23.3905C51.2506 23.3063 51.7395 23.2101 52.2039 23.1139C52.7049 23.0177 53.2304 22.9095 53.7437 22.8133C54.0248 22.7652 54.0981 22.669 54.0981 22.4044C54.0859 21.9475 54.0737 21.3943 54.0981 20.8412C54.1103 20.5285 54.0126 20.4083 53.6826 20.3481C53.1327 20.2519 52.5827 20.1437 52.0572 20.0355C51.5928 19.9393 51.104 19.8431 50.6274 19.7589C50.0163 19.6507 49.6497 19.338 49.503 18.7969C49.2953 18.0393 48.9775 17.3058 48.5742 16.5964C48.3054 16.1274 48.3298 15.6825 48.6476 15.2375C49.0753 14.6243 49.503 13.9869 49.9185 13.3737C50.0774 13.1332 50.2485 12.8927 50.4074 12.6401C50.4685 12.556 50.5174 12.4718 50.5663 12.3996L50.6151 12.3155C50.6029 12.2313 50.554 12.1832 50.4929 12.1231C50.4685 12.1111 50.4563 12.087 50.4318 12.075C50.3218 11.9668 50.1996 11.8465 50.0774 11.7383C49.8086 11.4737 49.5153 11.2092 49.2586 10.9206C49.0509 10.6921 48.9042 10.6801 48.6231 10.8725C48.1465 11.1972 47.6577 11.5098 47.1933 11.8225C46.8022 12.075 46.3867 12.3515 45.9956 12.6161C45.5434 12.9287 45.0912 12.9528 44.6146 12.7003C43.8447 12.2794 43.0992 11.9788 42.3293 11.7744C41.8282 11.6421 41.5227 11.2934 41.4127 10.7522C41.3272 10.2953 41.2294 9.82631 41.1316 9.36936C41.0217 8.81622 40.8994 8.25104 40.8017 7.6979C40.7406 7.37322 40.6184 7.265 40.3006 7.28905C39.7262 7.3131 39.2252 7.3131 38.773 7.28905C38.4552 7.265 38.3453 7.3612 38.2842 7.68587C38.1864 8.22699 38.0642 8.76812 37.9542 9.28519C37.8564 9.76619 37.7464 10.2592 37.6609 10.7402C37.5509 11.3054 37.2331 11.6421 36.6954 11.7984C35.9133 12.0149 35.1556 12.3275 34.459 12.7123C33.9824 12.9768 33.5302 12.9528 33.078 12.6401C32.6625 12.3515 32.1737 12.0149 31.6604 11.7022C31.4771 11.594 31.306 11.4497 31.1349 11.3054C30.7682 11.0048 30.4138 10.7162 30.0716 10.7763C29.7417 10.8364 29.4606 11.1611 29.1673 11.4978C29.0084 11.6782 28.8495 11.8706 28.6784 12.0149C28.434 12.2313 28.4585 12.3636 28.654 12.6281C28.9595 13.061 29.2528 13.5059 29.5461 13.9268C29.815 14.3357 30.1083 14.7565 30.3894 15.1654C30.7316 15.6584 30.756 16.1394 30.4749 16.6324C30.0839 17.2938 29.7906 18.0153 29.5706 18.7729C29.4117 19.326 29.0573 19.6266 28.4462 19.7349L28.3851 19.7469C27.8719 19.8431 27.3464 19.9393 26.8331 20.0595C26.6253 20.1076 26.3931 20.1317 26.1731 20.1437C25.7087 20.1798 25.2688 20.2159 25.0732 20.5285C24.8899 20.8412 24.9266 21.262 24.9633 21.719C24.9755 21.9354 24.9999 22.1639 24.9877 22.3804C24.9755 22.6449 25.0488 22.7291 25.3299 22.7772C25.7821 22.8614 26.2465 22.9455 26.6986 23.0417C27.2119 23.15 27.7374 23.2582 28.2629 23.3424C29.0206 23.4626 29.4484 23.8474 29.6195 24.5328C29.7661 25.122 30.0228 25.7233 30.4383 26.4448C30.7438 26.9739 30.7194 27.4669 30.3649 27.9599C30.1083 28.3327 29.8394 28.7175 29.595 29.0903C29.2773 29.5593 28.9595 30.0403 28.6173 30.5092C28.4218 30.7738 28.434 30.9181 28.6907 31.1345C29.1306 31.5193 29.485 31.868 29.7783 32.2047C30.0105 32.4813 30.1694 32.4452 30.4505 32.2408C30.9149 31.9282 31.3793 31.6155 31.8437 31.3149C32.2348 31.0624 32.638 30.7978 33.0291 30.5333C33.3469 30.389 33.6035 30.3048 33.8479 30.3048ZM58.5343 22.8373C58.3021 22.8373 58.0455 22.669 57.5689 22.3563C57.5444 22.3323 57.5078 22.3202 57.4833 22.2962C57.4222 22.2601 57.3734 22.224 57.3245 22.188C56.6645 21.8633 56.0046 21.3943 56.1879 20.3241C56.249 19.9513 56.1024 19.5304 55.7968 19.2058C55.4547 18.845 55.6257 18.6406 55.8457 18.364C57.52 16.3559 57.8255 14.1553 56.7745 11.7984C55.8091 9.63391 53.5726 8.29914 52.045 8.29914H52.0328C49.2831 8.33522 47.5721 8.82824 46.1545 10.0067C46.1056 10.0428 46.0567 10.0909 45.9956 10.139C45.739 10.3674 45.4579 10.632 45.1279 10.5598C44.7246 10.4877 44.3458 10.3073 43.9669 10.1269C43.8203 10.0668 43.6858 9.99466 43.5392 9.93454C43.3803 9.87441 43.3681 9.73011 43.3559 9.60986C43.3559 9.58581 43.3436 9.54974 43.3436 9.52569C43.2825 9.23709 43.2214 8.96052 43.1603 8.67192C43.0381 8.08269 42.9159 7.48145 42.7693 6.8802C42.6715 6.4473 42.9281 6.24288 43.1603 6.05048C43.2214 6.00238 43.2825 5.95428 43.3314 5.90618C43.5514 5.70175 43.7347 5.8701 43.8447 5.97833C43.8814 6.0144 43.918 6.05048 43.9547 6.07453C44.5657 6.4473 45.1646 6.84412 45.7267 7.24095C46.1545 7.54157 46.5822 7.56562 47.0344 7.32512C47.5843 7.0245 48.1709 6.784 48.782 6.60363C49.2342 6.47135 49.503 6.18275 49.5886 5.7258C49.6375 5.46126 49.6986 5.19671 49.7597 4.93216C49.8574 4.46318 49.9674 3.98219 50.0407 3.50119C50.1019 3.09234 50.3096 3.00817 50.6518 3.00817H50.6885C51.8128 2.99614 51.8372 3.02019 52.0694 4.12649L52.0939 4.27079C52.1916 4.73976 52.3016 5.23278 52.3872 5.71378C52.4727 6.18275 52.7416 6.48338 53.1815 6.60363C53.817 6.784 54.4159 7.03652 54.9903 7.33715C55.418 7.56562 55.8213 7.54157 56.2368 7.25297C56.5057 7.06057 56.799 6.8802 57.0678 6.69982C57.41 6.47135 57.7644 6.24288 58.1066 6.00238C58.3633 5.822 58.5588 5.7739 58.8399 6.03845L58.8765 6.07453C59.7442 6.90425 59.7442 6.94032 59.0599 7.96244C58.9865 8.07067 58.901 8.19092 58.8276 8.29914C58.6321 8.59977 58.4244 8.91242 58.2044 9.20101C57.9233 9.59784 57.8989 10.0067 58.1433 10.4396C58.461 11.0048 58.7054 11.582 58.8765 12.1592C59.011 12.6281 59.3165 12.8927 59.8175 12.9768C60.1475 13.037 60.4775 13.1091 60.8075 13.1692C61.223 13.2534 61.6629 13.3496 62.0907 13.4218C62.4206 13.4819 62.5428 13.6021 62.5551 13.9268V13.9869C62.5917 15.1534 62.5673 15.2496 61.3696 15.3939C59.0843 15.6704 58.6199 16.6445 58.461 17.6666C58.4366 17.8229 58.351 17.9552 58.2655 18.0875C58.2288 18.1476 58.1922 18.2077 58.1555 18.2678C57.9233 18.7127 57.9477 19.1096 58.2288 19.5064C58.4121 19.7709 58.5954 20.0355 58.7665 20.288C58.9987 20.6367 59.2432 20.9975 59.4998 21.3342C59.6953 21.6108 59.7442 21.8152 59.4509 22.1038L59.402 22.1519C58.9987 22.6449 58.7788 22.8373 58.5343 22.8373ZM52.0572 8.19092C53.6215 8.19092 55.9068 9.54974 56.8967 11.7623C57.96 14.1673 57.6422 16.416 55.9557 18.4482C55.7235 18.7248 55.6257 18.857 55.8946 19.1336C56.2246 19.4823 56.3835 19.9393 56.3101 20.3481C56.1757 21.1418 56.4934 21.6589 57.3733 22.0918C57.4345 22.1278 57.4956 22.1639 57.5567 22.212C57.5811 22.2361 57.6056 22.2481 57.63 22.2721C58.571 22.8854 58.571 22.8854 59.3409 22.1519L59.3898 22.1038C59.6342 21.8753 59.6098 21.743 59.4265 21.4905C59.1698 21.1418 58.9376 20.781 58.6932 20.4323C58.5221 20.1798 58.3388 19.9032 58.1555 19.6507C57.85 19.2178 57.8255 18.7729 58.0822 18.2919C58.1188 18.2317 58.1555 18.1596 58.1922 18.0995C58.2777 17.9672 58.351 17.847 58.3755 17.7147C58.6566 15.9109 59.9886 15.5141 61.3941 15.3458C62.5062 15.2135 62.5062 15.1894 62.4695 14.0591V13.999C62.4573 13.7344 62.384 13.6502 62.1151 13.6021C61.6874 13.53 61.2474 13.4458 60.8197 13.3496C60.5019 13.2775 60.1597 13.2173 59.842 13.1572C59.3043 13.061 58.9621 12.7604 58.8154 12.2554C58.6443 11.6782 58.3999 11.113 58.0944 10.5598C57.8378 10.0909 57.8622 9.63391 58.1677 9.20101C58.3755 8.90039 58.5832 8.59977 58.791 8.29914C58.8643 8.17889 58.9499 8.07067 59.0232 7.96244C59.6709 7.01247 59.6709 7.01247 58.8643 6.23085L58.8276 6.19478C58.6077 5.97833 58.4855 6.00238 58.2533 6.17073C57.9111 6.41123 57.5567 6.6397 57.2145 6.86817C56.9456 7.04855 56.6523 7.22892 56.3835 7.42132C55.9191 7.73397 55.4669 7.77004 55.0025 7.51752C54.4403 7.2169 53.8415 6.96437 53.2182 6.784C52.7294 6.6397 52.4361 6.31503 52.3383 5.79795C52.2528 5.31696 52.1428 4.82393 52.045 4.35496L52.0206 4.21066C51.8006 3.17652 51.8006 3.17652 50.7618 3.18854H50.7251C50.4074 3.18854 50.2852 3.24867 50.2363 3.58536C50.163 4.06636 50.053 4.55938 49.9552 5.02836C49.8941 5.29291 49.833 5.55745 49.7841 5.822C49.6863 6.32705 49.3808 6.65172 48.892 6.79602C48.2809 6.9764 47.7065 7.20487 47.1688 7.5055C46.68 7.77005 46.1911 7.746 45.7267 7.42132C45.1646 7.0245 44.5657 6.62767 43.9547 6.2549C43.9058 6.23085 43.8691 6.18275 43.8203 6.14668C43.6736 6.00238 43.5881 5.95428 43.4659 6.07453C43.4047 6.12263 43.3436 6.18275 43.2948 6.23085C43.0748 6.41123 42.8548 6.57958 42.9404 6.94032C43.087 7.52955 43.2092 8.14282 43.3314 8.73204C43.3925 9.02064 43.4536 9.29721 43.5147 9.58581C43.527 9.62189 43.527 9.64594 43.527 9.68201C43.5392 9.80226 43.5514 9.87441 43.6369 9.91049C43.7836 9.97061 43.9303 10.0428 44.0647 10.1029C44.4313 10.2712 44.8102 10.4516 45.189 10.5238C45.4579 10.5719 45.7267 10.3314 45.9589 10.1269C46.0078 10.0788 46.0689 10.0307 46.1178 9.99466C47.5599 8.79217 49.2831 8.28712 52.0694 8.25104C52.0572 8.19092 52.0572 8.19092 52.0572 8.19092ZM52.7783 18.0634C52.6438 18.0634 52.4972 18.0394 52.3383 18.0033C51.8372 17.883 51.3728 17.5584 51.1651 17.1856C50.6762 16.3438 50.7618 15.6344 51.4217 14.8768C51.6539 14.6122 51.8495 14.2996 52.045 13.999C52.1305 13.8667 52.2161 13.7224 52.3016 13.5901C53.0105 12.5319 52.9493 11.7263 52.0939 10.7883C52.0572 10.7402 52.0083 10.6921 51.9472 10.632L51.7273 10.3795L51.8861 10.3915C53.5848 10.5358 55.0636 11.9908 55.3447 13.7585C55.6013 15.3818 54.8314 17.0413 53.4137 17.8951C53.2427 18.0153 53.0227 18.0634 52.7783 18.0634ZM52.045 10.5358L52.0572 10.5478C52.1183 10.6079 52.155 10.656 52.1916 10.7041C53.0838 11.6782 53.1449 12.556 52.4116 13.6502C52.3261 13.7825 52.2405 13.9148 52.155 14.0591C51.9595 14.3597 51.7639 14.6844 51.5195 14.961C50.884 15.6825 50.8107 16.3318 51.2751 17.1255C51.4706 17.4742 51.9106 17.7628 52.375 17.883C52.7538 17.9792 53.096 17.9432 53.3649 17.7868C54.7336 16.9571 55.4913 15.3458 55.2347 13.7705C54.978 12.1592 53.5848 10.7643 52.045 10.5358Z" fill="#383838"/>
<path d="M36.6099 1.07215C36.7321 1.22847 36.9154 1.15632 37.0621 1.1924C37.5876 1.32467 37.9542 1.79365 37.9053 2.28667C37.8442 2.80374 37.4287 3.21259 36.8787 3.21259C36.3899 3.22462 35.9011 3.14044 35.4122 3.14044C31.7337 3.09234 28.1285 3.69359 24.5233 4.36699C22.1402 4.81191 19.7938 5.38911 17.6307 6.50743C13.8177 8.47952 11.6179 11.7503 10.3592 15.6704C9.63812 17.9191 9.12484 20.2279 8.06162 22.3563C7.69499 23.0898 7.80497 23.3544 8.45269 23.9316C9.01485 24.4246 9.60146 24.8936 9.93143 25.591C10.3103 26.4087 10.3225 27.2024 9.91921 28.0201C8.51379 30.882 6.8273 33.5636 4.84749 36.0647C3.85759 37.3274 3.83315 37.159 5.26301 38.0609C5.61742 38.2894 6.02071 38.4457 6.38734 38.6621C7.96385 39.5881 8.45269 41.0671 7.73165 42.7386C7.6461 42.943 7.53611 43.1354 7.43834 43.3278C7.02283 44.1335 7.01061 44.1335 7.76831 44.7107C7.86608 44.7828 7.96385 44.855 8.06162 44.9271C8.8071 45.4803 8.90486 45.9132 8.37936 46.6587C8.12272 47.0315 8.09828 47.2119 8.56268 47.4524C10.0659 48.246 10.628 49.665 10.1392 51.4567C9.88255 52.4066 9.93143 53.3085 10.2981 54.2224C10.6769 55.1724 11.5446 55.6173 12.5467 55.3768C17.5207 54.2104 22.2869 52.4187 27.1019 50.7713C28.0674 50.4466 28.9717 49.9776 29.7661 49.3403C30.4138 48.8112 30.8782 48.1979 30.9271 47.3201C30.976 46.5986 31.4404 46.2379 32.0881 46.286C32.6992 46.3341 33.0658 46.803 33.0169 47.5365C32.9314 49.1118 32.0514 50.2181 30.8416 51.12C29.4606 52.1541 27.8596 52.7313 26.2342 53.2724C25.4888 53.525 24.7555 53.7775 23.9489 54.0541C24.8166 55.0521 25.5621 56.0502 26.1609 57.1325C26.6864 58.0824 27.163 59.0564 27.4319 60.1146C27.5541 60.5956 27.823 60.6197 28.214 60.6197C34.8256 60.5836 41.4494 60.5596 48.061 60.5355C49.0753 60.5355 50.0774 60.5355 51.214 60.5355C50.3218 59.1767 49.6986 57.8419 49.2464 56.435C48.2443 53.2845 47.5721 50.0738 47.621 46.767C47.6821 42.2816 49.3319 38.3375 52.1305 34.8382C53.8293 32.6978 55.3447 30.4611 56.0046 27.7675C56.1635 27.1302 56.7501 26.8296 57.3122 26.9859C57.8744 27.1543 58.1555 27.6954 58.0088 28.3207C57.4833 30.6054 56.3835 32.6256 55.0025 34.5015C53.7926 36.1369 52.4972 37.7122 51.5562 39.5279C50.4563 41.6443 49.833 43.893 49.7597 46.2619C49.6497 50.3023 50.444 54.1743 52.0939 57.878C52.3505 58.4552 52.7049 58.9602 53.0349 59.4893C53.2915 59.8982 53.5482 60.307 53.7559 60.7399C54.257 61.7981 54.0615 62.2551 52.9616 62.6639C44.1258 62.6639 35.2778 62.6639 26.442 62.6639C26.0387 62.3994 25.8187 62.0386 25.6843 61.5697C25.3421 60.295 24.8288 59.0685 24.1933 57.9021C23.6556 56.928 23.0323 56.0262 22.1769 55.2806C21.8102 54.968 21.4803 54.8718 20.9792 55.0521C18.3395 56.0021 15.6509 56.7717 12.9256 57.409C11.2513 57.8059 9.50369 57.1325 8.66044 55.6895C7.92718 54.4148 7.65832 53.0319 7.95163 51.5769C8.29381 49.8093 8.31826 49.8213 6.79063 48.8473C5.94738 48.3061 5.62964 47.7289 5.97182 46.815C6.21624 46.1777 5.94738 45.9493 5.53187 45.6246C4.62752 44.9271 4.52975 44.398 5.00637 43.3759C5.1408 43.0993 5.29967 42.8468 5.44632 42.5823C6.24069 41.1633 6.14292 40.8387 4.70084 40.1172C3.56429 39.54 2.48884 38.9147 2.01222 37.64C2.01222 37.3153 2.01222 37.0027 2.01222 36.678C2.34219 36.0166 2.6966 35.3793 3.161 34.8021C4.89638 32.6737 6.38734 30.3769 7.60944 27.9359C8.25715 26.6372 8.58712 26.8416 7.1206 25.567C5.76407 24.3885 5.45854 23.186 6.1307 21.5386C6.71731 20.0956 7.43834 18.7007 7.75609 17.1615C8.00051 15.923 8.37936 14.7205 8.8682 13.554C10.958 8.62382 14.3799 5.07646 19.6716 3.46511C22.959 2.46704 26.3442 1.92592 29.7539 1.46897C30.7682 1.3367 31.807 1.34872 32.8214 1.10822C34.0801 1.07215 35.3511 1.07215 36.6099 1.07215Z" fill="#383838"/>
<path d="M52.9982 62.7H26.4542L26.442 62.688C26.0509 62.4355 25.8065 62.0747 25.6599 61.5576C25.3299 60.3191 24.8288 59.0925 24.1689 57.9021C23.5456 56.7717 22.9101 55.954 22.1647 55.3047C21.7858 54.98 21.4803 54.9199 21.0281 55.0882C18.5228 55.9901 15.8097 56.7837 12.9745 57.4451C11.2269 57.854 9.49147 57.1565 8.64822 55.6895C7.89052 54.3787 7.6461 52.9718 7.92719 51.5409L7.93941 51.4807C8.26937 49.8093 8.26937 49.8093 6.79063 48.8713C5.86184 48.2821 5.61742 47.6568 5.94738 46.767C6.16736 46.1777 5.9596 45.9733 5.53187 45.6486C4.62752 44.9392 4.49308 44.374 4.99414 43.3278C5.09191 43.1354 5.18968 42.943 5.29967 42.7626C5.34855 42.6905 5.38522 42.6063 5.4341 42.5342C5.80073 41.8728 5.99627 41.4159 5.88628 41.0792C5.77629 40.7425 5.373 40.4899 4.71306 40.1532C3.60095 39.6001 2.48884 38.9507 2 37.64V36.6419L2.01222 36.6299C2.31775 36.0287 2.67215 35.3433 3.17322 34.742C4.9086 32.6016 6.39956 30.2928 7.60944 27.8758C7.71943 27.6593 7.8172 27.4669 7.90274 27.3226C8.30604 26.6131 8.30604 26.6011 7.13282 25.579C5.75185 24.3765 5.44632 23.15 6.1307 21.4785C6.27735 21.1298 6.424 20.769 6.58288 20.4323C7.04727 19.3741 7.52389 18.2798 7.75609 17.1134C8.00051 15.8749 8.37936 14.6483 8.8682 13.4939C11.0924 8.22699 14.6365 4.90811 19.7082 3.36891C23.0323 2.35882 26.5275 1.80567 29.7906 1.36075C30.1694 1.31265 30.5605 1.27657 30.9393 1.25252C31.5748 1.20442 32.2225 1.15632 32.8458 1H36.671L36.6832 1.02405C36.7443 1.0962 36.8176 1.10822 36.9276 1.10822C36.9887 1.10822 37.0376 1.10822 37.0987 1.12025C37.6609 1.26455 38.0397 1.7696 37.9908 2.28667C37.9297 2.85184 37.4776 3.26069 36.9032 3.27271C36.6343 3.27271 36.3655 3.26069 36.1088 3.23664C35.8888 3.22462 35.6566 3.20057 35.4367 3.20057C31.6604 3.15247 27.9941 3.77776 24.56 4.42711C22.4335 4.82393 19.9526 5.38911 17.6795 6.55553C14.1843 8.35927 11.8012 11.3415 10.408 15.6825C10.2125 16.3078 10.017 16.9331 9.84588 17.5463C9.36926 19.1577 8.88042 20.8291 8.1105 22.3804C7.75609 23.0898 7.86608 23.3303 8.48935 23.8835L8.636 24.0158C9.14929 24.4607 9.66257 24.9176 9.96809 25.567C10.3714 26.4087 10.3592 27.2264 9.95587 28.0441C8.55046 30.906 6.85174 33.6117 4.88416 36.1008C4.82305 36.185 4.76195 36.2571 4.70084 36.3293C4.35865 36.7622 4.16312 37.0027 4.19978 37.171C4.22422 37.3394 4.5053 37.5077 4.99414 37.8204C5.07969 37.8805 5.18968 37.9406 5.28745 38.0128C5.48299 38.133 5.69074 38.2413 5.88628 38.3375C6.05737 38.4216 6.24069 38.5178 6.39956 38.614C8.00051 39.552 8.50157 41.0671 7.76831 42.7626C7.70721 42.919 7.62166 43.0633 7.54833 43.2076C7.52389 43.2557 7.49945 43.3038 7.47501 43.3519C7.07171 44.1094 7.07172 44.1094 7.79275 44.6506L8.08606 44.867C8.85598 45.4442 8.94153 45.9252 8.41602 46.6828C8.29381 46.8511 8.22049 46.9954 8.24493 47.0916C8.26937 47.1878 8.36714 47.272 8.5749 47.3802C10.1025 48.1859 10.6769 49.6289 10.1881 51.4567C9.93143 52.3946 9.98031 53.2845 10.3347 54.1743C10.7014 55.1002 11.5324 55.5211 12.5223 55.2926C16.5797 54.3427 20.5637 52.9598 24.4133 51.613C25.2932 51.3004 26.1854 50.9997 27.0653 50.6991C28.0918 50.3504 28.9717 49.8694 29.705 49.2802C30.4505 48.6789 30.8049 48.0656 30.8538 47.3081C30.8782 46.9473 31.0127 46.6467 31.2326 46.4543C31.4526 46.2739 31.7337 46.1898 32.0759 46.2138C32.7236 46.2619 33.1024 46.7669 33.0658 47.5245C32.9925 48.9314 32.2959 50.0858 30.866 51.1561C29.4606 52.2022 27.8108 52.8035 26.2465 53.3205C25.7454 53.4889 25.2443 53.6572 24.7188 53.8376C24.4989 53.9098 24.2789 53.9939 24.0467 54.0661C24.9755 55.1363 25.6599 56.0983 26.2098 57.0964C26.6864 57.9502 27.1997 58.9843 27.4808 60.0906C27.5908 60.5235 27.823 60.5475 28.2018 60.5475C34.4223 60.5115 40.7406 60.4874 46.8511 60.4634H48.0487C48.7331 60.4634 49.4175 60.4634 50.1385 60.4634H51.0918C50.2607 59.1887 49.6375 57.866 49.1731 56.435C48.0243 52.8155 47.4988 49.7371 47.5477 46.7549C47.6088 42.4981 49.1242 38.4818 52.0694 34.7901C53.5971 32.8781 55.2469 30.5453 55.9313 27.7435C56.0046 27.4308 56.2001 27.1663 56.469 27.022C56.7256 26.8777 57.0312 26.8416 57.3122 26.9258C57.9111 27.1062 58.2044 27.6713 58.0455 28.3327C57.5567 30.413 56.579 32.4332 55.0269 34.5376C54.7825 34.8623 54.5381 35.199 54.2937 35.5236C53.3282 36.7983 52.3383 38.109 51.5928 39.552C50.4685 41.7165 49.8697 43.9772 49.8086 46.2619C49.6986 50.2301 50.4807 54.1262 52.1305 57.8419C52.3383 58.3229 52.6316 58.7678 52.9127 59.2007C52.9616 59.2849 53.0227 59.3691 53.0716 59.4412C53.3282 59.8381 53.5848 60.2589 53.7926 60.7039C54.0615 61.269 54.1226 61.6538 54.0004 61.9545C53.9148 62.2431 53.6093 62.4715 52.9982 62.7ZM26.4787 62.5798H52.9738C53.5237 62.3633 53.817 62.1589 53.927 61.8943C54.037 61.6298 53.9759 61.269 53.7193 60.7399C53.5115 60.307 53.2549 59.8862 52.9982 59.4893C52.9494 59.4052 52.8882 59.321 52.8394 59.2488C52.5583 58.8159 52.265 58.359 52.045 57.878C50.3829 54.1382 49.6008 50.2301 49.7108 46.2379C49.7719 43.9411 50.3829 41.6684 51.5073 39.4798C52.265 38.0248 53.2549 36.7021 54.2203 35.4274C54.4648 35.1028 54.7092 34.7781 54.9536 34.4414C56.4934 32.3611 57.4711 30.3409 57.9477 28.2846C58.0822 27.6834 57.8255 27.1783 57.3 27.022C57.0434 26.9498 56.7745 26.9739 56.5545 27.1062C56.3223 27.2384 56.1513 27.4669 56.0779 27.7555C55.3813 30.5814 53.7193 32.9262 52.1916 34.8502C49.2708 38.5178 47.7554 42.5221 47.6943 46.7429C47.6577 49.7251 48.1709 52.7794 49.3197 56.3869C49.7841 57.8419 50.4318 59.1887 51.2751 60.4754L51.3362 60.5716H50.1507C49.4297 60.5716 48.7453 60.5716 48.061 60.5716H46.8633C40.7528 60.5956 34.4223 60.6197 28.214 60.6558C27.7985 60.6558 27.493 60.6197 27.3708 60.1146C27.0897 59.0204 26.5764 57.9983 26.112 57.1445C25.5621 56.1464 24.8655 55.1724 23.9 54.0781L23.8389 54.006L23.9245 53.9819C24.1811 53.8977 24.4378 53.8015 24.6822 53.7174C25.2077 53.537 25.7087 53.3566 26.2098 53.1883C27.7741 52.6712 29.4117 52.082 30.7927 51.0358C32.1859 49.9896 32.8702 48.8713 32.9436 47.5005C32.9802 46.803 32.6503 46.3581 32.0637 46.322C31.7581 46.298 31.5015 46.3701 31.3182 46.5385C31.1226 46.7068 31.0004 46.9714 30.976 47.3081C30.9271 48.1017 30.5483 48.7511 29.7906 49.3764C29.0451 49.9776 28.1407 50.4586 27.1019 50.8194C26.222 51.12 25.3299 51.4326 24.45 51.7333C20.5881 53.08 16.6041 54.4629 12.5467 55.4129C11.4957 55.6534 10.6036 55.1964 10.2247 54.2224C9.8581 53.2965 9.80922 52.3826 10.0659 51.4206C10.5425 49.6529 9.99253 48.258 8.51379 47.4884C8.26937 47.3562 8.15938 47.2479 8.12272 47.1157C8.08606 46.9593 8.17161 46.803 8.30604 46.5986C8.79488 45.9012 8.72155 45.4923 8.00051 44.9512L7.70721 44.7347C6.92506 44.1455 6.92506 44.1215 7.3528 43.2797C7.37724 43.2316 7.40168 43.1835 7.42612 43.1354C7.49945 42.9911 7.585 42.8468 7.6461 42.6905C8.35492 41.0551 7.86608 39.6001 6.32623 38.6862C6.16736 38.59 5.98405 38.5058 5.81295 38.4216C5.6052 38.3134 5.39744 38.2172 5.2019 38.0849C5.09191 38.0128 4.99415 37.9527 4.9086 37.9046C4.37087 37.5679 4.10201 37.3995 4.06535 37.1831C4.02869 36.9666 4.212 36.7261 4.59085 36.2451C4.65196 36.173 4.71306 36.1008 4.77417 36.0166C6.74175 33.5275 8.44047 30.8339 9.83366 27.984C10.2247 27.1903 10.2247 26.4207 9.84588 25.603C9.55258 24.9777 9.06374 24.5448 8.53823 24.0999L8.39158 23.9676C7.73165 23.3905 7.59722 23.1019 7.97607 22.3202C8.74599 20.781 9.23483 19.1216 9.69923 17.5103C9.88254 16.897 10.0659 16.2597 10.2614 15.6344C11.7035 11.2813 14.0866 8.26307 17.6062 6.45933C19.8793 5.28088 22.3724 4.71571 24.5111 4.31889C27.9574 3.66954 31.6237 3.05627 35.4122 3.09234C35.6444 3.09234 35.8644 3.11639 36.0844 3.12842C36.341 3.15247 36.6099 3.16449 36.8665 3.16449C37.3676 3.15247 37.7831 2.79172 37.832 2.28667C37.8809 1.82972 37.5387 1.3848 37.0376 1.25252C37.0009 1.2405 36.9521 1.2405 36.9032 1.2405C36.8054 1.2405 36.671 1.2405 36.5732 1.13227H32.8214C32.1859 1.2886 31.5382 1.3367 30.9027 1.3848C30.5238 1.40885 30.1327 1.44492 29.7539 1.49302C26.4909 1.93795 23.0079 2.47907 19.6838 3.48916C14.6487 5.01633 11.1291 8.31117 8.91709 13.542C8.42825 14.6964 8.06162 15.8989 7.80498 17.1375C7.57278 18.3159 7.08394 19.4222 6.61954 20.4804C6.47289 20.8171 6.31401 21.1779 6.16736 21.5266C5.50743 23.1379 5.80073 24.3284 7.13282 25.4948C8.3427 26.553 8.36714 26.6131 7.93941 27.3948C7.85386 27.5391 7.75609 27.7194 7.6461 27.9359C6.43622 30.3649 4.94526 32.6737 3.19766 34.8142C2.70882 35.4034 2.35441 36.0768 2.0611 36.666V37.6039C2.53772 38.8545 3.62539 39.4919 4.71306 40.033C5.40966 40.3817 5.83739 40.6583 5.9596 41.031C6.08181 41.4158 5.88628 41.8728 5.49521 42.5702C5.45854 42.6424 5.40966 42.7266 5.36078 42.7987C5.25079 42.9791 5.15302 43.1715 5.05525 43.3639C4.57863 44.374 4.68862 44.855 5.56853 45.5404C5.9596 45.841 6.28957 46.1056 6.02071 46.803C5.70296 47.6327 5.93516 48.1979 6.81507 48.7631C8.3427 49.7371 8.35492 49.7612 8.01273 51.4928L8.00051 51.5529C7.71943 52.9598 7.96385 54.3306 8.70933 55.6293C9.52814 57.0363 11.2146 57.7217 12.9011 57.3249C15.7364 56.6635 18.4372 55.8698 20.9425 54.968C21.4436 54.7876 21.798 54.8597 22.2013 55.2085C22.959 55.8698 23.6067 56.6996 24.23 57.8419C24.8899 59.0444 25.391 60.271 25.7332 61.5216C25.9043 62.0146 26.1243 62.3393 26.4787 62.5798Z" fill="#383838"/>
<path d="M25.3299 7.57765C25.3177 8.09472 24.951 8.46749 24.2544 8.62382C23.1179 8.86432 22.0058 9.16494 20.9181 9.54974C17.4596 10.7883 15.5531 13.4218 14.3799 16.6926C14.1232 17.402 13.9644 18.1476 13.781 18.8931C13.7199 19.1697 13.6222 19.2539 13.3289 19.1697C12.9011 19.0494 12.4612 18.9412 12.0212 18.8811C11.6668 18.833 11.6668 18.6646 11.7279 18.376C12.3634 15.3818 13.5977 12.6762 15.7364 10.4155C17.264 8.79216 19.2194 7.89029 21.3214 7.24095C22.1891 6.9764 23.0812 6.75995 23.9734 6.57958C24.6944 6.42325 25.3421 6.9283 25.3299 7.57765Z" fill="#383838"/>
<path d="M13.5244 19.2539C13.4633 19.2539 13.4022 19.2418 13.3289 19.2178C12.8767 19.0855 12.449 18.9893 12.0334 18.9292C11.8746 18.9051 11.7646 18.857 11.7157 18.7729C11.6424 18.6646 11.6668 18.5083 11.6913 18.352C12.3878 15.1173 13.6955 12.5079 15.712 10.3554C17.0441 8.93646 18.7672 7.95042 21.3214 7.1688C22.2624 6.8802 23.2401 6.66375 23.9856 6.50743C24.3644 6.42325 24.7311 6.51945 25.0121 6.74792C25.2688 6.95235 25.4154 7.265 25.4032 7.57765C25.391 8.13079 24.9877 8.52762 24.2789 8.67192C23.0568 8.92444 21.9691 9.22506 20.9548 9.59784C17.8506 10.7162 15.7853 12.9648 14.4532 16.6926C14.221 17.3299 14.0621 18.0033 13.9155 18.6646L13.8666 18.8931C13.8299 19.0254 13.7933 19.1577 13.6833 19.2178C13.6222 19.2418 13.5733 19.2539 13.5244 19.2539ZM24.23 6.60363C24.1445 6.60363 24.0711 6.61565 23.9856 6.62768C23.2401 6.784 22.2746 7.00045 21.3336 7.28905C18.8039 8.07067 17.0929 9.04469 15.7731 10.4396C13.781 12.568 12.4734 15.1654 11.789 18.376C11.7524 18.5324 11.7401 18.6406 11.789 18.7007C11.8257 18.7488 11.899 18.7849 12.0334 18.8089C12.449 18.8691 12.8889 18.9653 13.3533 19.0975C13.4755 19.1336 13.5611 19.1336 13.61 19.1096C13.6588 19.0855 13.6955 19.0013 13.7322 18.8691L13.781 18.6406C13.9399 17.9792 14.0988 17.3058 14.331 16.6565C15.6753 12.8927 17.7651 10.6079 20.9059 9.47759C21.9325 9.10481 23.0201 8.80419 24.2544 8.55167C24.9144 8.40737 25.281 8.07067 25.281 7.56562C25.281 7.28905 25.1588 7.01247 24.9266 6.8321C24.7311 6.6878 24.4866 6.60363 24.23 6.60363Z" fill="#383838"/>
<path d="M12.4367 22.6088C12.4367 23.174 11.9723 23.655 11.4102 23.643C10.8602 23.631 10.3592 23.1379 10.3714 22.5968C10.3836 22.0677 10.8358 21.6228 11.3979 21.6108C11.9723 21.5987 12.4245 22.0316 12.4367 22.6088Z" fill="#383838"/>
<path d="M11.4102 23.7151H11.3979C10.8113 23.7031 10.2858 23.174 10.2981 22.6088C10.3103 22.0437 10.7869 21.5747 11.3735 21.5627C11.679 21.5506 11.9601 21.6589 12.1679 21.8513C12.3756 22.0437 12.4856 22.3202 12.4856 22.6209C12.4856 22.9095 12.3634 23.1981 12.1557 23.4145C11.9601 23.6069 11.6913 23.7151 11.4102 23.7151ZM11.4102 21.6709C11.3979 21.6709 11.3857 21.6709 11.3857 21.6709C10.8724 21.6829 10.4325 22.1158 10.4203 22.5968C10.408 23.1019 10.8847 23.5829 11.3979 23.5829C11.6424 23.5829 11.8868 23.4867 12.0701 23.3063C12.2656 23.1139 12.3756 22.8614 12.3634 22.5968C12.3634 22.3323 12.2656 22.0918 12.0823 21.9114C11.9112 21.7671 11.6668 21.6709 11.4102 21.6709Z" fill="#383838"/>
<path d="M39.5796 14.4198C43.6125 14.4198 46.8755 17.6786 46.8633 21.6829C46.8511 25.567 43.4903 28.8257 39.5307 28.8017C35.4978 28.7776 32.2348 25.5189 32.247 21.5146C32.2592 17.6305 35.5711 14.4198 39.5796 14.4198ZM34.3734 21.5386C34.3857 24.5689 36.6221 26.7214 39.7262 26.7093C42.4515 26.6973 44.7979 24.3524 44.7857 21.6468C44.7735 18.7849 42.4148 16.4641 39.5551 16.4761C36.6954 16.4761 34.3612 18.7608 34.3734 21.5386Z" fill="#383838"/>
<path d="M39.5918 28.8618C39.5796 28.8618 39.5551 28.8618 39.5429 28.8618C35.4855 28.8378 32.1859 25.5429 32.1981 21.5146C32.1981 19.6146 32.9802 17.8229 34.3857 16.4641C35.7911 15.1053 37.6364 14.3597 39.5918 14.3597C39.5918 14.3597 39.5918 14.3597 39.604 14.3597C41.5594 14.3597 43.4047 15.1173 44.7857 16.4881C46.1911 17.871 46.9611 19.7228 46.9488 21.6829C46.9366 23.5708 46.1667 25.3746 44.7491 26.7454C43.3314 28.1163 41.4983 28.8618 39.5918 28.8618ZM39.5796 14.48C37.6609 14.48 35.8399 15.2135 34.459 16.5483C33.078 17.883 32.3081 19.6507 32.3081 21.5146C32.3081 25.4708 35.5466 28.7175 39.5307 28.7416C39.5429 28.7416 39.5674 28.7416 39.5796 28.7416C41.4616 28.7416 43.2581 28.008 44.6391 26.6612C46.02 25.3144 46.79 23.5468 46.8022 21.6829C46.8144 19.7469 46.0567 17.9311 44.6757 16.5723C43.3192 15.2255 41.5105 14.48 39.5796 14.48ZM39.7018 26.7574C36.5976 26.7574 34.3368 24.5689 34.3123 21.5266C34.3001 18.7127 36.6465 16.416 39.5429 16.3919C39.5551 16.3919 39.5674 16.3919 39.5674 16.3919C42.4515 16.3919 44.8102 18.7248 44.8346 21.6228C44.8468 22.9335 44.2847 24.2442 43.307 25.2303C42.3415 26.1923 41.0339 26.7454 39.7262 26.7574C39.714 26.7574 39.714 26.7574 39.7018 26.7574ZM34.4345 21.5386C34.4468 24.4967 36.6588 26.6492 39.7018 26.6492C39.714 26.6492 39.714 26.6492 39.7262 26.6492C40.9972 26.6492 42.2804 26.0961 43.2214 25.1581C44.1747 24.2081 44.7246 22.9215 44.7124 21.6348C44.7002 18.8089 42.3904 16.5242 39.5674 16.5242C39.5551 16.5242 39.5429 16.5242 39.5429 16.5242C36.7199 16.5362 34.4223 18.7849 34.4345 21.5386Z" fill="#383838"/>
</svg>
