<svg width="26" height="24" viewBox="0 0 26 24" fill="none" xmlns="http://www.w3.org/2000/svg">
<path fill-rule="evenodd" clip-rule="evenodd" d="M21.0002 0H24.0002C24.8252 0 25.5002 0.675 25.5002 1.5V22.5C25.5002 23.325 24.8252 24 24.0002 24H21.0002C20.1752 24 19.5002 23.325 19.5002 22.5C19.5002 21.675 20.1752 21 21.0002 21H22.5002V3H21.0002C20.1752 3 19.5002 2.325 19.5002 1.5C19.5002 0.675 20.1752 0 21.0002 0ZM11.1 4.80019C11.766 4.30369 12.7035 4.43869 13.2 5.10019L17.7 11.1002C18.09 11.6192 18.102 12.3302 17.727 12.8627L13.506 18.8627C13.2135 19.2782 12.75 19.5002 12.2775 19.5002C11.9805 19.5002 11.679 19.4117 11.4165 19.2272C10.7385 18.7502 10.575 17.8142 11.052 17.1362L13.629 13.4732C13.6088 13.4752 13.5898 13.4809 13.5709 13.4865C13.5478 13.4934 13.5248 13.5002 13.5 13.5002H1.5C0.672 13.5002 0 12.8282 0 12.0002C0 11.1707 0.672 10.5002 1.5 10.5002H13.5H13.5015L10.8 6.89869C10.3035 6.23719 10.437 5.29669 11.1 4.80019Z" fill="white"/>
</svg>
