<svg width="235" height="13" viewBox="0 0 235 13" fill="none" xmlns="http://www.w3.org/2000/svg">
<path d="M130.144 8.192L225.2 8.192C230.128 8.192 234.16 4.8 234.16 2.40413e-06L232.944 2.35097e-06C232.944 4.032 229.488 6.912 225.2 6.912L130.144 6.912C126.944 6.912 123.424 8.256 121.824 11.264C120.224 8.256 116.704 6.912 113.504 6.912L8.96014 6.91199C4.67215 6.91199 1.40819 4.03199 1.21619 -1.01823e-05L0.00012207 -1.02355e-05C0.00012186 4.79999 4.03215 8.19199 8.96014 8.19199L113.504 8.192C116.448 8.192 119.648 9.40799 121.12 12.672L122.528 12.672C124 9.408 127.2 8.192 130.144 8.192Z" fill="#383838"/>
</svg>
